<?xml version="1.0" encoding="UTF-8"?><svg id="_图层_4" xmlns="http://www.w3.org/2000/svg" xmlns:xlink="http://www.w3.org/1999/xlink" viewBox="0 0 542.7 664.55"><defs><style>.cls-1{fill:#f6cfcf;}.cls-2{fill:#acc878;}.cls-3{fill:#f9d7d7;}.cls-4{fill:#319fd9;}.cls-5{fill:#fffcf5;}.cls-6{fill:#fff;}.cls-7{fill:#a8dff9;}.cls-8{fill:#d3edfb;}.cls-9{stroke:#319fd9;}.cls-9,.cls-10{fill:none;}.cls-9,.cls-10,.cls-11{stroke-miterlimit:10;stroke-width:7px;}.cls-12{fill:url(#New_Gradient_Swatch);}.cls-13{fill:#379ed9;}.cls-14{fill:#ef669c;}.cls-15{fill:#b9e2f9;}.cls-10{stroke:#b9e2f9;}.cls-16{fill:#c9df8b;}.cls-11{fill:url(#New_Gradient_Swatch-2);stroke:#2390cb;}.cls-17{fill:#2390cb;}</style><linearGradient id="New_Gradient_Swatch" x1="74.61" y1="573.35" x2="505" y2="573.35" gradientUnits="userSpaceOnUse"><stop offset="0" stop-color="#fff"/><stop offset=".97" stop-color="#edf8fd"/></linearGradient><linearGradient id="New_Gradient_Swatch-2" x1="367.15" y1="235.82" x2="448.03" y2="235.82" xlink:href="#New_Gradient_Swatch"/></defs><path class="cls-6" d="M362.96,661.05c-4.24,0-8.17-.24-12-.73-8.05-.31-15.72-1.49-23.43-3.62-6.2-1.71-24.4-6.73-27.57-22.74l-4.61-.82c-10.3,5.09-21.12,9.31-32.16,12.55-18.87,5.53-38.48,8.33-58.27,8.33-3.24,0-6.45-.08-9.53-.22-22.32-1.03-43.64-5.5-63.39-13.3-2.46.85-5.01,1.28-7.6,1.28-.46,0-.93-.02-1.39-.04-20.05-1.25-39.43-9.04-54.59-21.94-2.6-2.21-4.7-4.99-6.1-8.09-1.73-1.62-3.19-3.48-4.36-5.52-1.98-3.48-3.88-6.95-5.63-10.33-4.91-9.41-9.55-19.73-14.61-32.45-.48-1.21-.97-2.4-1.46-3.58-.92-2.24-1.96-4.77-2.94-7.43-4.24-11.45-6.36-22.91-8.42-33.99l-.68-3.71c-.97-5.15-2-10.8-3.31-18.29l-.39-2.17c-1.28-7.15-2.59-14.54-3.12-22.45-1.52-22.94,5.48-41.81,19.71-53.12,7.86-6.24,17.2-9.54,27-9.54,3.24,0,6.51.38,9.72,1.12,8.7,2.01,16.98,6.87,24.62,14.43,7.96,7.88,14.38,17.67,19.08,29.1,1.17,2.84,2.21,5.76,3.14,8.78l4.77-10.88c1.39-3.61,2.82-7.07,4.25-10.28,1.09-2.47,2.3-5.02,3.59-7.6l.25-.57c-.46-.33-.92-.68-1.38-1.03-8.63-6.62-15.26-14.55-19.74-23.58-4.6-1.91-8.54-5.17-11.2-9.32-1.85-2.88-3.06-6.14-3.53-9.5-1.66-1.47-3.12-3.17-4.35-5.06-2.46-3.83-3.75-8.44-3.7-13.15-2.13-2.46-3.77-5.37-4.79-8.5-1.95-6.05-1.33-12.75,1.7-18.44-8.39-15.57-13.46-32.92-14.67-50.34-.44-6.32,1.67-12.42,5.92-17.17,2.72-3.05,6.21-5.37,10.05-6.74-3.32-4.6-5.15-10.15-5.15-15.92,0-15.03,12.23-27.26,27.26-27.26,12.6,0,23.35,8.56,26.4,20.45,1.28-.18,2.57-.28,3.86-.28.21,0,.42,0,.64,0-1.46-4.99-1.37-10.39.33-15.38-.41-2.17-.55-4.38-.39-6.57.48-6.75,3.55-12.91,8.66-17.34,4.62-4,10.52-6.21,16.61-6.21.71,0,1.27.02,1.8.06,2.22.16,4.41.6,6.51,1.33,1.56-.29,3.12-.44,4.67-.44,7.35,0,14.32,3.18,19.13,8.73,4.44,5.1,6.62,11.64,6.15,18.4-.15,2.06-.54,4.07-1.16,5.99.31,1.4.51,2.83.58,4.27,2.27-.51,4.56-.96,6.85-1.33.41-.14.83-.26,1.24-.37,2.01-.56,4.12-.84,6.22-.84.52,0,1.02.02,1.53.05,3.44-.31,6.87-.48,10.22-.5,1.01-2.79,1.87-5.73,2.58-8.78,2.5-10.82,12.15-18.37,23.46-18.37,1.8,0,3.61.2,5.4.61,1.01.23,1.99.52,2.93.87,3.15.94,6.05,2.46,8.63,4.53,3.96,3.17,7.82,6.65,11.49,10.35,4.43,4.49,8.59,9.24,12.39,14.16,4.98.49,9.7,2.16,14.32,5.07,4.04-6.68,11.44-10.83,19.34-10.83,7.32,0,14.06,3.52,18.2,9.35.31-.16.62-.32.92-.47-.41-1.59-.67-3.22-.78-4.89-.02-.31-.03-.58-.03-.83-.22-8.51,2.74-15.65,4.89-20.86l.29-.72c.25-.6.49-1.2.72-1.79.08-.2.18-.46.3-.72.06-.14.17-.4.24-.56h0c.72-1.55,1.44-3.09,2.14-4.65l.06-.12c2.53-5.49,5.13-11.16,8.15-16.82-.15-.31-.29-.63-.43-.95-2.65,2.64-5.75,4.77-9.24,6.35-4.33,1.97-9.02,2.97-13.93,2.97-3.14,0-6.28-.43-9.34-1.28-12.56-3.49-21.26-11.98-25.83-25.24-3.03-8.78-2.9-16.93-2.79-23.49l.02-1.03c.15-10.49,4.22-24.76,22.44-34.1-6.98-6.31-9.75-16.16-6.6-25.53.55-1.61,1.2-3.2,1.93-4.74,1.03-2.63,2.47-5.02,4.28-7.1,6.19-7.96,14.11-9.15,18.28-9.15,2.43,0,4.88.37,7.68,1.15l1.97.55c2.94.81,5.98,1.65,9.11,2.68.41-.06.81-.12,1.21-.17,3.83-1.23,7.78-1.85,11.74-1.85,10.58,0,20.3,4.46,26.84,12.29,3.19.92,6.34,1.9,9.38,2.94,12.73,4.36,18.18,11.83,18.21,24.96,0,0,0,.24,0,.29,0,.94,0,2.36-.24,4.13-.66,4.91-2.74,9.35-5.98,12.89,8.53,5.61,13.9,13.95,16.36,25.35.17.8.34,1.61.5,2.41,5.04,5.44,7.03,12.88,5.47,20.65-.03,2.1-.33,4.14-.88,6.08l-.08.31c-.42,1.59-1.23,4.61-3.2,7.82,8.75,18.11,17.69,36.82,24.29,56.61,4.16,11.68.46,19.61-2.11,23.29-2.3,3.28-5.48,5.81-9.13,7.33.55,3.95.96,8.87-.15,14.29,0,.04-.05.24-.06.3-2.34,10.53-11.11,17.89-21.34,17.89-3.71,0-7.39-1-10.68-2.87-.06.09-.12.18-.19.27-.6.86-1.27,1.68-1.99,2.43-.22.23-.45.46-.68.69,4.25,2.5,8.13,5.85,11.24,9.67,4.28,5.27,6.03,12.15,4.8,18.89-.19,1.05-.45,2.09-.77,3.09.68,1.51,1.27,2.95,1.78,4.24,10.62,1.79,18.52,10.79,18.71,21.73.16,9.18-5.18,17.31-13.21,20.94,4.65,6.34,5.69,14.7,2.56,22.09-3.54,8.36-11.64,13.76-20.63,13.76-2.07,0-4.11-.28-6.07-.83-1.2-.33-2.41-.75-3.58-1.25-1.36.28-2.66.45-3.94.52-.46.03-.99.04-1.51.04-3.33,0-6.71-.65-9.88-1.88-1.62,1.24-3.28,2.41-4.95,3.48-7.32,4.71-15.42,8.3-24.71,10.93-.92,3.95-2.39,7.89-4.37,11.74.69.89,1.32,1.83,1.86,2.82,1.02-.11,2.04-.17,3.08-.17,15.17,0,27.52,12.34,27.52,27.51,0,8.6-3.94,16.54-10.66,21.74.34,1.46.52,2.97.52,4.49,19.46,2.21,41.42,5,60.38,8.91,26.83,5.53,54.63,14.27,57.33,37.22.72,5.31-.22,10.95-2.73,16.23-.71,1.57-1.43,2.88-1.91,3.68-2.85,4.97-6.93,9.21-12.08,12.55-.07.05-.14.11-.22.16,1.19.54,2.38,1.09,3.56,1.65,4.15,2,11.72,5.66,18.18,10.33,11.34,6.41,14.3,14.78,14.78,20.68.07.78.09,1.58.07,2.36.12,1.85.02,3.71-.29,5.54-1.56,9.06-7.72,15.9-18.31,20.31-6.9,3.95-14.65,6.85-17.98,8.1-10.45,3.9-19.71,6.13-29.25,7.05-.53.05-1.06.1-1.59.15-4.42.35-8.36.52-12.04.52-4.5,0-8.62-.25-12.96-.77l-1.14-.06c-6.78-.42-13.77-.84-22.45-.84-7.96,0-16.03.38-24.66,1.15-1.09.1-2.19.2-3.31.31l-.3.03c-5.46.51-11.66,1.09-18.19,1.09Z"/><path class="cls-13" d="M344.27,71.97c2.12,0,4.27.33,6.74,1.02l1.97.55c3.18.88,6.43,1.78,9.76,2.9.77-.13,1.53-.24,2.28-.34,3.54-1.17,7.28-1.78,10.96-1.78,9.91,0,19,4.39,24.81,11.85,3.44.97,6.9,2.04,10.28,3.19,11.39,3.9,15.83,9.99,15.84,21.73v.21c.01.77.02,2.06-.2,3.65-.79,5.86-3.96,10.81-8.49,13.98,10.2,5.04,16.29,13.3,18.92,25.48.24,1.12.47,2.25.69,3.37,4.76,4.65,6.75,11.36,5.2,18.58,0,1.34-.12,3.29-.75,5.49l-.1.38c-.47,1.76-1.39,5.15-3.84,8.42,8.97,18.57,18.24,37.76,25,58.01,3.65,10.26.53,17.04-1.66,20.17-2.46,3.51-6.1,5.95-10.17,6.93.01.05.08.5.08.5.62,4.01,1.47,9.5.24,15.49-.02.08-.04.16-.05.24-1.98,8.92-9.34,15.15-17.92,15.15-4.22,0-8.36-1.54-11.74-4.34-.6,1.09-1.26,2.18-2,3.25-.49.71-1.03,1.37-1.63,1.99-1.44,1.51-3.06,2.75-4.79,3.71,1.38.61,3.04,1.36,4.8,2.4,3.9,2.29,7.48,5.36,10.34,8.89,3.63,4.47,5.12,10.33,4.08,16.06-.25,1.37-.62,2.67-1.1,3.9,1.1,2.29,1.96,4.48,2.72,6.42l.12.29c.1.26.23.45.33.58,9.9.74,17.42,8.62,17.59,18.56.16,9.45-6.32,17.28-15.39,19.04-.16.1-.33.21-.51.32.59.52,1.15,1.06,1.7,1.62,5.31,5.48,6.81,13.58,3.82,20.63-2.99,7.07-9.82,11.63-17.41,11.63-1.73,0-3.45-.23-5.12-.7-1.45-.4-2.83-.92-4.16-1.55-1.31.32-2.82.6-4.5.69-.44.03-.88.04-1.32.04-3.6,0-7.16-.85-10.41-2.43-2,1.63-4.11,3.17-6.31,4.58-7.5,4.83-16.02,8.49-25.81,11.06-.82,4.5-2.42,9.04-4.78,13.5-.28.52-.56,1.04-.85,1.55,1.78,1.74,3.17,3.86,4.04,6.21,1.65-.37,3.38-.56,5.14-.56,13.24,0,24.02,10.77,24.02,24.01,0,8.56-4.5,16.08-11.25,20.33.72,1.86,1.11,3.86,1.11,5.96,0,1.04-.1,2.05-.28,3.03,21.47,2.41,44.07,5.25,63.45,9.24,25.63,5.28,52.12,13.48,54.56,34.2.64,4.72-.2,9.65-2.42,14.32-.73,1.62-1.44,2.86-1.76,3.4-2.62,4.57-6.34,8.42-11.08,11.47-1.78,1.35-3.66,2.61-5.56,3.74,3.19,1.25,6.32,2.62,9.39,4.1,4.1,1.98,11.53,5.56,17.81,10.13,4.01,2.24,12.34,7.62,13.18,18.01.06.72.08,1.44.06,2.16.12,1.63.04,3.25-.24,4.86-1.93,11.23-11.74,15.84-16.41,17.76-6.75,3.89-14.38,6.74-17.74,8-10.05,3.75-19.04,5.92-28.28,6.81-.51.05-1.02.1-1.53.14-4.29.34-8.14.51-11.77.51-4.37,0-8.4-.24-12.65-.76l-1.25-.07c-6.85-.42-13.93-.85-22.65-.85-8.07,0-16.24.38-24.97,1.16-1.1.1-2.21.2-3.34.31-5.47.51-11.67,1.1-18.15,1.1-4.17,0-8.01-.24-11.71-.72-7.81-.29-15.27-1.43-22.79-3.5-6.52-1.8-23.84-6.56-25.36-22.08-.01-.09-.02-.19-.02-.29l-8.25-1.47c-10.44,5.24-21.39,9.55-32.62,12.84-18.54,5.43-37.81,8.19-57.29,8.19-3.11,0-6.26-.07-9.36-.22-22.42-1.03-43.78-5.59-63.53-13.56-2.37.99-4.95,1.54-7.63,1.54-.4,0-.81-.02-1.21-.04-19.26-1.2-37.9-8.69-52.5-21.11-2.43-2.06-4.28-4.63-5.45-7.5-1.67-1.47-3.11-3.21-4.24-5.18-1.95-3.42-3.82-6.85-5.56-10.2-4.85-9.3-9.45-19.52-14.46-32.13-.48-1.22-.98-2.43-1.48-3.63-.96-2.34-1.95-4.76-2.89-7.3-4.16-11.24-6.26-22.62-8.3-33.61l-.64-3.5c-1-5.29-2.02-10.93-3.31-18.27l-.39-2.18c-1.26-7.06-2.56-14.35-3.07-22.06-1.44-21.76,5.09-39.57,18.4-50.15,7.23-5.74,15.81-8.78,24.82-8.78,2.99,0,5.99.35,8.93,1.03,8.05,1.86,15.78,6.41,22.95,13.51,7.63,7.55,13.79,16.95,18.31,27.94,2.37,5.76,4.22,11.9,5.62,18.72.3-1.23.71-2.44,1.23-3.63l7.53-17.19c1.4-3.63,2.82-7.06,4.21-10.19,1.11-2.51,2.31-5.04,3.56-7.53l1.44-3.28c-1.24-.83-2.44-1.69-3.62-2.59-8.59-6.59-15.12-14.6-19.31-23.57-4.38-1.51-8.25-4.46-10.81-8.44-1.84-2.86-2.9-6.07-3.14-9.39-1.82-1.42-3.43-3.17-4.74-5.19-2.35-3.65-3.41-8.12-3.08-12.55-2.24-2.26-3.98-5.07-5.02-8.27-1.7-5.27-1.1-11.12,1.65-16.06.24-.43.49-.84.75-1.24-8.67-15.47-13.97-32.94-15.2-50.64-.37-5.36,1.42-10.55,5.04-14.6,3.61-4.05,8.73-6.55,14.12-6.94-5.09-4.36-8.33-10.84-8.33-18.05,0-13.11,10.65-23.76,23.76-23.76,12.21,0,22.29,9.25,23.61,21.12,2.11-.61,4.34-.95,6.65-.95s4.35.31,6.38.87c-3.69-5.94-4.24-13.19-1.78-19.48-.5-2.13-.69-4.34-.53-6.58.41-5.81,3.06-11.13,7.46-14.95,3.98-3.45,9.06-5.35,14.32-5.35.51,0,1.02.01,1.53.05,2.27.16,4.46.66,6.51,1.47,1.61-.37,3.27-.57,4.94-.57,6.33,0,12.34,2.74,16.49,7.52,3.83,4.4,5.71,10.04,5.3,15.86-.15,2.1-.59,4.14-1.31,6.07.63,2.32.87,4.76.7,7.23-.04.59-.12,1.17-.21,1.75.68-.18,1.35-.37,2.03-.54,3.05-.76,6.2-1.41,9.41-1.93.42-.15.84-.28,1.26-.39,1.74-.48,3.53-.73,5.33-.73.53,0,1.05.02,1.57.06,3.71-.34,7.46-.52,11.16-.52.48,0,.96,0,1.43,0,1.46-3.64,2.65-7.48,3.58-11.5,2.13-9.22,10.38-15.66,20.05-15.66,1.56,0,3.12.18,4.63.52.87.2,1.74.46,2.58.78,2.74.8,5.31,2.14,7.55,3.94,3.87,3.1,7.64,6.5,11.2,10.09,4.7,4.76,9.06,9.79,13.05,15.07,7.22.32,12.91,3.4,17.3,6.77.56-1.07,1.15-2.13,1.78-3.17,3.41-5.7,9.7-9.24,16.4-9.24s13.41,3.84,16.66,10.01c.1.19.2.37.3.56,1.87-1.14,3.81-2.15,5.81-3.03.22-.1.45-.17.67-.26-.88-2.15-1.44-4.51-1.6-7.01-.01-.2-.02-.41-.02-.61-.2-7.87,2.6-14.62,4.64-19.55.35-.86.7-1.7,1.03-2.54.07-.19.15-.38.24-.57,0,0,.16-.39.22-.51.73-1.56,1.45-3.12,2.16-4.69,2.78-6.04,5.62-12.22,8.98-18.36-.94-1.62-1.65-3.34-2.1-5.11-1.03,0-2.08-.04-3.15-.09-2.68,3.16-6.04,5.67-9.83,7.39-3.8,1.73-8.04,2.66-12.48,2.66-2.83,0-5.66-.39-8.4-1.15-11.39-3.16-19.28-10.9-23.46-23.01-2.82-8.18-2.7-16-2.6-22.29l.02-1.02c.14-9.86,4.13-23.41,22.35-31.94,1.27-.59,2.59-1.07,3.96-1.45-9.46-4.6-14.02-15.15-10.65-25.2.5-1.47,1.11-2.97,1.83-4.46.89-2.32,2.16-4.44,3.77-6.27,5.26-6.82,11.94-7.88,15.58-7.88M344.27,64.97c-4.8,0-13.89,1.36-20.99,10.43-2.02,2.34-3.63,5-4.79,7.93-.77,1.63-1.46,3.31-2.03,4.99-3.08,9.17-1.23,18.72,4.33,25.81-17.28,10.72-20.24,26.16-20.36,34.93l-.02.98c-.1,6.49-.24,15.35,2.98,24.71,4.91,14.22,14.66,23.72,28.21,27.47,3.36.93,6.82,1.4,10.27,1.4,5.41,0,10.59-1.11,15.38-3.29.01,0,.03-.01.04-.02-1.07,2.27-2.11,4.52-3.13,6.74l-.07.15c-.71,1.57-1.41,3.08-2.12,4.6-.06.13-.16.34-.32.71-.13.29-.25.58-.36.88-.22.55-.44,1.09-.67,1.65l-.31.76c-1.97,4.77-4.88,11.8-5.15,20.17-4.26-2.97-9.41-4.65-14.83-4.65-7.94,0-15.45,3.65-20.35,9.71-3.7-1.94-7.5-3.18-11.44-3.75-3.63-4.61-7.58-9.08-11.76-13.31-3.78-3.81-7.74-7.38-11.8-10.64-2.89-2.32-6.16-4.05-9.7-5.12-1.04-.38-2.13-.71-3.24-.96-2.07-.47-4.14-.7-6.2-.7-12.95,0-24,8.67-26.87,21.08-.49,2.1-1.05,4.14-1.69,6.12-2.56.07-5.15.22-7.75.45-.49-.03-.99-.04-1.48-.04-2.39,0-4.8.33-7.14.97-.38.1-.77.21-1.15.34-.98.16-1.96.34-2.94.53.53-1.88.87-3.82,1.01-5.8.54-7.7-1.94-15.14-7-20.95-5.47-6.3-13.41-9.92-21.77-9.92-1.46,0-2.93.11-4.4.34-2.11-.65-4.3-1.06-6.53-1.22-.81-.06-1.56-.07-2.05-.07-6.94,0-13.65,2.51-18.91,7.06-5.82,5.05-9.32,12.06-9.86,19.75-.16,2.19-.06,4.39.28,6.56-.69,2.26-1.1,4.59-1.22,6.92-5.4-9.03-15.26-14.97-26.41-14.97-16.96,0-30.76,13.8-30.76,30.76,0,5.07,1.25,9.99,3.57,14.36-2.84,1.53-5.43,3.55-7.58,5.97-4.88,5.46-7.3,12.48-6.8,19.74,1.2,17.32,6.11,34.58,14.23,50.17-2.74,6.14-3.16,13.1-1.11,19.44,1.03,3.16,2.61,6.12,4.64,8.71.18,4.93,1.64,9.72,4.24,13.76,1.17,1.81,2.52,3.46,4.04,4.93.64,3.42,1.95,6.71,3.84,9.65,2.81,4.37,6.86,7.89,11.59,10.12,4.54,8.74,11.01,16.45,19.28,22.98-.94,1.93-1.82,3.84-2.65,5.7-1.44,3.23-2.88,6.72-4.28,10.36l-1.19,2.71c-.08-.2-.16-.4-.25-.6-4.88-11.86-11.56-22.04-19.86-30.25-8.11-8.03-16.96-13.2-26.3-15.35-3.47-.8-7.01-1.21-10.51-1.21-10.6,0-20.69,3.56-29.17,10.3-15.16,12.05-22.63,31.97-21.03,56.09.54,8.11,1.87,15.59,3.16,22.83l.39,2.18c1.32,7.49,2.34,13.15,3.32,18.34l.63,3.46.04.21c2.08,11.23,4.24,22.83,8.58,34.57,1.01,2.72,2.06,5.28,2.98,7.53.56,1.34,1.01,2.43,1.44,3.54,5.11,12.86,9.8,23.28,14.77,32.8,1.77,3.41,3.69,6.93,5.69,10.43,1.24,2.15,2.75,4.12,4.51,5.86,1.6,3.32,3.91,6.3,6.74,8.69,15.73,13.38,35.83,21.46,56.59,22.76.03,0,.06,0,.09,0,.43.02.97.05,1.56.05,2.54,0,5.05-.36,7.48-1.07,19.79,7.66,41.09,12.06,63.36,13.08,3.12.15,6.38.23,9.68.23,20.13,0,40.06-2.85,59.26-8.47,10.87-3.18,21.52-7.31,31.69-12.26l1.23.22c4.71,16.23,23.06,21.3,29.47,23.07,7.95,2.19,15.83,3.41,24.1,3.74,3.94.5,7.96.74,12.29.74,6.69,0,12.96-.59,18.5-1.1l.3-.03c1.03-.1,2.01-.19,2.98-.28l.34-.03c8.52-.76,16.48-1.13,24.34-1.13,8.58,0,15.51.43,22.22.84l1.06.06c4.44.53,8.66.78,13.27.78,3.78,0,7.81-.17,12.32-.53.53-.04,1.06-.09,1.59-.15h.07c9.84-.95,19.39-3.25,30.05-7.22l.09-.03c3.38-1.27,11.21-4.2,18.3-8.23,11.65-4.91,18.45-12.6,20.21-22.87.35-2.04.47-4.13.35-6.21.01-.86-.02-1.72-.09-2.58-.54-6.7-3.83-16.18-16.37-23.33-5.89-4.23-12.54-7.61-16.87-9.72,3.47-2.97,6.35-6.42,8.57-10.29.52-.88,1.29-2.27,2.07-3.98,2.77-5.86,3.81-12.13,3.01-18.14-1.4-11.72-8.9-21.21-22.28-28.22-11.67-6.1-26.33-9.6-37.81-11.96-18.14-3.73-38.96-6.45-57.75-8.62,6.53-5.83,10.31-14.15,10.31-23.08,0-17.1-13.92-31.01-31.02-31.01-.21,0-.42,0-.63,0,1.22-2.67,2.21-5.38,2.97-8.09,8.82-2.66,16.61-6.21,23.71-10.79,1.22-.78,2.44-1.62,3.65-2.5,3.02.96,6.17,1.46,9.28,1.46.63,0,1.2-.02,1.75-.05,1.1-.06,2.21-.19,3.34-.38,1,.38,2.01.72,3.03,1,2.23.63,4.59.95,6.98.95,10.41,0,19.77-6.24,23.86-15.9,3.09-7.29,2.67-15.4-.86-22.17,7.31-4.77,11.95-13.07,11.79-22.29-.2-11.97-8.39-21.93-19.66-24.72-.19-.47-.39-.95-.61-1.44.19-.73.36-1.47.49-2.21,1.41-7.75-.61-15.67-5.53-21.73-1.39-1.71-2.92-3.34-4.57-4.85,1.37.24,2.76.36,4.16.36,11.88,0,22.06-8.48,24.75-20.63.02-.07.03-.14.04-.22.01-.05.02-.09.03-.13.98-4.78.88-9.23.5-12.93,3.24-1.78,6.07-4.3,8.23-7.38,2.96-4.23,7.21-13.28,2.55-26.46-6.48-19.39-15.12-37.65-23.65-55.32,1.56-3,2.27-5.66,2.63-7.03l.09-.34c.6-2.11.93-4.32.99-6.59,1.61-8.43-.46-16.53-5.72-22.65-.1-.51-.21-1.01-.32-1.51-2.37-10.97-7.24-19.33-14.81-25.35,2.35-3.47,3.9-7.48,4.47-11.71.27-1.98.27-3.61.27-4.49v-.09c0-.11,0-.22,0-.33v-.05c-.06-14.63-6.41-23.33-20.57-28.18-2.78-.95-5.65-1.85-8.55-2.7-7.19-8.11-17.56-12.72-28.81-12.72-4.23,0-8.43.65-12.52,1.93-.05,0-.09.01-.13.02-2.92-.93-5.74-1.71-8.48-2.47l-1.96-.55c-3.12-.87-5.86-1.28-8.62-1.28h0Z"/><path class="cls-8" d="M363.44,92.56c-5.23-1.61-10.45-3.22-15.68-4.83-2.33-.72-4.99-1.4-7.07-.15-2.29,1.38-2.8,4.73-1.59,7.12,1.22,2.38,3.72,3.87,6.29,4.62,2.57.75,5.27.88,7.91,1.3,4.21.66,8.48,2.16,11.41,5.26,2.93,3.1,4.15,8.08,2,11.76-1.77,3.04-5.43,4.75-6.8,8-.87,2.06-.66,4.39-.54,6.62.13,2.23.13,4.62-1.07,6.5-1.2,1.89-4.02,2.89-5.73,1.46-.88-.74-1.25-1.89-1.77-2.91-2.2-4.35-7.58-6.57-12.39-5.78-4.81.79-8.93,4.21-11.36,8.43-2.43,4.22-3.33,9.19-3.41,14.06-.03,1.51.02,3.02.26,4.51.9,5.57,4.68,10.62,9.83,12.91,5.15,2.29,11.51,1.7,16.06-1.63,1.42-1.04,2.68-2.32,4.26-3.09,2.09-1.03,4.51-1.05,6.84-1.06,5.35-.01,10.7-.03,16.06-.04,1.72,0,3.63.07,4.86,1.27,2.59,2.54-.26,6.92.39,10.49.46,2.56,2.79,4.46,5.29,5.2s5.16.52,7.76.31c9.73-.81,14.55-1.67,17.98-1.5,4.84.24,5.88,1.09,7.83,0,3.38-1.89,5.58-7.43,3.62-11.9-1.24-2.83-3.7-4.19-4.66-4.66-1.9-12.73-6.52-18.1-10.63-20.59-3.4-2.06-5.53-2.69-12.32-5.88-4.13-1.94-8.2-5.03-9.19-9.49-.42-1.88-.25-3.88-.93-5.68-.89-2.34-3.02-3.91-4.72-5.74-1.7-1.83-3.07-4.51-1.99-6.76.75-1.57,2.53-2.44,4.26-2.58s3.45.31,5.13.76c5.85,1.57,11.69,3.14,17.54,4.7,2.17-2.11,1.34-6.03-.92-8.04-2.27-2.01-5.43-2.6-8.43-3.02-3-.42-6.15-.79-8.65-2.51-2.82-1.95-4.4-5.36-7.29-7.2-3.57-2.27-9.29-5.19-24.11-1.09"/><path class="cls-12" d="M103.22,510.8c-3.3.52-26.53,4.37-28.48,14.99-1.87,10.2,16.34,24.42,34.48,28.48,25.27,5.66,41.33-10.41,55.46,0,7.09,5.22,4.71,10.49,11.31,18.39,4.44,5.31,14.72,13.95,63.64,13.09,15.47-.27,62.32-1.98,88.57,2.66,3.59.63,10.51,2.78,15.52,8.43,3.95,4.46,5.2,11.87,1.17,16.26-3.74,4.08-10.03,4.01-15.51,4.79-5.48.79-11.88,4.3-11.34,9.81.2,2.09,2.43,5.11,13.68,8.21,25.17,6.93,42.52-.24,71.3-.69,25.59-.4,26.9,5.03,52.46,3,10.44-.83,20.95-5.05,41.97-13.49,2.84-1.14,6.95-2.85,7.49-6,1.18-6.85-15.57-14.93-22-18.02-9.56-4.61-24.16-10.08-43.96-11.95.75-2.82,2.32-7.08,6-10.49,6.85-6.37,14.03-3.31,24.32-8.2,7.52-3.57,17.25-11.64,16.15-18.78-1-6.49-10.65-10.14-19.49-13.49-9.38-3.55-17.05-4.39-17.99-4.5-21.58-2.38,1.6-2.31-52.46-8.99-55.28-6.83-82.92-10.25-113.92-10.49-36.38-.28-39.5,2.99-73.45,1.5-28.59-1.26-51.93-4.71-67.45-7.49"/><path class="cls-9" d="M160.18,510.8c-.31-.07-20.35-4.4-46.47-1.5-12.72,1.41-36.23,4.02-38.97,14.99-2.02,8.09,7.98,17.86,14.99,22.48,14.85,9.79,34.44,8.49,49.47,7.49,13.99-.93,20.67-3.32,26.98,1.5,6.21,4.74,4.77,10.9,10.49,17.99,6.5,8.05,16.76,10.52,28.48,11.99,34.76,4.35,54.36-3.65,94.43-1.5,17.57.94,34.18,3.58,41.97,14.99.99,1.45,5.12,7.5,3,11.99-3.51,7.43-20.85,3.72-22.48,8.99-1.03,3.32,4.71,8.48,10.49,11.99,16.42,9.97,34.36,7.35,49.47,6,53.39-4.78,64.49,6.87,98.93-6,5.64-2.11,24.58-9.18,23.98-16.49-.38-4.74-11.25-8.66-32.98-16.49-13.52-4.87-20.28-7.31-25.05-8.47-3.89-.95-9.94-.64-10.93-3.52-.17-.48-.59-2.2,2.27-5.46,11.14-12.69,37.01-8.85,45.01-22.76.67-1.16,2.53-4.4,2.18-7.75-1.93-18.69-71.58-26.05-121.41-31.48-112.35-12.23-151.75,2.26-203.86-8.99Z"/><path class="cls-7" d="M321.21,354.31c5.34-14.99,1.16-28.88-1.14-36.52-2.69-8.94-2.92-9.56-18.75-32.34-9.43-13.55-18.85-27.11-28.28-40.66-7.26-10.45-12.86-10.33-15.91-9.71-6.37,1.29-10.94,11.14-12,24.78-7.29-.86-17.61-1.35-29.73.53-16.81,2.61-28.47,8.43-30.81,9.63-13.65,6.96-22.95,15.9-28.65,22.46-19.59-.95-39.18-1.9-58.77-2.85-.71,6.68-3.14,36.26,17.34,57.84,5.44,5.74,11.33,9.67,16.57,12.39-1.53,4.11-5.27,15.86-.54,28.88,3.95,10.87,11.67,16.75,18.87,22.23,6.09,4.64,10.77,8.55,17.35,8.65,7.94.12,14.98-4.72,21.39-9.35,18.21-13.14,36.43-26.29,54.64-39.43.48,2.39,4.14,19.4,16.23,22.97,4.81,1.42,9.53.3,17.65-3.45,21.15-9.76,37.92-17.49,44.54-36.05Z"/><path class="cls-5" d="M241.43,261.09c-.29-.75-.59-1.53-1.02-2.22-.3-.48-.68-.93-1.02-1.36-.12-.15-.24-.29-.38-.43s-.27-.25-.41-.36c-.4-.31-.85-.71-1.31-.97s-1-.46-1.49-.66c-.16-.06-.33-.11-.5-.15-.6-.19-1.2-.21-1.79-.08-.6.03-1.16.21-1.67.53-.52.28-.95.67-1.26,1.16-.4.43-.67.94-.81,1.53l-.16,1.2c0,.81.21,1.57.61,2.27l.7.91c.56.56,1.22.94,1.99,1.16.2.04.39.1.57.17l-1.07-.45c.27.12.52.27.75.44l-.91-.7c.31.24.58.52.82.83l-.7-.91c.31.41.56.85.77,1.32l-.45-1.07c.03.08.06.16.09.24.14.59.41,1.1.81,1.53.32.49.74.88,1.26,1.16.52.33,1.07.51,1.67.53.6.13,1.2.11,1.79-.08l1.07-.45c.68-.4,1.21-.94,1.61-1.61l.45-1.07c.21-.8.21-1.6,0-2.39h0Z"/><path class="cls-5" d="M231.36,264.35c-3.38-3.53-7.47-6.5-11.91-8.54-1.13-.52-2.23-.8-3.47-.45-1.04.29-2.18,1.09-2.69,2.07-.55,1.04-.83,2.31-.45,3.47.34,1.05,1.02,2.21,2.07,2.69,2.46,1.13,4.79,2.53,6.94,4.18-.3-.23-.61-.47-.91-.7,1.44,1.12,2.8,2.34,4.06,3.66,1.63,1.7,4.74,1.76,6.36,0s1.74-4.55,0-6.36h0Z"/><path class="cls-5" d="M223.87,273.46c-4.91-5.75-10.9-10.63-17.47-14.35-2.05-1.16-5.01-.55-6.16,1.61s-.57,4.92,1.61,6.16c1.52.86,3.01,1.78,4.46,2.77.74.51,1.47,1.03,2.19,1.57.13.09.8.61.22.16-.54-.42,0,0,.1.08.37.29.74.59,1.1.89,2.74,2.26,5.26,4.77,7.57,7.47,1.54,1.8,4.81,1.7,6.36,0,1.76-1.91,1.64-4.45,0-6.36h0Z"/><path class="cls-5" d="M295.93,295.69c.88.19,5.01,1.04,10.8,2.36,3.18.73,5.92,1.38,8.12,1.92,2.34,8.38,4.68,16.76,7.03,25.13.41,3.36.71,8.19,0,13.9-1.06,8.57-3.83,14.63-6.49,20.32-.7,1.51-6.26,13.25-14.59,23-17.41,20.35-43.39,27.78-62.16,33.16-15.34,4.39-34.12,7.8-55.68,6.95-18.29-.72-31.96-1.45-40.54-11.23-3.7-4.21-6.27-12.47-11.26-28.82-2.91-9.54-5.03-17.47-6.39-22.85,20.84-4.59,37.95-9.8,50.63-14.11,21.2-7.21,30.39-12.04,38.96-19.21,5.3-4.43,12.27-10.39,17.07-20.69,6.45-13.84,5-26.97,3.96-32.82,9.65,2.96,17.29,5.89,22.42,7.99,14.49,5.92,27.37,12.73,38.12,15.01Z"/><path class="cls-17" d="M307.51,380.72c.03,1.29.01,3.2-.31,5.5-.43,3.08-1.75,9.49-8.35,18.98-9.43,13.54-23.61,24.7-28.01,28.06-6.05.65-14.58,1.14-24.61.28-6.71-.58-11.61-1.51-14.16-2.05-3.45-.73-6.89-1.49-10.63-2.84-.94-.34-2.62-.96-4.59-1.92-2.49-1.21-5.82-3.15-9.09-6.18,7.15-1.04,16.12-2.71,26.37-5.45,3.57-.95,14.3-3.92,27.92-9.35,8.16-3.25,17.15-6.88,27.95-13.19,7.53-4.4,13.4-8.63,17.51-11.82Z"/><path class="cls-4" d="M97.28,295.41c9.95,1.72,20.13,2.41,30.19,1.28,2.33-.26,4.65-.61,6.96-.95.39-.06.79-.11,1.18-.17.82-.12-.25.06-.31.04.16.06.56-.07.74-.09.98-.12,1.95-.21,2.93-.28,4.9-.32,9.81.14,14.67.75.26.03.51.06.77.1.15.02,1.43.2.31.04.6.08,1.19.17,1.79.25,1.08.16,2.15.32,3.23.49,1.36.21,2.78.57,4.16.64,2.23.11,4.14-1.8,4.42-3.9s-1.01-4.55-3.22-4.94c-.11-.02-.21-.04-.32-.05-2.32-.35-4.95.58-5.54,3.14-.49,2.14.65,5.16,3.14,5.54.11.01.21.03.32.05.4-2.95.8-5.89,1.2-8.84,2.06.1,1.03.14.43.04-.69-.11-1.38-.22-2.07-.33-2.24-.35-4.47-.67-6.72-.97-4.82-.65-9.68-1.21-14.55-1.09-4.17.11-8.21,1-12.34,1.4,1.28-.13-.36.04-.66.08-.54.06-1.09.12-1.64.18-1.31.13-2.62.23-3.93.3-2.04.11-4.09.15-6.14.14-2.62-.02-5.23-.15-7.84-.37-1.44-.12-2.89-.28-4.33-.45-.92-.11-.37-.04-.17-.02-.47-.06-.93-.13-1.4-.2-.97-.14-1.93-.3-2.89-.47-2.31-.4-4.96.62-5.54,3.14-.5,2.18.66,5.11,3.14,5.54h0Z"/><path class="cls-4" d="M90.35,290.97c1.54,22.18,10.36,43.88,24.93,60.7,3.98,4.59,8.44,8.67,13.3,12.31l-2.07-5.08c-.8,2.44-1.49,4.9-2.06,7.4-.53,2.29.71,4.98,3.14,5.54,2.3.52,4.97-.69,5.54-3.14.58-2.5,1.26-4.96,2.06-7.4.68-2.06-.51-3.91-2.07-5.08,0,0-.97-.73-.43-.32s-.42-.34-.42-.33c-.44-.35-.87-.7-1.3-1.06-1.01-.84-2-1.71-2.96-2.6-1.77-1.64-3.47-3.36-5.09-5.15-.78-.86-1.54-1.73-2.28-2.62-.42-.5-.82-1-1.23-1.5-.16-.2-.32-.41-.48-.61-.65-.82.32.44-.25-.33-1.57-2.11-3.08-4.25-4.49-6.47-2.76-4.34-5.17-8.89-7.23-13.6-.14-.31-.27-.62-.4-.93.07.17.32.77-.02-.04-.26-.62-.51-1.25-.75-1.87-.49-1.26-.96-2.52-1.4-3.8-.84-2.42-1.58-4.88-2.24-7.35-.75-2.86-1.38-5.76-1.87-8.68-.11-.66-.22-1.32-.31-1.99,0,.02-.18-1.28-.09-.6.07.54-.1-.86-.12-1-.17-1.46-.3-2.92-.4-4.39-.16-2.34-1.95-4.61-4.5-4.5-2.3.1-4.67,1.99-4.5,4.5h0Z"/><path class="cls-4" d="M250.4,230.86c-1.11,4.78-2.55,9.47-4.39,14.02-.05.12-.33.8-.08.19.28-.67-.11.24-.13.3-.17.39-.35.79-.53,1.18-.4.87-.81,1.73-1.24,2.58-1.02,2.03-2.16,3.99-3.39,5.9-1.28,1.98-.47,5.05,1.61,6.16,2.23,1.18,4.8.5,6.16-1.61,5.14-8,8.52-17.09,10.66-26.33.53-2.29-.71-4.98-3.14-5.54-2.3-.52-4.97.69-5.54,3.14h0Z"/><path class="cls-4" d="M296.41,277.6c-6.45-14.6-15.76-28.08-26.98-39.42-3.11-3.14-6.39-6.11-9.84-8.88-1.83-1.47-4.6-1.92-6.36,0-1.5,1.63-1.96,4.79,0,6.36,6.02,4.83,11.52,10.27,16.5,16.16.6.71,1.2,1.43,1.79,2.16.32.39.63.79.94,1.18.13.17.91,1.17.49.62,1.23,1.6,2.42,3.23,3.57,4.88,2.21,3.17,4.29,6.45,6.21,9.8,2.17,3.78,4.14,7.67,5.9,11.66.95,2.16,4.27,2.83,6.16,1.61,2.24-1.44,2.64-3.84,1.61-6.16h0Z"/><path class="cls-4" d="M114.89,373.79c.23-.1,1.13-.47.44-.19.45-.19.89-.37,1.34-.56.91-.38,1.82-.75,2.74-1.12,1.82-.73,3.64-1.44,5.47-2.13,3.87-1.46,7.76-2.84,11.69-4.14,8.09-2.67,16.29-4.99,24.58-6.96,4.34-1.03,8.71-1.97,13.09-2.82,2.32-.45,3.85-3.35,3.14-5.54-.8-2.47-3.05-3.62-5.54-3.14-16.51,3.2-32.77,7.7-48.52,13.61-4.36,1.64-8.68,3.39-12.97,5.22-2.17.93-2.82,4.29-1.61,6.16,1.46,2.26,3.83,2.61,6.16,1.61h0Z"/><path class="cls-4" d="M107.94,358.24c7.94-1.96,15.96-3.61,24.04-4.94,2.16-.36,4.33-.69,6.5-1,.57-.08,1.14-.16,1.71-.24.16-.02,1.32-.18.75-.1,1.2-.16,2.4-.31,3.61-.46,4.26-.51,8.52-.94,12.8-1.29,4.51-.37,9.03-.64,13.56-.82,2.35-.1,4.61-2,4.5-4.5-.11-2.36-1.98-4.6-4.5-4.5-17.48.71-34.92,2.76-52.07,6.21-4.45.89-8.87,1.89-13.28,2.98-2.29.56-3.88,3.27-3.14,5.54.77,2.37,3.09,3.75,5.54,3.14h0Z"/><path class="cls-4" d="M122.76,388.37c6.56-4.09,13.28-7.9,20.16-11.41,3.78-1.93,7.6-3.77,11.46-5.53,1.96-.89,3.94-1.76,5.92-2.61.22-.09.43-.19.65-.28-.1.04-.47.2,0,0,.43-.18.86-.36,1.29-.54.99-.41,1.99-.82,2.99-1.22,4.03-1.61,8.09-3.13,12.19-4.56,2.22-.78,3.93-3.11,3.14-5.54-.71-2.19-3.16-3.97-5.54-3.14-15.76,5.51-31.09,12.31-45.67,20.46-3.77,2.11-7.49,4.31-11.15,6.59-2,1.24-2.96,4.07-1.61,6.16,1.29,2,4.02,2.95,6.16,1.61h0Z"/><path class="cls-4" d="M346.74,298.68c-14.11-1.06-28.35.2-42.09,3.5-2.29.55-3.87,3.28-3.14,5.54.77,2.38,3.08,3.73,5.54,3.14,3.12-.75,6.27-1.4,9.44-1.93.81-.14,1.63-.26,2.44-.39.45-.07.9-.13,1.36-.19-.77.11.52-.06.63-.08,1.72-.21,3.45-.39,5.17-.53,6.87-.57,13.78-.58,20.65-.06,2.35.18,4.6-2.2,4.5-4.5-.12-2.59-1.98-4.31-4.5-4.5h0Z"/><path class="cls-4" d="M343.88,282.52c-14.33,2.33-28.16,7.03-41.18,13.43-2.12,1.04-2.87,4.22-1.61,6.16,1.4,2.17,3.89,2.73,6.16,1.61,1.48-.73,2.96-1.43,4.46-2.11.74-.33,1.48-.66,2.22-.99.41-.18.82-.36,1.23-.53-.72.3.59-.24.59-.24,3.33-1.36,6.71-2.61,10.14-3.72,6.66-2.16,13.48-3.81,20.39-4.94,2.33-.38,3.84-3.4,3.14-5.54-.82-2.52-3.04-3.55-5.54-3.14h0Z"/><path class="cls-4" d="M347.99,314.54c-13.59-4.04-27.81-6.04-41.99-5.76-2.35.05-4.61,2.04-4.5,4.5.11,2.4,1.98,4.55,4.5,4.5,3.25-.07,6.49-.02,9.73.16,1.77.09,3.54.23,5.31.39.79.08,1.58.16,2.38.25.48.05.96.11,1.44.17-.03,0,1.42.19.75.1,6.76.94,13.44,2.43,19.99,4.37,2.26.67,5-.81,5.54-3.14s-.73-4.82-3.14-5.54h0Z"/><path class="cls-6" d="M227.99,305.28c-1.62-2.04-7.56-9.07-17.25-10.94-10.96-2.11-22.79,3.13-27.35,13.5-5.15,11.73,1.81,23.62,3.49,26.5,1.7,2.9,6.46,11,15.41,13.58,4.9,1.41,8.84.52,12.11-.21,3.11-.7,15.98-3.31,20.85-15.38,2.68-6.64,2.16-13.2,1.68-16.54-1.04-1.55-2.26-3.21-3.68-4.93-1.81-2.18-3.6-4.02-5.26-5.56Z"/><path class="cls-4" d="M235.41,305.66c4.5,6.62,3.26,13.7,3.05,14.83-1.47,7.67-7.21,11.5-8.54,12.27-10.26,6-25.53,3.15-34.1-6.35-4.41-4.89-6.19-10.6-5.48-15.8.99-7.21,6.63-11,8.54-12.27,11.52-7.71,26.04-.73,27.46-.02,2.58,1.29,6.25,3.18,9.08,7.35Z"/><ellipse class="cls-5" cx="212.89" cy="304.35" rx="8.35" ry="5.36" transform="translate(-138.65 184.47) rotate(-36.2)"/><ellipse class="cls-5" cx="222.66" cy="310.42" rx="3.39" ry="3.65" transform="translate(-145.29 207.72) rotate(-38.75)"/><ellipse class="cls-5" cx="216.39" cy="316.13" rx="2.9" ry="3.13" transform="translate(-150.25 205.04) rotate(-38.75)"/><path class="cls-4" d="M235.21,319.11c-.45,4.76-1.89,9.46-4.28,13.59-2.14,3.7-5.21,7.12-8.56,9.41-.86.59-1.75,1.13-2.67,1.63-1.03.55-1.91.96-2.65,1.24-.95.36-1.92.68-2.91.93-.49.13-.99.24-1.48.34-.3.06-.6.11-.9.16-.11.02-.96.13-.41.06-4.51.53-8.44-.1-12.45-1.78-8.89-3.75-16.41-11.9-17.89-21.52-1.4-9.12,4.19-17.74,11.84-22.32.94-.56,1.91-1.06,2.9-1.52.85-.39-.53.2.33-.14.26-.1.51-.2.77-.29.9-.32,1.82-.59,2.76-.81,3.02-.71,6.14-.8,9.24-.64,5.77.29,11.34,1.53,16.67,3.75,1.5.62,3.3-.67,3.69-2.1.47-1.73-.59-3.06-2.1-3.69-5.48-2.29-11.25-3.51-17.17-3.9-6.19-.41-12.38.26-18.01,3.01-9.74,4.77-17.18,14.76-17.12,25.84.07,11.71,7.95,22.27,17.87,27.91,4.75,2.7,10.14,4.38,15.63,4.38,4.92,0,9.78-1.31,14.13-3.6,11.16-5.87,17.59-17.67,18.75-29.95.15-1.62-1.49-3-3-3-1.75,0-2.85,1.38-3,3h0Z"/><path class="cls-6" d="M268.84,298.23c-1.49-1.5-6.64-6.89-8.67-13.21-2.3-7.15.21-12.92,6.71-13,7.36-.09,15.82,7.17,17.86,8.93,2.06,1.77,7.83,6.72,10.27,12.78,1.33,3.31,1.07,5.46.85,7.24-.21,1.69-.89,8.77-8.49,8.6-4.18-.1-8.58-2.1-10.83-3.25-1.11-1.02-2.32-2.19-3.57-3.49-1.59-1.65-2.96-3.21-4.12-4.6Z"/><ellipse class="cls-4" cx="272.75" cy="289.45" rx="9.13" ry="17" transform="translate(-124.91 283.36) rotate(-45.82)"/><ellipse class="cls-5" cx="265.46" cy="284.73" rx="3.9" ry="4.35" transform="translate(-123.82 284.95) rotate(-47.04)"/><ellipse class="cls-5" cx="270.28" cy="292.18" rx="1.58" ry="2.96" transform="translate(-127.62 282.4) rotate(-45.82)"/><ellipse class="cls-5" cx="273.55" cy="289.86" rx="1.35" ry="2.54" transform="translate(-124.97 284.04) rotate(-45.82)"/><path class="cls-4" d="M278.05,310.83c7.02,2.17,16.98,2.28,20.59-5.54,3.16-6.85-.43-14.71-4.64-20.25-4.46-5.88-10.44-10.89-17.25-13.82-5.29-2.28-12.44-3.89-17.09.6-3.04,2.93-3.51,7.37-2.88,11.34.89,5.61,4.1,10.69,7.69,14.97,1.04,1.24,3.17,1.07,4.24,0,1.23-1.23,1.04-3,0-4.24-2.6-3.1-4.8-6.71-5.8-10.65-.35-1.39-.55-3.07-.35-4.34-.03.2.12-.53.17-.71.09-.34.21-.66.33-.98-.23.61-.01.07.13-.19.13-.22.28-.43.41-.65-.41.69-.06.08.12-.11.14-.15.32-.28.46-.44.25-.28-.51.33-.19.14.1-.06.19-.14.29-.2.23-.14.48-.25.7-.39.42-.26-.59.15.04-.01.24-.06.47-.15.71-.21.22-.05.44-.08.65-.14.5-.12-.14.02-.22.03.17-.01.33-.03.5-.04.52-.03,1.04-.03,1.56,0,.29.02.58.05.87.08-.75-.08.19.04.44.09,1.25.24,2.48.61,3.67,1.06.33.12.66.25.98.39-.53-.22.24.11.39.19.72.33,1.42.69,2.11,1.07,1.32.72,2.6,1.52,3.84,2.39.33.23.65.47.97.7.12.09.24.18.36.27-.34-.26.07.05.11.09.64.51,1.26,1.03,1.87,1.57,1.23,1.09,2.39,2.24,3.48,3.46,1.92,2.14,3.59,4.5,4.97,7.41.06.12.41.92.22.46.15.35.28.7.41,1.06.26.73.49,1.47.66,2.23.08.37.16.75.21,1.13-.09-.61.02.43.03.57.01.31.02.61,0,.92,0,.21-.15,1.28-.02.59-.07.36-.14.72-.23,1.07-.06.22-.43,1.16-.13.5-.13.28-.26.56-.42.82-.09.16-.62.9-.41.64.25-.31-.06.07-.13.14-.14.14-.26.28-.4.42-.11.11-.23.2-.34.31-.39.39.25-.15-.04.04s-.6.4-.92.58c-.19.1-.98.44-.42.23-.77.29-1.54.49-2.35.64-.59.11-.2.03-.07.01-.25.03-.5.05-.75.06-.47.03-.95.04-1.42.03-2.11-.05-3.97-.47-6.12-1.14-3.7-1.14-5.28,4.65-1.6,5.79h0Z"/><path class="cls-4" d="M262.07,317.04c.02.46,0,.91-.06,1.36l.11-.8c-.1.71-.29,1.39-.57,2.05l.3-.72c-.27.62-.6,1.19-1.01,1.73l.47-.61c-.41.52-.87.99-1.39,1.4l.61-.47c-.47.35-.97.65-1.51.88l.72-.3c-.33.14-.66.24-1.01.3l.8-.11c-.18.02-.36.02-.54,0l.8.11c-.15-.02-.29-.06-.43-.11l.72.3c-.13-.06-.25-.13-.37-.21l.61.47c-.11-.09-.21-.18-.29-.3l.47.61c-.06-.09-.11-.17-.15-.27l.3.72c-.03-.07-.05-.13-.06-.2-.37-1.53-2.18-2.58-3.69-2.1-1.59.51-2.49,2.05-2.1,3.69.28,1.17,1.16,2.25,2.25,2.77,1.21.57,2.52.68,3.81.28,1.51-.47,2.9-1.34,4.02-2.45,2.1-2.08,3.32-5.09,3.21-8.05-.03-.79-.31-1.56-.88-2.12-.52-.52-1.37-.91-2.12-.88-1.57.07-3.06,1.32-3,3h0Z"/><path class="cls-7" d="M261.51,316.18c-1.36.53-3.01-.41-3.51-1.77s.01-2.96,1-4.03c.99-1.07,2.39-1.69,3.8-2.05,1.14-.29,2.36-.42,3.48-.06s2.1,1.32,2.2,2.48-.93,2.38-2.1,2.24c.7.98,1.18,2.18,1.01,3.36s-1.15,2.3-2.36,2.35-2.33-1.29-1.85-2.39"/><path class="cls-4" d="M260.71,313.29c-.18.06-.35.11-.54.13l.8-.11c-.19.02-.36.02-.55,0l.8.11c-.14-.02-.27-.04-.41-.08-.41-.11-.2-.24.2.1-.08-.07-.21-.12-.31-.18-.26-.14.61.54.16.12-.08-.08-.15-.19-.24-.26.3.41.39.52.26.32-.04-.06-.08-.12-.11-.18-.26-.42.19.74.08.18-.03-.16-.08-.31-.1-.47l.11.8c-.04-.32-.04-.63,0-.95l-.11.8c.02-.14.1-.9.23-.94-.05.01-.35.72-.07.2.06-.12.13-.24.2-.35.06-.09.12-.18.19-.27l-.27.35s.31-.33.34-.36c.1-.1.21-.18.31-.28.22-.2-.62.43-.07.07.26-.17.53-.32.8-.45l.15-.07c.29-.13.21-.09-.25.1.13-.02.27-.1.4-.15.65-.22,1.31-.38,1.99-.48l-.8.11c.56-.07,1.11-.08,1.66-.01l-.8-.11c.18.03.36.06.54.11.08.02.17.05.25.08.22.08.1.02-.37-.16.09.07.22.11.33.18.54.32-.34-.33-.13-.12.09.08.17.17.27.25.15.17.13.14-.05-.08-.17-.23-.19-.25-.07-.07l.07.12c.14.28.09.17-.13-.32,0,.13.08.29.1.42l-.11-.8c.02.19.03.37,0,.56l.11-.8c-.01.09-.03.18-.06.27-.1.29-.05.18.15-.32-.04.08-.09.17-.14.24.32-.39.41-.5.25-.33-.45.46.58-.33.13-.07-.27.14-.15.1.35-.13-.09.03-.17.05-.26.06l.8-.11c-.14.01-.27.02-.41,0-2.19-.16-3.85,2.7-2.59,4.51.23.33.41.66.6,1.02.1.21.05.11-.13-.3.03.08.06.17.09.26.06.2.11.4.14.61l-.11-.8c.05.36.05.71,0,1.07l.11-.8c-.02.12-.04.24-.08.35-.15.53.14-.18.12-.24.02.07-.15.26-.18.32-.12.25.52-.55.16-.2-.07.06-.15.13-.2.2.37-.47.49-.34.2-.18-.49.29.27-.09.27-.1,0,.05-.39.08-.42.09l.8-.11c-.15.01-.27.01-.42,0l.8.11c-.09-.01-.18-.03-.27-.06.5.23.61.28.34.14-.42-.26.5.54.16.14s.41.64.13.18c-.14-.27-.1-.15.13.35-.03-.08-.05-.17-.06-.26l.11.8c-.02-.14-.02-.26-.01-.39l-.11.8c.02-.14.05-.26.1-.39.26-.69.06-1.7-.3-2.31s-1.08-1.22-1.79-1.38c-1.7-.39-3.1.52-3.69,2.1-.71,1.89.26,4,1.77,5.16,1.6,1.23,3.84,1.35,5.56.28,1.65-1.03,2.56-2.7,2.77-4.6.19-1.7-.46-3.5-1.42-4.88-.86,1.5-1.73,3.01-2.59,4.51,1.59.12,3.07-.76,4.01-1.98.98-1.27,1.3-2.86.92-4.42-.71-2.88-3.68-4.54-6.49-4.55-2.6,0-5.25.97-7.27,2.58-2.12,1.69-3.2,4.61-2.54,7.26.75,3.02,4.25,5.24,7.29,4.18,1.48-.52,2.62-2.07,2.1-3.69-.47-1.46-2.11-2.65-3.69-2.1h0Z"/><path class="cls-4" d="M262.99,319.14c1.95,2.3,4.97,3.62,7.96,3.71,1.57.05,3.17-.3,4.57-.99,2.39-1.18,3.4-4.01,2.15-6.38-.73-1.39-2.79-1.93-4.1-1.08-1.42.91-1.86,2.62-1.08,4.1l.07.14-.3-.72c.04.09.07.19.08.29l-.11-.8c.02.16.01.29,0,.45l.11-.8c-.02.1-.04.2-.08.29l.3-.72c-.06.13-.3.49.01.09.42-.53-.06.05-.07.02,0-.07.62-.4.25-.22-.13.07-.26.14-.4.2l.72-.3c-.53.22-1.08.36-1.65.45l.8-.11c-.66.09-1.32.09-1.99.01l.8.11c-.72-.1-1.41-.28-2.08-.56l.72.3c-.56-.24-1.09-.53-1.59-.88s.38.32.14.11c-.11-.1-.22-.19-.33-.29-.23-.22-.45-.45-.66-.7-1.02-1.2-3.21-1.13-4.24,0-1.17,1.28-1.09,2.96,0,4.24h0Z"/><path class="cls-3" d="M264.82,328.99c-1.28-2.36-1.92-3.57-1.9-4.89.04-2.11,1.35-3.7,2.11-4.49.37.05.82.1,1.34.16,0,0,.94.11,1.75.2,2.77.3,4.17-.07,5.29.37,1.55.61,2.18,2.63,3.78,12.81.32,2.02.58,3.74.77,5.05.57,2.13-.08,4.09-1.19,4.62-1.33.63-3.95-.52-4.93-3.45-.48-.33-1.17-.87-1.84-1.67-1.04-1.22-1.39-2.25-1.93-3.42-1.13-2.46-1.48-2.03-3.25-5.29Z"/><path class="cls-4" d="M270.43,322.48c1.52,3.77,2.73,7.67,3.56,11.66.37,1.76.67,3.53.86,5.32.08.79.13,1.56.11,2.36-.03.38-.03.42,0,.11-.04.18-.08.36-.14.54.04-.19.13-.35.27-.49.41-.4.85-.56,1.32-.49.12-.16.48.35-.01-.08-.39-.34-.76-.7-1.1-1.08-.61-.67-1.19-1.39-1.76-2.09-1.09-1.35-2.1-2.76-3.07-4.2-2.2-3.27-4.13-6.71-5.8-10.27-.69-1.47-2.8-1.84-4.1-1.08-1.5.88-1.77,2.63-1.08,4.1,1.53,3.26,3.27,6.42,5.24,9.43,1.99,3.05,4.17,6.17,6.73,8.77,1.33,1.35,3.01,2.52,4.98,2.47,2.13-.05,3.71-1.7,4.26-3.66.45-1.61.29-3.32.1-4.95-.23-1.91-.51-3.81-.88-5.69-.83-4.2-2.08-8.3-3.68-12.27-.61-1.5-2-2.56-3.69-2.1-1.42.39-2.71,2.18-2.1,3.69h0Z"/><path class="cls-4" d="M298.48,292.85c1.71.75,3.34,1.65,4.88,2.71.37.26.84.51,1.16.83-.83-.83.25.21.48.41.81.69,1.59,1.41,2.34,2.17s1.44,1.53,2.12,2.34c.21.25.99,1.26.43.51.41.55.81,1.1,1.2,1.66,1.38,2.02,2.59,4.15,3.65,6.36.24.51.47,1.02.7,1.53.56,1.24-.16-.46.13.31.1.27.22.54.32.81.45,1.16.86,2.33,1.23,3.52.72,2.31,1.3,4.67,1.75,7.05.11.6.22,1.2.32,1.8.04.27.09.54.13.81,0-.03.19,1.29.09.62-.08-.57.04.29.05.42.04.34.08.68.12,1.02.07.69.14,1.37.19,2.06.2,2.48.27,4.98.21,7.47-.03,1.44-.11,2.88-.24,4.31-.06.74-.15,1.48-.23,2.22-.02.18-.14.88,0,0-.06.4-.12.79-.18,1.19-.44,2.67-1.08,5.31-1.95,7.87-.76,2.23.87,5.02,3.14,5.54,2.49.57,4.73-.75,5.54-3.14,3.54-10.45,3.57-21.99,1.8-32.78-1.71-10.43-5.86-20.65-12.96-28.59-3.28-3.66-7.35-6.83-11.87-8.8-2.15-.94-4.93-.71-6.16,1.61-1.03,1.94-.69,5.15,1.61,6.16h0Z"/><path class="cls-4" d="M299.97,281.73c-4.9-4.4-10.28-8.3-15.92-11.68-10.22-6.13-21.51-10.7-33.18-13.13-15.14-3.16-30.91-2.89-45.92.86-12.16,3.04-23.8,8.4-34.09,15.54-6.29,4.37-12.23,9.33-17.43,14.96-.29.31-.58.63-.86.95-1.57,1.75-1.86,4.66,0,6.36,1.72,1.58,4.68,1.87,6.36,0,1.58-1.76,3.23-3.45,4.94-5.08,1.33-1.26,2.69-2.49,4.08-3.68.79-.67,1.58-1.33,2.39-1.98.41-.33.83-.65,1.24-.98.58-.46-.81.62-.02.02.27-.21.54-.41.82-.62,4.2-3.14,8.64-5.97,13.27-8.45,2.62-1.4,5.31-2.67,8.03-3.86-1.02.44.12-.05.36-.14.38-.15.75-.31,1.13-.45.77-.3,1.54-.59,2.31-.88,1.53-.56,3.08-1.08,4.63-1.56,3.33-1.03,6.72-1.89,10.15-2.56.84-.16,1.69-.32,2.54-.46.46-.08.93-.15,1.39-.22.2-.03.4-.06.6-.09.09-.01.93-.14.41-.06s.15-.02.21-.03c.27-.03.54-.07.82-.1.41-.05.82-.1,1.23-.14.97-.1,1.94-.19,2.92-.27,3.82-.29,7.65-.36,11.48-.2,1.79.07,3.57.2,5.35.37.9.09,1.8.19,2.7.3s-.57-.09.32.04c.5.07,1,.15,1.5.22,6.34,1,12.58,2.63,18.61,4.82,1.36.5,2.72,1.02,4.06,1.58.19.08.39.15.58.24,0,0-.82-.35-.36-.15.28.13.57.25.85.37.7.31,1.39.62,2.08.94,2.34,1.09,4.63,2.26,6.88,3.51,3.76,2.09,7.4,4.41,10.89,6.95.67.49,1.33.99,1.99,1.49.24.18-.97-.76-.37-.29.15.12.3.23.45.35.28.22.56.45.84.67.87.7,1.72,1.42,2.56,2.15.27.24.54.48.81.72,1.75,1.57,4.66,1.86,6.36,0,1.58-1.72,1.87-4.68,0-6.36h0Z"/><path class="cls-4" d="M126.04,364.09c-1.96,7.91-2.26,16.28-.53,24.26,2.33,10.77,8.87,19.76,17.51,26.38,4.68,3.59,9.88,6.32,15.46,8.25,2.23.77,5.02-.88,5.54-3.14.57-2.51-.76-4.71-3.14-5.54-.56-.2-1.13-.4-1.68-.61-.28-.11-1.53-.62-.7-.26-1.28-.54-2.53-1.15-3.75-1.8-2.21-1.18-4.32-2.53-6.33-4.02-.26-.19-.51-.39-.77-.58.03.02.93.74.38.29-.13-.1-.26-.2-.38-.3-.74-.6-1.46-1.22-2.17-1.86-1.62-1.47-3.13-3.05-4.52-4.74.04.05-.79-1-.41-.51.31.41-.22-.3-.28-.39-.38-.53-.75-1.06-1.11-1.6-.82-1.26-1.57-2.56-2.24-3.91-.26-.53-.5-1.06-.75-1.6.3.66,0,0-.05-.12-.13-.33-.26-.66-.38-1-.45-1.23-.84-2.49-1.17-3.76-.3-1.15-.54-2.32-.74-3.49-.04-.25-.08-.51-.12-.76-.2-1.22.05.63-.02-.12-.06-.62-.13-1.23-.18-1.84-.16-2.1-.18-4.21-.07-6.31.06-1.04.14-2.08.26-3.11.03-.22.08-.46.08-.68,0,.32-.15,1.02-.04.29.07-.44.13-.88.21-1.32.21-1.24.47-2.46.77-3.68.57-2.28-.73-4.99-3.14-5.54s-4.93.7-5.54,3.14h0Z"/><path class="cls-7" d="M303.65,361.53c-.02-.62-.19-13.36,9.95-20.13,9.77-6.52,20.23-1.61,21.61-.83,11.61,6.52,13.45,20.14,13.62,21.86,1.4,14.9-9.32,24.58-10.3,25.44,11.08,22.32,9.84,35.94,6.33,44.39-3.23,7.79-7.21,8.34-16.89,21.43-10.96,14.8-17.47,23.61-18.46,35.14-1.74,20.29,15.61,25.8,12.89,47.88-.63,5.11-2.29,10.77-2.86,22.06-.35,7.05-.11,12.84.15,16.62,19.46-4.81,34.52-.55,37.46,7.61,2.66,7.39-4.91,17.2-10.19,21.85-19.17,16.89-50.29,3.14-52.69,2.04-30.02,14-55.62,18.64-73.17,20.28-35.5,3.32-46.16-4.88-74.22-9.81-20.44-3.59-23.44,1.54-38.51-3.35-14.1-4.58-22.21-11.63-24.91-14.13-2.02-1.86-7.21-6.91-12.81-16.42-8.98-15.24-11.56-29.28-13.29-37.82-10.66-52.79-21.6-59.47-17.08-85.6,1.4-8.11,3.91-21.54,13.76-26.38,9.18-4.51,19.77.88,21.83,1.99,3.22,1.74,8.1,5.18,15.66,18.41,6.97,12.19,10.63,22.91,12.81,29.86,8.63,27.48,9.21,43.88,12.98,43.93,1.44.02,2.87-2.27,6.42-13.15,6.13-18.79,9.2-28.19,9.22-28.26.72-2.71,6.16-22.37,13.6-39.12,3.62-8.14,9.61-19.88,19.47-33.08,5.13,1.09,13,2.09,22.3.5,2.35-.4,7.13-1.37,15.66-4.98,8.03-3.4,18.52-7.83,29.42-16.92,14.04-11.7,15.97-20.33,27.05-22.39,1.91-.36,7.76-1.44,11.86,1.99,5.42,4.53,6.12,15.54.95,27.37.21-3.06.66-5.88,1.27-8.44,5.36-22.64,24.73-35.2,32.84-39.78"/><path class="cls-4" d="M341.81,390.91c5.66-4.56,10.03-11.12,11.59-18.27,1.57-7.23.36-14.7-3.33-21.1s-9.92-11.67-17.01-14.46c-6.92-2.71-15.27-2.82-21.75,1.14-6.78,4.15-10,11.48-12.5,18.68-.77,2.23.88,5.02,3.14,5.54,2.51.57,4.71-.76,5.54-3.14.45-1.3.91-2.59,1.42-3.86.09-.22.17-.43.26-.64-.44,1.06.02-.03.1-.21.34-.74.69-1.48,1.08-2.2.6-1.13,1.29-2.2,2.03-3.24-.64.91.03-.03.16-.18.22-.27.45-.52.69-.78.48-.51,1-.97,1.52-1.44.85-.77-.77.47.21-.16.3-.2.59-.4.9-.59.53-.32,1.07-.6,1.62-.87,1.08-.54-.83.22.35-.13.37-.11.73-.25,1.1-.35s.74-.19,1.12-.27c.25-.05.5-.1.76-.14-.5.06-.58.07-.24.03,1.5-.13,2.95-.12,4.46-.01,1.24.09-.58-.13.16.02.32.06.65.11.97.17.9.18,1.79.41,2.67.68.63.2,1.24.42,1.85.65,1.2.44-.78-.41.36.16.35.17.7.33,1.05.51,1.37.7,2.66,1.52,3.9,2.42-.77-.56.28.23.36.29.31.26.61.52.91.78.49.44.97.9,1.43,1.37.55.56,1.07,1.15,1.58,1.75.08.1.85,1.13.26.31.26.36.53.73.78,1.1.82,1.22,1.49,2.5,2.14,3.82.54,1.08-.19-.55.07.14.11.29.23.58.33.88.29.82.55,1.65.76,2.5.15.6.25,1.21.38,1.82.24,1.21-.05-.95.04.27.03.37.07.74.09,1.11.04.74.05,1.48.02,2.22-.01.31-.03.62-.06.93-.02.24-.2,1.6-.03.47-.25,1.61-.64,3.19-1.17,4.73-.13.36-.26.71-.4,1.07.38-1-.23.5-.32.67-.33.69-.7,1.37-1.09,2.04-.46.79-.96,1.55-1.49,2.29-.07.09-.88,1.1-.25.34-.25.31-.5.61-.76.91-1.24,1.43-2.62,2.72-4.09,3.9-1.84,1.48-1.66,4.84,0,6.36,1.96,1.79,4.4,1.58,6.36,0h0Z"/><path class="cls-5" d="M244.47,472.07c-.05-.6-1.17-14.13,6.37-19.32,5.98-4.13,14.9-2.05,21.17,5.75,1.54-12.48,9.32-20.21,16.48-19.25,7.55,1.01,12.34,11.42,13.92,17.72,2.12,8.48-.34,15.6-4.77,28.29-3.24,9.29-6.82,16.36-9.39,20.96-1.45,2.39-2.9,4.78-4.34,7.17-10.51-3.46-17.97-9.47-22.28-13.55-7-6.64-16.08-15.24-17.14-27.77Z"/><path class="cls-4" d="M334.06,387.96c.65,8.66,3.97,16.6,6.26,24.88.55,1.98,1.02,3.99,1.35,6.02.03.2.06.4.09.6-.14-.87-.02-.17,0,0,.05.47.1.94.13,1.41.07,1.01.1,2.01.08,3.02-.01.54-.04,1.08-.09,1.61-.02.2-.05.4-.06.61-.05.71.14-.68,0,.02-.18.9-.34,1.79-.58,2.67-.18.66-.39,1.3-.62,1.94-.02.07-.42,1.09-.42,1.09-.02,0,.39-.84.17-.4-.11.22-.2.44-.3.66-.63,1.33-1.37,2.62-2.17,3.86-.38.59-.78,1.17-1.19,1.74-.21.29-.43.56-.63.86-.34.5.53-.65.14-.18-.16.2-.32.4-.48.6-1.95,2.42-4.1,4.67-6.3,6.86-4.55,4.51-9.4,8.72-13.74,13.45-4.87,5.31-9.27,11.41-10.89,18.55-.52,2.29.7,4.98,3.14,5.54,2.29.52,4.98-.69,5.54-3.14.08-.37,1.3-4.16,1.31-4.16.02.01-.47,1.04-.11.27.06-.13.12-.27.18-.4.14-.31.29-.62.45-.92.35-.7.73-1.39,1.14-2.06.77-1.29,1.63-2.52,2.53-3.72.2-.27.23-.58-.14.19.06-.12.2-.25.29-.36.23-.28.45-.56.68-.84.53-.64,1.08-1.27,1.63-1.88,4.31-4.81,9.19-9.06,13.8-13.58,4.54-4.45,9.03-9.28,12.01-14.94,1.6-3.03,2.82-6.3,3.32-9.7.68-4.6.37-9.12-.58-13.67-.95-4.58-2.51-9.01-3.91-13.46-.72-2.27-1.41-4.56-1.97-6.88-.26-1.08-.49-2.17-.68-3.26-.05-.27-.09-.55-.14-.82-.15-.86.02.3-.04-.24-.06-.62-.13-1.23-.18-1.85-.18-2.34-1.94-4.61-4.5-4.5-2.29.1-4.69,1.99-4.5,4.5h0Z"/><path class="cls-4" d="M304.19,491.78c1.23,2.38,2.4,4.79,3.48,7.24.1.24.7,1.62.42.97.26.61.51,1.23.76,1.85.49,1.23.97,2.48,1.42,3.73,1.77,4.91,3.23,9.93,4.36,15.02.57,2.57,1.05,5.17,1.45,7.77.09.58.17,1.16.25,1.74-.11-.77,0-.03.01.11.04.29.07.58.11.87.16,1.38.31,2.76.42,4.15.44,5.18.53,10.39.29,15.59-.14,2.94-.38,5.87-.73,8.79-.04.29-.07.58-.11.88-.1.83.03-.16-.05.34-.11.73-.21,1.46-.33,2.19-.25,1.53-.52,3.06-.83,4.59-.46,2.3.66,4.97,3.14,5.54,2.23.51,5.05-.67,5.54-3.14,4.3-21.64,2.95-44.26-4.26-65.15-2.08-6.04-4.63-11.93-7.57-17.59-1.09-2.09-4.18-2.89-6.16-1.61-2.13,1.37-2.78,3.92-1.61,6.16h0Z"/><path class="cls-4" d="M128.39,487.71c-4.48,12.53-8.96,25.05-13.44,37.58-2.24,6.26-4.48,12.53-6.72,18.79-2.2,6.15-4.54,12.27-6.4,18.53-2.08,6.98-3.49,14.37-2.69,21.67.26,2.33,1.89,4.62,4.5,4.5,2.22-.1,4.77-1.99,4.5-4.5-.34-3.11-.28-6.22.09-9.32-.09.73.04-.26.06-.43.06-.39.12-.78.19-1.16.12-.7.26-1.4.41-2.09.35-1.64.76-3.26,1.21-4.87,1.72-6.11,4-12.06,6.13-18.03,4.42-12.37,8.85-24.74,13.27-37.11,2.52-7.05,5.04-14.09,7.56-21.14.79-2.22-.89-5.02-3.14-5.54-2.53-.58-4.69.77-5.54,3.14h0Z"/><path class="cls-4" d="M205.83,586.03c1.86-6.55.46-13.74-3.39-19.32-4.13-5.97-10.28-10.12-17.29-11.96-14.31-3.76-30.78,1.04-40.61,12.13-5.46,6.16-8.79,13.67-9.64,21.85-.24,2.35,2.24,4.6,4.5,4.5,2.65-.12,4.24-1.98,4.5-4.5.02-.2.2-1.4.01-.23.06-.36.11-.71.18-1.07.13-.71.28-1.42.46-2.12.36-1.42.84-2.81,1.37-4.17-.39,1.01.06-.13.13-.28.15-.34.31-.67.48-1.01.28-.56.57-1.11.88-1.65.37-.65.77-1.3,1.18-1.93.21-.32.42-.63.64-.94.08-.11.88-1.18.56-.77-.41.52.38-.46.36-.44.25-.3.5-.59.75-.88.51-.58,1.05-1.14,1.6-1.69.51-.5,1.04-.99,1.58-1.46.25-.22.5-.43.75-.64.2-.17.41-.33.62-.5-.39.3-.37.29.04-.02,1.2-.84,2.4-1.65,3.67-2.36.68-.38,1.38-.74,2.09-1.07.36-.17.72-.33,1.08-.49-.93.4.6-.22.76-.28,1.37-.51,2.77-.93,4.19-1.28.78-.19,1.56-.36,2.35-.5.26-.05.53-.09.79-.13.53-.08.53-.08,0-.01.26-.03.53-.07.8-.09,1.46-.16,2.92-.23,4.38-.22.79,0,1.59.04,2.38.1.39.03.79.07,1.18.11.53.06.52.06-.03-.01.26.04.52.08.78.12,1.41.23,2.8.56,4.16.98.74.23,1.45.51,2.18.77-.81-.3-.19-.09-.02,0,.45.21.91.42,1.35.66.66.34,1.3.72,1.92,1.12.31.2.61.4.91.62,0,0,.96.72.42.3s.38.33.39.33c.27.23.54.47.81.72.61.56,1.19,1.16,1.74,1.79.23.27.45.54.68.81-.7-.83.03.06.13.21.46.66.89,1.34,1.28,2.05.16.3.32.6.47.91.1.2.2.41.29.62-.23-.56-.25-.6-.06-.14.23.63.46,1.26.63,1.91.2.72.45,1.53.48,2.28-.05-1.25-.04-.12-.02.12.02.33.04.66.04,1s0,.67-.02,1c-.01.26-.02,1.77,0,.47-.01.76-.3,1.59-.51,2.32-.64,2.26.79,5,3.14,5.54s4.85-.72,5.54-3.14h0Z"/><path class="cls-4" d="M136.51,572.76c-4.76,4.18-8.38,9.48-10.58,15.42-.38,1.04-.09,2.54.45,3.47s1.62,1.82,2.69,2.07c1.15.26,2.44.21,3.47-.45s1.64-1.54,2.07-2.69c.18-.47.36-.94.56-1.41l-.45,1.07c1.08-2.51,2.48-4.86,4.15-7.03l-.7.91c1.41-1.81,2.99-3.48,4.72-4.99,1.77-1.56,1.71-4.79,0-6.36-1.89-1.74-4.47-1.66-6.36,0h0Z"/><path class="cls-4" d="M120.44,524.78c-.58-.74.65.87.04.05-.19-.25-.38-.5-.57-.75-.43-.58-.86-1.17-1.28-1.77-1.03-1.46-2.02-2.96-2.95-4.49-1.78-2.91-3.33-5.92-4.73-9.03-.56-1.24.31.81-.18-.43-.1-.25-.2-.5-.3-.75-.29-.73-.57-1.47-.83-2.22-.51-1.43-.97-2.88-1.39-4.34-.76-2.67-1.38-5.37-1.9-8.09-1.02-5.33-1.71-10.71-2.71-16.04-1.14-6.06-2.76-12-5.11-17.71-3.47-8.44-8.25-16.2-14.78-22.66-4.23-4.19-9.41-7.93-15.3-9.29-7.2-1.67-14.43.12-20.18,4.69-10.73,8.53-13.25,23.68-12.39,36.56.5,7.57,1.93,15.05,3.24,22.51,1.07,6.04,2.15,12.08,3.28,18.12,2.16,11.56,4.12,23.42,8.22,34.49,1.32,3.56,2.83,7.05,4.23,10.58,4.14,10.43,8.59,20.69,13.78,30.65,1.7,3.25,3.46,6.47,5.27,9.66,1.17,2.05,4.13,2.92,6.16,1.61s2.86-3.97,1.61-6.16c-3.49-6.12-6.76-12.35-9.79-18.71-1.26-2.64-2.48-5.3-3.65-7.98-.3-.68-.6-1.36-.89-2.05-.09-.21-.83-1.96-.39-.92-.53-1.26-1.05-2.53-1.56-3.8-1.71-4.24-3.43-8.48-5.11-12.73-3.63-9.16-5.65-18.81-7.55-28.45-2.22-11.23-4.22-22.5-6.17-33.77-.3-1.73-.58-3.47-.84-5.21-.07-.48-.14-.95-.2-1.43.09.65-.02-.15-.03-.23-.14-1.11-.27-2.22-.38-3.33-.33-3.44-.5-6.91-.35-10.37.04-.92.1-1.85.18-2.77.04-.38.09-.76.12-1.14.07-.86-.18,1.04.05-.39.27-1.66.6-3.31,1.06-4.93.4-1.41.87-2.8,1.44-4.15-.4.95.12-.23.17-.35.11-.23.22-.46.33-.69.39-.79.81-1.56,1.27-2.31.32-.52.65-1.04,1-1.54.21-.3.42-.59.63-.88-.58.78-.09.12.07-.07.84-1.02,1.77-1.97,2.77-2.83.16-.14,1.06-.83.13-.14.31-.23.63-.46.95-.67.57-.38,1.16-.73,1.76-1.05.36-.19.72-.36,1.09-.53-.91.4.31-.1.42-.13.75-.26,1.52-.47,2.3-.63.15-.03,1.44-.21.37-.09.26-.03.53-.05.79-.07.79-.06,1.59-.06,2.39-.01.33.02.67.06,1,.09.76.07-1.03-.25.21.05.87.21,1.74.39,2.59.67.33.11.66.23.99.36-.79-.3.22.1.32.15.51.24,1,.49,1.49.77,1.19.66,2.31,1.42,3.41,2.22.93.68-.71-.61.17.14.26.22.53.43.79.66.43.37.86.75,1.27,1.13.99.92,1.93,1.88,2.84,2.87.8.87,1.57,1.77,2.32,2.7.22.27,1.35,1.41.44.54.4.39.72.95,1.05,1.41,1.73,2.38,3.37,4.87,4.7,7.5.76,1.51,1.48,3.04,2.15,4.59.05.11.33.8.06.14.16.4.33.8.49,1.21.31.79.61,1.58.89,2.37,1.02,2.85,1.87,5.76,2.58,8.71,1.26,5.25,2.04,10.59,2.9,15.91s1.9,10.77,3.58,15.98c2.07,6.41,5,12.54,8.65,18.2,1.6,2.48,3.34,4.84,5.15,7.16,1.46,1.86,4.86,1.64,6.36,0,1.81-1.98,1.56-4.38,0-6.36h0Z"/><path class="cls-4" d="M318.17,578.63c1.08-.46-.9.35.21-.09.28-.11.55-.22.83-.33.57-.22,1.15-.44,1.72-.65,1.34-.48,2.71-.92,4.08-1.31,1.4-.4,2.82-.75,4.25-1.04.71-.15,1.43-.28,2.14-.4.29-.05.59-.1.88-.14.3-.05.59-.09.89-.13-.45.06-.39.06.16-.01,2.96-.31,5.95-.54,8.93-.56,1.02,0,2.47-.2,3.43.16-1.05-.4-.3-.03.06.04.2.04.41.08.61.13.4.1,1.45.23,1.74.56l-.52-.21c.19.09.37.18.55.27.18.1.36.2.54.31.27.16.52.36.79.52-.78-.46-.34-.29-.12-.09.48.43.94.85,1.37,1.33.2.22.38.44.57.66-.67-.82-.01.02.12.22.36.54.69,1.11.98,1.69.14.27.26.54.39.81-.42-.89-.07-.15.02.09.49,1.32.82,2.68,1.04,4.07-.03-.16-.09-.95-.02-.1.03.37.06.74.08,1.11.03.62.03,1.23,0,1.85s-.07,1.23-.15,1.84c.12-.99.04-.31,0-.11-.11.48-.19.97-.32,1.45-.16.6-.34,1.2-.55,1.78-.01.03-.47,1.1-.17.46s-.19.38-.21.41c-.47.94-1.06,2.36-1.88,3.04.75-.62.28-.35.04-.08-.23.25-.44.52-.68.77-.37.4-.77.79-1.17,1.17-.37.34-.77.66-1.15.99-.55.48.32-.28.36-.27-.09-.02-.61.44-.71.51-.88.61-1.81,1.17-2.78,1.62-2.14,1-2.85,4.25-1.61,6.16,1.42,2.2,3.87,2.68,6.16,1.61,8.95-4.17,14.57-14.17,13.76-23.94-.55-6.7-3.42-13.16-9.11-17.01-5.15-3.48-11.74-2.95-17.62-2.53-7.85.56-15.29,2.49-22.5,5.59-2.17.93-2.82,4.29-1.61,6.16,1.45,2.25,3.83,2.61,6.16,1.61h0Z"/><path class="cls-4" d="M328.72,608.36c-11.13-1.99-22.26-3.97-33.38-5.96-2.31-.41-4.96.62-5.54,3.14-.5,2.2.67,5.09,3.14,5.54,11.13,1.99,22.26,3.97,33.38,5.96,2.31.41,4.96-.62,5.54-3.14.5-2.2-.67-5.09-3.14-5.54h0Z"/><path class="cls-4" d="M284.82,604.04c-2.21,1.15-4.44,2.26-6.69,3.32-1.13.53-2.26,1.05-3.4,1.55-.51.22-1.01.45-1.52.66.06-.02-1.2.51-.61.26.42-.18-.67.28-.81.33-4.62,1.9-9.32,3.6-14.08,5.1-9.62,3.03-19.49,5.21-29.47,6.63-.16.02-.89.12-.05,0-.28.04-.55.07-.83.11-.62.08-1.24.16-1.87.23-1.31.15-2.63.3-3.94.42-2.49.24-4.99.43-7.49.57-5,.28-10.01.35-15.01.22s-9.98-.46-14.95-1c-1.24-.13-2.48-.28-3.71-.44-.9-.11-.22-.03-.04,0-.27-.04-.55-.08-.82-.11-.75-.11-1.51-.22-2.26-.33-2.46-.38-4.91-.81-7.35-1.29-11-2.17-21.77-5.41-32.13-9.71-2.18-.91-5.04.98-5.54,3.14-.6,2.63.81,4.57,3.14,5.54,18.98,7.89,39.4,12.13,59.91,13.08,20.65.95,41.58-1.53,61.42-7.35,11.27-3.3,22.24-7.73,32.65-13.17,2.09-1.09,2.89-4.18,1.61-6.16-1.37-2.13-3.92-2.78-6.16-1.61h0Z"/><path class="cls-4" d="M123.19,611.27c-.97-.06-1.95-.14-2.92-.24-.42-.04-.83-.09-1.25-.14-1-.11.62.11-.46-.06-1.72-.27-3.44-.58-5.14-.96-3.47-.79-6.88-1.85-10.18-3.16-.39-.15-.78-.31-1.16-.47.82.35-.29-.14-.46-.21-.83-.37-1.64-.75-2.45-1.16-1.55-.77-3.08-1.6-4.57-2.49-1.55-.92-3.06-1.9-4.52-2.94-.34-.24-.67-.48-1.01-.73-.04-.03-1.11-.84-.41-.3-.76-.59-1.5-1.21-2.24-1.83-1.79-1.52-4.63-1.89-6.36,0-1.54,1.68-1.91,4.74,0,6.36,12.11,10.3,27.27,16.35,43.13,17.33,2.35.15,4.6-2.17,4.5-4.5-.11-2.56-1.98-4.34-4.5-4.5h0Z"/><path class="cls-4" d="M198.84,588.57c-.63,4.31-1.27,8.63-2.39,12.85-.3,1.12-.62,2.23-1,3.33-.14.41-.28.82-.43,1.23-.05.14-.68,1.7-.35.94-.82,1.93-1.82,3.8-3.01,5.53-.11.15-1.07,1.42-.42.6-.24.3-.48.59-.73.87-.66.77-1.37,1.5-2.12,2.19-.37.35-.77.67-1.15,1.01-.71.63.55-.36-.29.24s-1.67,1.15-2.56,1.65c-.33.19-.67.36-1,.53-.18.09-1.65.71-.65.32-.94.36-1.88.68-2.86.91-.37.09-.73.15-1.1.23-.52.08-.49.08.08,0-.25.03-.5.05-.75.07-1.01.08-2.02.06-3.03-.03-2.35-.2-4.6,2.21-4.5,4.5.12,2.61,1.98,4.28,4.5,4.5,7.24.62,14.27-2.64,19.53-7.44,5.53-5.05,8.78-12.05,10.62-19.21,1.05-4.08,1.67-8.26,2.28-12.43.34-2.32-.57-4.95-3.14-5.54-2.13-.49-5.17.65-5.54,3.14h0Z"/><path class="cls-4" d="M143.86,308.95c-6.72,6.31-10.72,14.74-11.93,23.82-.14,1.06.6,2.47,1.32,3.18.78.78,2.06,1.37,3.18,1.32,1.16-.05,2.37-.43,3.18-1.32.86-.94,1.15-1.93,1.32-3.18-.04.3-.12.78-.02.21.04-.22.07-.44.11-.66.09-.49.19-.98.3-1.47.21-.92.45-1.83.74-2.73.28-.9.62-1.78.96-2.66.23-.59-.34.73-.06.16.1-.2.18-.41.28-.61.21-.45.43-.9.66-1.35.85-1.64,1.87-3.15,2.92-4.66.36-.52-.68.83,0-.01.14-.17.28-.35.42-.52.28-.34.57-.68.87-1.01.67-.75,1.38-1.46,2.11-2.14,1.72-1.61,1.75-4.76,0-6.36-1.84-1.69-4.53-1.72-6.36,0h0Z"/><path class="cls-4" d="M162.21,412.12c-7.1,16.2-14.2,32.4-21.3,48.6-2.03,4.64-4.07,9.28-6.1,13.92-.94,2.15-.7,4.93,1.61,6.16,1.95,1.03,5.15.69,6.16-1.61,7.1-16.2,14.2-32.4,21.3-48.6,2.03-4.64,4.07-9.28,6.1-13.92.94-2.15.7-4.93-1.61-6.16-1.95-1.03-5.15-.69-6.16,1.61h0Z"/><path class="cls-17" d="M319.22,365.11c.14.17-2.08,1.58-3.99,4.49-2.05,3.14-2.78,6.15-3.07,7.99-2.86,5.86-6.1,11.95-9.79,18.18-11.87,20.04-25.22,36.37-37.66,49.29-16.51-2.89-29.8-4.75-39.16-5.94-7.56-.96-13.12-1.64-21.21-3.59-10.14-2.44-17.48-5.59-22.96-7.9-7.32-3.08-13.29-6.15-17.72-8.61,7.08-.12,17.21-.72,29.23-2.94,3.28-.61,8.78-1.71,26.92-6.97,18.38-5.33,27.58-7.99,38.4-11.95,15.61-5.7,24.1-8.81,35.05-15.1,13.34-7.67,25.63-17.37,25.97-16.95Z"/><path class="cls-4" d="M307.21,385.98c-.32.76.39-.9.15-.36-.08.17-.15.35-.22.52-.14.32-.28.64-.42.95-.33.74-.67,1.47-1.02,2.2-.74,1.55-1.53,3.08-2.36,4.6-1.88,3.45-3.97,6.78-6.21,10-.63.91-1.28,1.8-1.93,2.69-.32.43-.65.87-.97,1.3,0,0-.73.95-.32.42.36-.46-.37.47-.45.57-1.58,2-3.22,3.95-4.92,5.86-3.75,4.22-7.75,8.21-11.94,12-2.63,2.38-5.34,4.67-8.1,6.89-1.54,1.23-2.12,1.69-3.52,2.75s-2.68,2-4.04,2.97c.76-.2,1.51-.41,2.27-.61-6.91.59-13.85.77-20.77.49-3.94-.16-7.88-.45-11.81-.9-.97-.11-1.94-.23-2.91-.35.55.07-.58-.08-.74-.1-.54-.08-1.08-.16-1.62-.24-1.97-.3-3.93-.64-5.89-1.01-7.18-1.37-14.27-3.23-21.2-5.55-3.1-1.04-6.17-2.16-9.2-3.38-.68-.27-1.36-.55-2.04-.83-.17-.07-.33-.14-.5-.21.04.02.72.31.25.1-.44-.19-.87-.37-1.31-.56-1.32-.58-2.64-1.17-3.94-1.78-5.26-2.46-10.38-5.19-15.36-8.16-2.02-1.21-5.03-.52-6.16,1.61-1.15,2.17-.55,4.87,1.61,6.16,20.37,12.17,43.05,20.02,66.58,23.03,6.94.89,13.94,1.32,20.93,1.31,3.08,0,6.17-.1,9.24-.27,1.37-.08,2.73-.17,4.1-.29s2.56-.36,3.72-1.2c.74-.53,1.47-1.07,2.2-1.62,11.24-8.37,21.76-17.77,30.58-28.7,6.89-8.54,12.65-17.75,16.89-27.88.91-2.18-.98-5.04-3.14-5.54-2.63-.6-4.56.81-5.54,3.14h0Z"/><path class="cls-16" d="M365.65,306.29c-1.76-4.78,3.91-9.04,5.91-14.4,2.1-5.63.98-14.7-12.94-29.86-3.01,1.61-7.09,4.31-10.7,8.67-1.3,1.58-2.34,3.12-3.17,4.55l-16.86-17.79c-1.42,2.69-2.94,6.16-4.02,10.33-1.65,6.39-1.63,11.92-1.28,15.77-7.79-8.32-14.64-14.19-19.53-18.04-4.23-3.34-7.3-5.41-8.6-4.54-1.65,1.11.23,6.54,1.57,9.48,2.17,4.77,5.58,12.02,20.96,19.38,8.93,4.27,18.65,7.72,25.6,14.57,3.76,3.7,6.55,8.27,10.62,11.66,4.07,3.39,10.15,5.41,14.95,2.9,9.59,11.29,17.95,23.56,24.9,36.53,5,9.34,9.34,19.27,10.18,29.8.32,3.98.21,8.25,2.42,11.6,2.21,3.35,7.96,4.82,10.48,1.59,2.73-3.51-.69-8.17-1.36-12.45-.65-4.14,1.5-8.37,4.61-11.37,3.11-3,7.08-5.01,10.99-6.96-5.55.18-9.16-5.25-11.62-9.99-3.36-6.48-6.73-12.96-10.09-19.43,2.68,1.01,5.4-2.44,4.62-5.1-.78-2.66-3.56-4.27-6.24-5.28-2.68-1.01-5.61-1.76-7.64-3.72-4.19-4.05-2.33-7.68-7.09-12.2-.97-.92-4.05-3.85-8.29-3.98-5.17-.16-6.95,3.99-11.56,3.39-2.92-.38-5.85-2.5-6.81-5.11Z"/><path class="cls-2" d="M367.73,306.33c4.93-4.52,7.55-11.44,7.15-18.09-.42-7.01-4.28-12.55-7.86-18.31-1.9-3.06-3.49-6.02-4.08-9.59-.35-2.11-2.83-2.48-4.41-1.79-6.96,3.05-12.74,8.52-16.44,15.13-1.89,3.37,3.29,6.4,5.18,3.03,3.25-5.81,8.19-10.3,14.29-12.98l-4.41-1.79c1.31,7.91,7.38,13.63,10.36,20.73,2.79,6.65,1.33,14.52-4.03,19.44-1.19,1.1-1.11,3.13,0,4.24,1.19,1.19,3.05,1.1,4.24,0h0Z"/><path class="cls-2" d="M358.92,293.54c-2.84-7.65-7-14.69-12.45-20.77-2.69-3-5.65-5.72-8.16-8.9s-4.6-6.53-6.46-10.06c-1.07-2.03-4.07-1.86-5.18,0-5.27,8.79-7.71,19.16-7.02,29.38.11,1.62,1.3,3,3,3,1.54,0,3.11-1.37,3-3-.62-9.24,1.45-18.42,6.2-26.35h-5.18c1.97,3.73,4.27,7.25,6.85,10.58,2.41,3.1,5.17,5.8,7.85,8.66,5.13,5.48,9.15,12.02,11.76,19.05.56,1.52,2.03,2.55,3.69,2.1,1.46-.4,2.66-2.16,2.1-3.69h0Z"/><path class="cls-2" d="M322.96,281.83c-4.99-4.77-9.99-9.55-14.98-14.32-4.31-4.12-9.02-9.64-15.52-9.54-2.21.03-3.82,2.54-2.59,4.51,3.1,4.94,3.75,10.96,6.09,16.25s6.84,9.76,12.83,10.02c1.62.07,3-1.43,3-3,0-1.68-1.37-2.93-3-3-4.12-.18-6.83-4.71-8.16-8.38-1.81-5.01-2.71-10.35-5.58-14.93-.86,1.5-1.73,3.01-2.59,4.51,2.15-.03,4.11,1.21,5.8,2.64,2.28,1.94,4.39,4.1,6.55,6.16,4.64,4.43,9.27,8.87,13.91,13.3,2.79,2.67,7.04-1.57,4.24-4.24h0Z"/><path class="cls-2" d="M404.48,341.52c2.52.07,5.17-.33,7.38-1.61,2.65-1.55,5.97-5.83,3.57-8.78-1.66-2.04-3.75-3.85-6.02-5.18-1.91-1.12-4.04-1.87-6.01-2.87-1.29-.66-2.57-1.33-3.82-2.06-.55-.32-1.1-.64-1.6-1.02.64.49-1.14-.92-.29-.24-.02-.02-.41-.64-.15-.18s-.09-.34-.11-.41c.16.58,0-.11,0-.27,0-.17.01-.35.03-.52.1-1.45.17-2.76-.14-4.21-.63-2.93-2.28-5.63-4.75-7.35-2.01-1.4-4.48-1.98-6.9-2.04-4.78-.12-9.42,2.47-12.31,6.21-.99,1.28-1.25,2.99,0,4.24,1.03,1.03,3.25,1.29,4.24,0,.55-.72,1.18-1.38,1.85-1.99.77-.69,2.17-1.65,3.31-2.03.89-.3,1.52-.42,2.3-.44.29,0,.58,0,.86.01.14,0,.28.02.42.02.08,0,.74.09.34.03s.21.04.29.06c.2.05.4.09.6.14.39.11.71.22.86.29.81.39,1.47.92,1.99,1.65.27.38.49.82.68,1.25-.19-.44.13.41.16.51.27.87.37,1.48.31,2.42-.11,1.86-.2,3.57.73,5.28.81,1.49,2.26,2.55,3.67,3.42,1.98,1.22,4.08,2.3,6.19,3.27,1.5.7,3.05,1.29,4.47,2.15,1.76,1.07,3.26,2.52,4.57,4.1-.26-.97-.51-1.95-.77-2.92-.19.73-.44,1.27-.88,1.73-.5.52.16-.03-.43.37-.12.08-1.02.54-.74.42-1.51.61-2.22.59-3.89.54-3.86-.11-3.86,5.89,0,6h0Z"/><path class="cls-2" d="M394.19,337.26c6.16,1.36,11.68,5.14,15.21,10.42,2.12,3.18,3.13,6.78,4.74,10.21s4.09,6.19,7.08,8.38c3.33,2.43,7.36,3.78,11.47,3.98v-6c-3.24.26-6.06,1.61-8.75,3.37-1.18.78-2.33,1.61-3.52,2.38-.62.4-1.25.79-1.91,1.15-.27.15-.55.29-.83.42-.33.15-.37.17-.12.06-.14.06-.28.11-.42.16-.33.11-.66.22-1,.3-.12.03-.95.17-.37.1-.3.04-.6.05-.9.05-.2,0-.41-.01-.61-.03.28.05.24.04-.12-.02-.29-.06-.59-.14-.87-.25.47.18-.28-.16-.37-.21-.55-.32-.67-.42-1.27-1.07-.41-.44.02.09-.3-.37-.24-.34-.45-.7-.63-1.08-.14-.28-.3-.7-.44-1.33-.05-.2-.09-.4-.12-.61.03.23.04.24.02.03-.02-.36-.03-.72,0-1.08.06-.87-.14.43.08-.41.11-.4.24-.78.39-1.16.62-1.5-.67-3.3-2.1-3.69-1.73-.47-3.06.59-3.69,2.1-2.93,7.02,3.19,15.72,10.78,15.15,3.5-.26,6.49-2.08,9.31-4.02,1.35-.92,2.68-1.86,4.11-2.65.33-.18.65-.35.99-.51.33-.15.38-.17.15-.08.19-.08.39-.15.58-.22.39-.14.79-.25,1.19-.35.2-.05.4-.09.61-.12-.28.04-.24.04.13,0,3.82-.31,3.9-5.82,0-6-6.24-.29-11.6-4.73-13.93-10.69-1.35-3.44-2.64-6.82-4.82-9.82-2.14-2.95-4.67-5.47-7.64-7.59-3.13-2.23-6.76-3.84-10.51-4.67-1.58-.35-3.25.48-3.69,2.1-.41,1.5.51,3.34,2.1,3.69h0Z"/><path class="cls-2" d="M412.54,374.21c.07,5.89.62,11.78,1.68,17.57.94,5.15,3.24,10.67,8.76,12.2,2.92.81,4.98-2.88,2.92-5.01-3.36-3.47-8.5-4.98-13.16-3.55-1.07.33-2.11.82-3.2,1.06-.84.18-1.18.13-1.7-.15-.6-.33-1.04-.78-1.35-1.31-.28-.48-.3-.55-.41-1.04-.12-.52,0,.31-.04-.22,0-.06,0-.71-.04-.41.23-1.6-.4-3.22-2.1-3.69-1.41-.39-3.46.48-3.69,2.1-.41,2.84.25,5.37,2.06,7.62,1.61,1.99,4.23,3.35,6.83,3.2,2.51-.15,4.95-1.7,7.26-1.7,1.98,0,3.84.84,5.3,2.34.97-1.67,1.95-3.34,2.92-5.01-1.46-.41-2.52-1.63-3.25-3.19-.9-1.92-1.21-4.14-1.55-6.22-.79-4.82-1.17-9.7-1.22-14.58-.04-3.86-6.04-3.87-6,0h0Z"/><path class="cls-14" d="M364.21,304.41c-6.62-9.86-16.99-16.96-28.27-19.37-11.28-2.41-23.34-.1-32.88,6.3-8.51,5.71-14.85,14.36-19.45,23.74-4.61,9.37-7.6,19.52-10.58,29.61-3.93,13.33-7.87,26.66-11.8,39.99-1.18,4.01-2.38,8.24-1.56,12.39,1.66,8.4,10.52,12.89,18.42,15.46,22.04,7.15,45.44,9.46,68.19,6.71,12.99-1.57,26-4.86,37.03-11.97,11.04-7.11,19.96-18.43,22.27-31.77,2.44-14.08-2.67-28.82-10.85-40.57-8.17-11.75-19.2-21-30.14-30.01"/><path class="cls-1" d="M365.11,354.44c.49-.49.99-.97,1.53-1.41.14-.12.29-.24.43-.35.06-.05.12-.1.19-.15-.03.02-.12.09.01,0,.3-.22.6-.44.91-.65.57-.39,1.16-.74,1.77-1.07.28-.15.56-.3.85-.43.09-.04.18-.08.27-.13.15-.08-.04.02-.06.02.15-.05.29-.11.44-.15.13-.04.26-.06.38-.09.21-.06-.23,0-.01,0,.06,0,.13,0,.19,0,.3-.02-.2-.04.09,0,.03,0,.23.06.04,0-.24-.08.18.1-.02-.02s.14.14,0-.01c-.11-.12.03.03.03.06-.04-.28,0,.18-.02-.13,0,.11-.02.39.03.14-.01.07-.03.13-.05.2-.04.13-.13.25-.02.08-.04.06-.23.32-.1.17-.1.11-.2.21-.31.31.02-.02.15-.11.01,0-.08.06-.16.11-.25.16-.15.09-.3.18-.45.26-.67.36-1.08.54-1.77.77-1.65.56-3,.76-4.71.72-.78-.02-1.54.7-1.5,1.5s.66,1.48,1.5,1.5c1.86.04,3.75-.23,5.5-.83,1.67-.57,3.84-1.42,4.69-3.1.92-1.83.21-4.29-1.99-4.7-1.77-.33-3.49.64-4.97,1.51-1.73,1.02-3.34,2.29-4.75,3.72-.55.56-.6,1.57,0,2.12s1.53.6,2.12,0h0Z"/><path class="cls-1" d="M327.24,303.51c.04-.1.08-.2.12-.31.07-.18-.12.28-.04.1.02-.04.04-.09.06-.13.1-.23.21-.45.32-.68.21-.42.44-.82.69-1.22.12-.18.24-.36.36-.54.06-.09.13-.18.19-.26.04-.05.07-.1.11-.15.11-.15-.24.3-.04.05.14-.17.27-.34.41-.5.07-.08.14-.15.21-.23.06-.05.34-.3.15-.15s.09-.04.14-.08c.22-.14-.13.05-.13.05.01-.02.16-.03.16-.04,0,0-.35.04-.2.03.19,0-.34-.08-.16-.02.15.05-.18-.08-.17-.08.23.1-.2-.18-.1-.09.13.12-.18-.29-.1-.14,0,0,.05.09.06.09-.02,0-.12-.38-.07-.15,0,.04.02.07.03.11.06.17-.02-.36-.02-.18,0,.04,0,.08,0,.11,0,.02,0,.12,0,.15.04-.09.07-.36,0-.1-.01.04-.04.09-.04.13.02-.25.12-.24.04-.11-.05.09-.1.19-.16.28s-.13.17-.18.26c.23-.36.03-.04-.05.05-.29.34-.6.66-.94.96-.1.09-.2.18-.3.26-.03.03-.07.06-.1.08-.24.2.21-.15.06-.04-.21.15-.41.29-.62.43-.2.13-.41.24-.61.36-.12.06-.24.12-.36.18-.11.05-.51.23-.09.05-.38.16-.68.32-.9.69-.19.32-.27.8-.15,1.16s.34.71.69.9.79.3,1.16.15c1.19-.5,2.24-1.12,3.22-1.96.41-.35.78-.73,1.13-1.15.47-.57.93-1.17,1.12-1.9s.12-1.61-.29-2.27c-.47-.75-1.3-1.25-2.2-1.19-1.55.11-2.55,1.45-3.38,2.61s-1.43,2.35-1.93,3.64c-.13.34-.03.85.15,1.16s.54.61.9.69c.38.09.81.07,1.16-.15s.54-.51.69-.9h0Z"/><path class="cls-1" d="M332.67,344.97c.34-.65.7-1.28,1.1-1.89.19-.3.39-.59.6-.87.1-.13.19-.27.29-.4.04-.06.08-.11.13-.17-.16.2.04-.05.07-.08.45-.57.93-1.11,1.44-1.63.23-.23.46-.46.7-.68.13-.12.26-.24.4-.35-.05.04-.22.15.02,0,.07-.05.15-.1.22-.15s.15-.08.23-.13c.07-.04.25-.08,0,0,.08-.02.16-.05.24-.08.04-.01.23-.04.04-.02-.21.02.4.02-.01,0,.25.01.04.05-.02-.02l.11.07c-.14-.11-.17-.13-.09-.05.14.13-.1-.22-.03-.04.02.05.05.1.08.15-.14-.25-.06-.14-.03-.04.07.24-.01-.06,0-.06.03,0,0,.39,0,.41,0,.18,0-.12.01-.11.02,0-.1.35-.11.36.01-.04.11-.19.02-.06-.05.07-.08.15-.13.23s-.29.39-.11.18c-.22.28-.48.53-.73.77s-.5.47-.77.69c-.06.05-.39.32-.18.15-.14.11-.29.22-.44.32-.65.46-1.34.87-2.06,1.22-.16.08-.33.15-.5.23-.21.1.2-.08-.02,0-.11.04-.21.08-.32.13-.38.15-.77.27-1.16.39-.75.22-1.3,1.07-1.05,1.85s1.04,1.28,1.85,1.05c1.67-.49,3.29-1.23,4.71-2.23s3.13-2.36,3.78-4.12c.73-1.98-.53-4.51-2.82-4.44-1.92.06-3.41,1.66-4.61,3-1.34,1.49-2.5,3.15-3.43,4.93-.36.7-.2,1.66.54,2.05.69.36,1.66.2,2.05-.54h0Z"/><path class="cls-1" d="M304.23,344.14c.2-1.47.53-2.93,1.01-4.34.23-.68.45-1.26.71-1.83.15-.34.31-.67.48-1,.07-.13.14-.25.21-.37.04-.06.28-.4.14-.23.09-.11.19-.21.29-.32.19-.2-.09.04.12-.1.24-.16-.15.05.11-.05-.02,0-.26.02-.08.02.23,0-.24-.03,0,0,.18.02-.07-.05-.11-.06-.11-.03,0,0,.05.05.18.17-.03-.1.08.12.12.25-.02-.12.05.15,0,.02.05.24.02.07s0,.16,0,.2c0,.27-.06.44-.18.79-.05.16-.08.21-.11.29-.08.17-.16.34-.25.51-.31.62-.66,1.22-1.06,1.79-.11.15-.21.3-.32.45-.05.06-.09.13-.14.19.09-.12-.03.04-.06.07-.24.28-.48.57-.73.83-.27.29-.55.56-.85.83-.14.12-.28.24-.42.36-.06.05-.12.1-.18.15-.02.02-.28.22-.13.1-.64.49-.98,1.29-.54,2.05.37.64,1.4,1.03,2.05.54,1.46-1.11,2.72-2.38,3.78-3.88.48-.67.9-1.39,1.26-2.13.47-.95.89-1.97.88-3.05-.03-2.01-1.79-3.98-3.92-3.31-1.86.58-2.7,2.59-3.39,4.23-.82,1.94-1.38,3.97-1.66,6.06-.11.77.19,1.65,1.05,1.85.71.16,1.73-.22,1.85-1.05h0Z"/><path class="cls-1" d="M304.06,313.97c.15-1.08.39-2.15.74-3.18.08-.24.17-.48.26-.72.02-.06.05-.12.07-.18,0-.02.09-.22.02-.06s.01-.03.02-.06c.03-.08.07-.16.1-.23.11-.25.23-.49.36-.73.05-.09.1-.18.16-.27.03-.05.06-.09.09-.14.12-.2,0,.04-.04.05.03,0,.18-.2.21-.23.03-.03.17-.13,0-.01-.21.15,0,0,0,0,0-.02.24-.11,0,0-.2.08-.05.02,0,.01,0,0-.34.03-.17.03.2,0-.31-.04-.11-.01.16.03-.17-.09-.22-.12-.17-.11-.05-.03,0,0,.03.02.15.16,0,0-.15-.17,0-.02,0,.01,0,.02.12.22,0,0-.1-.2,0-.03,0,.01,0,.02.04.25,0,0s0,.04,0,.09c0,.06,0,.14-.01.19,0-.03.06-.24,0-.08-.05.11-.07.25-.11.37-.02.06-.05.12-.07.18,0-.02.1-.22.02-.06-.06.12-.12.25-.18.38-.23.45-.49.89-.77,1.31-.08.11-.16.22-.24.33-.03.05-.07.1-.11.14.08-.09.13-.16.02-.03-.17.21-.35.41-.54.61-.2.21-.41.41-.62.61-.1.09-.2.18-.31.27-.07.06-.43.34-.15.12-.32.25-.58.49-.69.9-.1.36-.05.84.15,1.16.4.62,1.38,1.04,2.05.54,1.13-.86,2.09-1.83,2.92-2.99.35-.49.66-1.02.93-1.56.37-.76.71-1.58.7-2.44-.02-1.74-1.56-3.37-3.38-2.82-1.5.46-2.19,2.01-2.75,3.33-.61,1.44-1.03,2.94-1.24,4.5-.06.42-.07.78.15,1.16.18.31.54.61.9.69.71.16,1.73-.22,1.85-1.05h0Z"/><path class="cls-1" d="M292.68,359.8c.39-.9.85-1.77,1.4-2.58.13-.2.27-.39.41-.58.22-.3-.14.17.02-.03.09-.11.18-.22.27-.33.15-.18.31-.36.47-.53.07-.07.14-.15.22-.22.04-.04.09-.08.13-.12.13-.12-.28.18-.05.05.07-.04.22-.18.3-.17.03,0-.33.1-.16.08.06-.01.25-.05,0-.02s-.1.01-.04.01c.24,0-.15-.02-.17-.02.22.02-.09-.04-.13-.06.21.08-.22-.19-.11-.08.13.12-.2-.29-.1-.14.02.02.03.07.05.09-.17-.16-.1-.32-.07-.16,0,.02.03.14.04.14-.02-.01-.03-.41-.02-.18,0,.04,0,.07,0,.11,0,.07-.02.24.01-.02.04-.29,0,0-.03.05s-.05.11-.06.17c0,0,.14-.28.06-.16-.07.1-.12.21-.18.3-.02.04-.06.07-.08.11.14-.27.15-.19.07-.09-.09.1-.17.21-.26.31-.31.35-.65.68-1.01.98-.05.04-.09.08-.14.12-.15.13.04-.03.09-.07-.11.08-.22.16-.33.24-.21.15-.42.29-.64.42-.23.14-.47.27-.71.38-.11.05-.22.1-.33.15-.23.1.09-.04.11-.05-.08.01-.17.07-.25.1-.37.14-.69.33-.9.69-.19.32-.27.8-.15,1.16.23.71,1.06,1.35,1.85,1.05,1.25-.47,2.35-1.11,3.38-1.95.43-.35.84-.74,1.21-1.16.5-.56.94-1.16,1.16-1.89.47-1.61-.58-3.6-2.41-3.53-1.47.05-2.48,1.2-3.32,2.27-.88,1.13-1.63,2.33-2.19,3.65-.17.39-.27.73-.15,1.16.1.35.36.73.69.9.35.18.77.28,1.16.15.34-.11.75-.34.9-.69h0Z"/><path class="cls-1" d="M327.89,383.33c.4-.4.82-.79,1.26-1.15.12-.1.24-.19.36-.29.13-.11-.03.02-.04.04.05-.04.1-.08.16-.12.25-.18.49-.36.75-.52.47-.31.96-.6,1.46-.86.23-.12.46-.24.7-.35.05-.02.3-.15.09-.05-.18.09-.02,0,.02,0,.12-.04.24-.09.36-.12.1-.03.21-.05.32-.07.2-.05-.29,0-.08.01.05,0,.11,0,.16,0,.05,0,.21.03,0-.01-.28-.05,0,0,0,0h.05c.08.04.06.03-.04-.01-.1-.05-.12-.05-.05-.01.07.04.06.03-.03-.03l-.07-.06c.09.09.1.1.02,0-.12-.12-.02-.03,0,.03,0,0-.1-.27-.05-.11s-.02-.12,0-.13c0,0,0,.15,0,.16.02.17,0-.11.02-.12,0,0-.04.15-.04.16-.01.15.15-.22,0,0-.03.05-.06.1-.09.14-.08.14.03-.05.05-.07-.09.08-.18.17-.26.25.02-.02.21-.14.06-.05-.07.04-.13.09-.2.13-.12.07-.24.14-.37.21-.24.13-.48.24-.73.35.25-.11-.15.06-.21.08-.15.06-.3.11-.45.16-.65.22-1.32.36-2,.48.28-.05-.12.01-.21.02-.16.02-.32.03-.48.04-.37.02-.73.02-1.1,0-.79-.03-1.54.71-1.5,1.5.04.83.66,1.47,1.5,1.5,1.54.05,3.12-.16,4.59-.65s3.29-1.2,4.02-2.64c.42-.83.53-1.79.16-2.66-.34-.81-1.06-1.42-1.94-1.59-1.53-.3-3,.5-4.29,1.24-1.45.84-2.79,1.88-3.97,3.06-.56.55-.6,1.57,0,2.12s1.53.59,2.12,0h0Z"/><path class="cls-1" d="M314.43,407.29c1.61-.85,3.25-1.46,5.07-1.87.87-.19,1.44-.32,2.17-.31.08,0,.61.07.26,0,.17.03.33.07.49.13-.17-.07-.18-.07-.03,0,.14.09.14.09-.02-.02.11.12.11.11,0-.02.07.13.08.15.04.05-.04-.1-.04-.07.01.08-.02-.17-.03-.16-.03.02.02-.17.01-.16-.03.01.07-.14.06-.13-.02.03-.1.15-.1.16-.01.04-.06.07-.13.14-.2.2.13-.11-.29.16-.35.18.18-.08-.33.09-.38.11-.15.04-.31.07-.46.1-.45.09-.74.12-1.22.15-1.91.14-3.62-.1-5.44-.71-.77-.26-1.64.3-1.85,1.05-.23.82.28,1.59,1.05,1.85,1.82.61,3.76.91,5.68.85,1.74-.06,3.98-.24,5.24-1.6,1.39-1.49,1.3-3.93-.56-4.99-1.49-.86-3.39-.47-4.97-.13-2.08.44-4.09,1.21-5.96,2.21-.71.38-.94,1.37-.54,2.05.42.72,1.33.92,2.05.54h0Z"/><path class="cls-1" d="M280.78,398.22c1.04-.95,1.96-1.64,3.22-2.39.6-.36,1.23-.69,1.86-.99.15-.07.29-.14.44-.2-.01,0,.23-.1.12-.05s.13-.05.12-.05c.28-.11.57-.21.87-.27.13-.03.37-.02.12-.03.12,0,.26,0,.38,0-.03,0-.25-.07-.09-.02.05.02.12.03.18.04.06.02.17.1.04.01-.2-.15.14.17-.03,0s.11.18-.01,0c-.02-.02-.1-.13-.08-.17,0,.01.05.17.05.19.06.17-.03-.05-.01-.07-.02.02.01.25.01.07,0-.16,0,.03-.01.07-.02.07-.04.13-.06.19-.06.21.1-.17-.01,0-.04.06-.07.11-.1.17.05-.07.14-.15-.05.04-.05.04-.32.27-.14.14-.26.19-.55.34-.83.48-.53.25-1.18.49-1.85.68-1.62.46-3.04.59-4.78.45-.78-.06-1.53.73-1.5,1.5.04.86.66,1.44,1.5,1.5,1.89.15,3.83-.05,5.66-.58,1.69-.49,3.78-1.24,4.69-2.86.99-1.77.32-4.25-1.8-4.74-1.76-.41-3.54.49-5.06,1.27-1.8.93-3.46,2.13-4.96,3.49-.58.53-.58,1.59,0,2.12.62.57,1.5.57,2.12,0h0Z"/><path class="cls-1" d="M378.22,387.31c1.04-.95,1.96-1.64,3.22-2.39.6-.36,1.23-.69,1.86-.99.15-.07.29-.14.44-.2-.01,0,.23-.1.12-.05s.13-.05.12-.05c.28-.11.57-.21.87-.27.13-.03.37-.02.12-.03.12,0,.26,0,.38,0-.03,0-.25-.07-.09-.02.05.02.12.03.18.04.06.02.17.1.04.01-.2-.15.14.17-.03,0s.11.18-.01,0c-.02-.02-.1-.13-.08-.17,0,.01.05.17.05.19.06.17-.03-.05-.01-.07-.02.02.01.25.01.07,0-.16,0,.03-.01.07-.02.07-.04.13-.06.19-.06.21.1-.17-.01,0-.04.06-.07.11-.1.17.05-.07.14-.15-.05.04-.05.04-.32.27-.14.14-.26.19-.55.34-.83.48-.53.25-1.18.49-1.85.68-1.62.46-3.04.59-4.78.45-.78-.06-1.53.73-1.5,1.5.04.86.66,1.44,1.5,1.5,1.89.15,3.83-.05,5.66-.58,1.69-.49,3.78-1.24,4.69-2.86.99-1.77.32-4.25-1.8-4.74-1.76-.41-3.54.49-5.06,1.27-1.8.93-3.46,2.13-4.96,3.49-.58.53-.58,1.59,0,2.12.62.57,1.5.57,2.12,0h0Z"/><path class="cls-7" d="M226.8,485.41c16.63-29.71,33.26-59.42,49.9-89.13.56-1,3.34-4.57,3.93-9.85.04-.4.87-8.7-3.1-12.49-6.02-5.75-20.09,1.59-25.63,4.48-14.9,7.77-15.43,13.78-32.27,26.87-18.05,14.03-22.14,10.57-30.85,21.9-3.15,4.1-8.45,12.04-15.84,23.43-4.33,6.68-6.5,10.03-6.66,10.35-6.74,13.26-8.67,30.87.43,42.48,8.74,11.16,25.38,12.91,37.8,6.66,19.59-9.87,25.81-30.36,26.22-32.22"/><path class="cls-4" d="M162.38,493.34c1.21-7.66,3.03-15.23,5.51-22.58.6-1.79,1.24-3.56,1.92-5.32.31-.81.63-1.62.96-2.42.1-.24.57-1.34.24-.58.21-.49.42-.97.63-1.46,1.48-3.33,3.1-6.61,4.87-9.79,1.72-3.09,3.59-6.1,5.61-9.01.46-.66.93-1.32,1.4-1.97.25-.35.51-.69.77-1.04.18-.24.99-1.29.41-.55,1.05-1.33,2.12-2.65,3.23-3.93,2.17-2.49,4.48-4.87,6.92-7.09,1.19-1.08,2.42-2.13,3.68-3.14.27-.21.54-.42.81-.64-.87.68.16-.12.36-.26.94-.7,1.9-1.38,2.87-2.04,8.3-5.65,17.34-10.29,26.07-15.23,2.05-1.16,2.92-4.13,1.61-6.16-1.34-2.07-3.96-2.86-6.16-1.61-7.94,4.49-16.06,8.77-23.73,13.69-6.33,4.06-12.15,8.84-17.23,14.39-10.18,11.1-17.61,24.43-22.78,38.52-3.07,8.36-5.26,17.03-6.65,25.83-.36,2.32.59,4.95,3.14,5.54,2.16.49,5.14-.66,5.54-3.14h0Z"/><path class="cls-4" d="M240.47,396.69c.45-.67.9-1.32,1.37-1.97.23-.32.47-.64.71-.97.57-.77-.38.46.27-.36.92-1.14,1.86-2.27,2.85-3.36,2.11-2.32,4.39-4.49,6.8-6.48.26-.21.52-.42.78-.63.19-.15.97-.75.35-.28.64-.48,1.28-.96,1.94-1.42,1.25-.88,2.54-1.72,3.85-2.52,2.68-1.62,5.47-3.04,8.36-4.27l-2.27.61c1.67-.12,3.34-.26,5.01-.38.1,0,.19-.02.29-.02.23-.01.52.02.75,0-.69.09-.47-.12-.09,0,.23.08.48.14.71.21-.19-.06-.75-.42-.05,0,.15.09.32.22.49.29.42.17-.42-.46.15.1.21.2,1.12,1.22.58.5.27.37.51.77.73,1.17.06.1.42.88.21.4-.19-.44.06.19.08.23.19.6.37,1.19.5,1.8.05.25.25,1.49.15.66.07.55.11,1.11.15,1.67.06,1.03.08,2.06.06,3.1-.02.96-.07,1.91-.16,2.87-.04.44-.09.89-.14,1.33.12-1.07-.11.65-.15.89-.35,1.95-.83,3.88-1.44,5.76-.3.91-.66,1.8-.98,2.7-.18.48.06-.13.09-.19-.1.24-.2.47-.31.7-.24.53-.48,1.05-.74,1.56-.88,1.78-1.89,3.49-3.01,5.13-.29.42-.58.84-.89,1.25-.15.21-.3.41-.46.61.39-.5.11-.15-.13.14-.69.84-1.41,1.66-2.16,2.44-.79.83-1.62,1.63-2.48,2.39-.38.34-.77.67-1.17.99-.2.16-.4.32-.6.48.62-.48-.07.05-.31.22-1.89,1.39-3.02,3.97-1.61,6.16,1.21,1.88,4.13,3.1,6.16,1.61,12.1-8.86,19.73-23.31,19.51-38.41-.06-4.08-.58-8.64-2.99-12.07-2.41-3.43-6.22-5.97-10.56-5.69-1.35.09-2.69.2-4.04.3-1.42.11-2.62.36-3.93.93-.86.37-1.7.76-2.54,1.17-3.3,1.6-6.46,3.48-9.44,5.61-7.07,5.05-13.13,11.23-17.97,18.46-1.31,1.96-.44,5.07,1.61,6.16,2.27,1.2,4.75.48,6.16-1.61h0Z"/><path class="cls-4" d="M258.56,417.7c-.35.91-.7,1.81-1.07,2.71-.18.45-.37.91-.55,1.36-.11.26-.22.52-.32.78-.28.67.25-.58-.04.09-.83,1.88-1.65,3.77-2.53,5.63-1.82,3.88-3.78,7.69-5.86,11.44-4.32,7.79-9.17,15.28-14.41,22.48-.74,1.02-1.49,2.03-2.25,3.04-.38.51-.76,1.01-1.15,1.52-.19.25-.39.51-.58.76.28-.36-.1.13-.18.22-1.69,2.16-3.4,4.29-5.15,6.39-1.5,1.81-1.9,4.62,0,6.36,1.66,1.52,4.76,1.93,6.36,0,11.86-14.28,22.41-29.74,30.43-46.51,2.17-4.54,4.16-9.18,5.97-13.88.85-2.2-.93-5.03-3.14-5.54-2.57-.59-4.63.78-5.54,3.14h0Z"/><path class="cls-10" d="M174.24,221.8l-2.52,2.19-2.23-2.57c-1.06-1.22-2.51-1.89-4-2-1.49-.1-3.02.36-4.24,1.42-2.43,2.11-2.69,5.8-.58,8.23l2.21,2.55-2.57,2.23c-2.43,2.11-2.69,5.8-.58,8.23,1.06,1.22,2.51,1.89,4,2,1.49.1,3.02-.36,4.24-1.42l2.55-2.21,2.52,2.9c2.11,2.43,5.8,2.69,8.23.58,1.22-1.06,1.89-2.51,2-4,.1-1.49-.36-3.02-1.42-4.24l-2.5-2.88,2.53-2.2c1.22-1.06,1.89-2.51,2-4,.1-1.49-.36-3.02-1.42-4.24-2.11-2.43-5.8-2.69-8.23-.58ZM171.27,232.4l-.02.02-.02-.02.02-.02.02.02Z"/><circle class="cls-15" cx="108.97" cy="252.49" r="7.76"/><circle class="cls-15" cx="139.23" cy="272.92" r="8.02"/><circle class="cls-15" cx="369.71" cy="476.5" r="8.02"/><path class="cls-17" d="M322.43,147.41c.12-8.29,4.88-13.81,13.14-17.68,4.27-2,11.71-.58,14.3,2.48,1.49,1.76,2.75,3.69,3.94,5.63.5.82.79.97,1.64.41,1.66-1.1,2.3-2.49,2.36-4.31.11-3.85-.12-7.64,1.05-11.53.89-2.95,2.2-4.44,5.39-5.17.95-.22,2.36-1.13,2.39-1.76.14-2.98,1.59-6.26-1.93-8.68-.66-.45-1.06-1.24-1.47-1.93-.62-1.05-1.46-1.19-2.8-1.15-7.16.25-13.83-1.59-20.24-4.13-2.66-1.06-3.74-3.5-2.93-5.92.6-1.79,1.47-3.55,2.49-5.18,1.62-2.58,2.77-2.98,5.95-2.09,4.49,1.26,9.04,2.44,13.35,4.07,2.86,1.08,4.99,1.02,7.81-.32,7.19-3.41,16.39-2.22,20.96,4.78,1.67,2.56,3.76,3.59,6.62,4.37,3.53.96,7.02,2.03,10.46,3.21,5.01,1.71,5.01,1.8,5.02,6.61,0,.56.02,1.12-.05,1.67-.42,3.11-3.41,4.61-6.85,3.59-5.27-1.57-10.6-3.01-15.87-4.58-.79-.24-1.76-.72-2.07-1.32-.43-.82-.68-1.99-.32-2.76.55-1.18,1.87-.77,2.99-.36,2.34.87,4.71,1.69,7.06,2.56,3.17,1.18,6.33,2.36,9.48,3.57,1.29.49,2.25.32,2.77-.88.83-1.96-.66-5.07-3.02-5.7-4.25-1.13-8.54-2.16-12.89-2.96-3.34-.62-4.27-1.27-5.08-4.07-.35-1.21-1.1-2.48-2.09-3.39-3.47-3.18-9.8-4.4-14.56-1.03-2.6,1.84-5.08,1.54-7.81.69-2.51-.78-5.01-1.6-7.56-2.3-4.05-1.11-4.06-1.08-5.66,2.41-.97,2.1-.69,2.86,1.65,3.43,2.56.63,5.18,1.09,7.79,1.56,3.19.57,6.14,1.42,7.73,4.2.81,1.41,2.03,1.57,3.82,1.36,2.63-.32,5.36-.36,8.01-.13,4,.34,5.96,2.6,5.78,6.13-.06,1.22.16,2.49-.16,3.65-.65,2.32.76,3.22,2.94,3.76.86.21,1.87.25,2.53.69.85.56,1.93,1.41,2,2.2.19,2.19.37,4.53-.33,6.58-.51,1.49-.23,2.44.38,3.7,1.19,2.43,3.45,3.87,5.96,4.96,2.61,1.13,5.37,2.05,8.15,2.84,9.19,2.64,13.79,6.96,15.88,16.6.63,2.93,1.15,5.89,1.8,8.82.11.48.53,1.15.99,1.3,3.42,1.12,3.72,3.21,2.87,5.92-.36,1.15.06,2.48-.27,3.64-.42,1.46-.78,3.33-1.96,4.16-1.91,1.35-2.95,2.74-3.28,4.19,0,0,0,0,0,0-.17.07-.34.15-.51.22-.12-1.36-.57-2.66-1.26-3.85.09.06.17.13.27.18.31.16,1.29-.66,2.47-1.33-1.55-.8-2.58-1.35-3.67-1.81-.03-.01-.47.46-.68.81-2.24-2.38-5.54-4.05-9.04-4.43-1.42-.46-2.92-.72-4.43-.72-.67,0-1.31.06-1.94.14-.09,0-.17,0-.26,0-3.59,0-6.73,1.23-9.07,3.19-.07-.15-.3-.38-.39-.52-1.44.1-3.9,3.25-3.34,4.1.08.12.55.22.6.16.1-.11.19-.22.29-.32-.71,1.27-1.19,2.65-1.39,4.11-1.19-.09-2.38-.17-3.56-.24-.31-.02-.62-.01-.92,0-1.02-.82-1.96-2.11-2.06-3.24-.33-3.74-.31-7.51-.2-11.27.02-.82.73-1.97,1.52-2.37,5.6-2.8,11.62-4.74,18.15-4.57,4.55.12,9.1.81,13.62,1.37,1.71.21,2.44-.02,2.03-1.66-.38-1.52-.83-3.06-.86-4.59-.15-7.74-5.28-12.15-12.9-15-2.11-.79-4.25-1.54-6.26-2.49-4.48-2.12-8.26-4.79-9.63-9.4-.26-.86-1.14-1.95-2.03-2.25-6.75-2.25-13.59-4.04-20.8-1.41-3.1,1.13-3.5,1.7-3.64,4.77-.1,2.21.02,4.5-.66,6.59-1.31,4.03-7.52,5.9-11.55,3.73-4.03-2.16-7.75-1.47-9.79,2.24-1.01,1.82-1.68,4.1-1.43,6.07.45,3.49,1.34,7.02,2.74,10.31,2.11,4.96,2.37,4.87,8.33,4.44.89-.06,1.83.07,2.67-.13,1.31-.32,2.92-.56,3.76-1.35,1.62-1.53,2.9-1.3,4.65-.31,1.58.9,3.29,1.99,5.06,2.18,5.37.59,10.73.19,15.71-1.83,1.7-.69,3.06-1.97,4.69-2.83.5-.27,1.36-.03,2.05-.03-.16.49-.24,1.02-.51,1.46-.23.38-.65.68-1.03.98-6.53,5.19-14.42,6.23-22.82,5.62-.85-.06-1.8-.38-2.48-.83-3.52-2.34-7.12-1.38-10.75-.36,4.46.45,4.85,1.03,3.16,4.49-2.67,5.46-9.33,8.05-15.8,6.25-7.27-2.02-10.58-6.9-12.61-12.81-2.02-5.86-1.8-11.86-1.71-17.86ZM344.7,89.47c-.72.72-1.75,1.4-2.01,2.37-.29,1.07,0,2.22.13,3.29.91-.39,2.15-.61,2.82-1.32.61-.64.61-1.69.86-2.46-.54-.56-1.17-1.22-1.8-1.87ZM387.06,168.66c-.87.44-2.09,1.01-2.25,1.68-.32,1.31,0,2.74.06,4.12.93-.31,1.98-.47,2.77-.95,8.14-4.89,16.73-4.47,25.44-1.55,2.83.95,5.46,2.37,8.12,3.67,1.07.52,1.59.51,1.8-.63.23-1.2.54-2.39.81-3.58.39-1.75-.56-2.79-2.28-3.43-11.6-4.33-23.13-5.05-34.47.67ZM379.55,107.75c-1.88-.54-3.96-.87-5.94-.8-3.25.11-3.63.75-3.64,4.54,0,.66.04,1.32,0,1.98-.12,1.84.9,2.54,2.96,2.57,1.75.03,3.52.24,5.24.52,1.11.18,1.63.07,1.8-.99.29-1.84.9-3.67.99-5.51.04-.78-.69-2.1-1.4-2.31ZM364.28,122.09c3.48-1.32,7.02-.84,10.5-.13,3.33.68,6.6,1.6,9.91,2.39.96.23,2.22,1.36,2.77-.25.44-1.29.39-2.84-1.55-3.28-2.82-.63-5.71-1.08-8.58-1.51-.99-.15-2.03-.02-3.66-.02-3.13-.52-6.41.71-9.67,2.02-.34.14-.51.58-.77.88.35-.03.74.01,1.05-.1ZM328.97,162.94c.46,1.8,1.41,3.6,2.57,5.15,4.43,5.92,13.57,7.1,17.72-.72-2.93.54-5.84,1.25-8.8,1.51-.91.08-2.33-.89-2.88-1.71-1.21-1.8-2.24-3.75-2.93-5.74-1.97-5.7-2.54-11.51-.48-17.29,1.6-4.49,9.63-8.24,14.69-5.12.51.32,1.15.7,1.7.67.44-.03,1.26-.77,1.18-.98-2.64-6.95-9.98-8.43-15.85-5.54-5.66,2.8-8.19,7.43-8.74,12.93-.57,5.7.4,11.3,1.82,16.83Z"/><path class="cls-11" d="M371.8,219.59c4.53-9.73,8.78-19.68,14.65-28.84,1.86-3.12,3.75-5.78,6.18-8.64,1.69-1.9,3.41-4.08,5.64-5.42,2.34-1.46,5.32-1.31,7.95-.64,4.36,1.03,8.45,2.53,10.36,6.32,10.86,22.89,22.67,45.56,30.65,69.51,2.49,6.86-1.2,8.93-5.19,2.32-3.83-5.93-7.6-11.9-11.47-17.73-1.34-2.02-3.46-3.89-2.98.03,2.49,13.32,4.93,26.7,7.18,40.07.5,3.24,1.05,6.74.39,9.95-.47,2.13-2.03,3.54-3.92,1.87-1.48-1.36-2.18-3.54-2.88-5.37-2.88-8.05-5.59-16.22-8.57-24.21-1.36-3.78-4.95-13.6-6.26-3.57-.69,6.56-1.32,13.16-2.1,19.72-.94,6.81-1.43,14.12-5.47,20-2.98,3.11-5.33-1.13-5.71-3.8-1.93-2.04-.92-64.33-6.67-41.47-1.42,5.18-2.76,10.43-4.84,15.42-1.6,3.3-2.75,7.08-5.48,9.77-1.27,1.09-2.87,1.31-4.1.45-3.08-2.52-2.54-7.24-2.51-10.75,1.1-11.63,4.85-22.95,8.03-34.2,1.15-4.21-.52-3.82-2.81-.92-2.44,3.02-4.74,6.22-7.77,8.84-3.68,3.26-6.67,1.27-6.92-2.69-.14-5.5,2.62-10.83,4.59-15.88l.06-.14Z"/><path class="cls-17" d="M367.69,150.26c.12,3.83,1.49,6.76,3.45,9.52.32.45.83.86,1.37,1.11.38.18,1.07.22,1.39.04.33-.19.62-.81.51-1.13-.29-.83-.76-1.62-1.24-2.38-2.96-4.73-3.47-9.4.34-13.99.15-.18.39-.35.41-.55.07-.59.06-1.18.08-1.78-.55.18-1.24.24-1.63.57-2.9,2.5-4.5,5.53-4.68,8.59Z"/></svg>