<?xml version="1.0" encoding="UTF-8"?><svg id="_图层_14" xmlns="http://www.w3.org/2000/svg" viewBox="0 0 631.03 676.47"><defs><style>.cls-1{fill:#319fd9;}.cls-2{fill:#fffcf5;}.cls-3{fill:#fff;}.cls-4{fill:#a8dff9;}.cls-5{fill:#fbe0e0;}.cls-6{fill:#379ed9;}.cls-7{fill:#b9e2f9;}.cls-8{fill:#2390cb;}.cls-9{fill:#f7c7c6;}.cls-10{fill:#fffefb;}</style></defs><path class="cls-3" d="M250.89,646.93c-3.27,0-6.48-.29-9.55-.87-7.03-1.32-13.57-4.42-19.42-9.21-11.37-9.31-17.25-23.84-15.36-37.9.6-4.45,1.99-8.87,4.08-12.96-8.57-5.77-16.3-12.43-23-19.84-10.08-.55-20-2.76-28.77-6.42-12.27-5.12-22.25-12.58-29.66-22.17-8.17-10.58-12.76-23.38-12.9-36.05,0-.22,0-.44,0-.65-9.57-3.37-16.99-8.49-22.63-15.61-6.77-8.53-10.05-18.54-9.25-28.17.94-11.34,6.93-21.4,16.86-28.33,6.98-4.87,14.56-7.24,21.09-8.91-2.21-1.01-4.48-2.01-6.8-3.03-3.07-1.35-6.19-2.73-9.32-4.19-11.78-5.5-24.04-12.11-33.83-23.12-7.19-8.09-11.38-16.29-12.79-25.08-1.79-11.09.47-22.15,6.38-31.13,5.73-8.73,14.08-15.02,25.53-19.25,7.42-2.74,15.59-4.13,24.28-4.13,1.2,0,2.43.03,3.65.08,18.63.83,35.77,7.4,48.62,13.03,17.26,7.57,30.61,15.07,42,23.62,5.19,3.89,10.1,8.12,14.64,12.61-.74-2.38-1.09-4.87-1.03-7.41-1.18-1.2-2.25-2.52-3.17-3.95-3.69-5.71-4.69-12.84-2.76-19.56,1.9-6.59,6.45-11.99,12.5-14.82,2.57-1.2,5.18-2.39,7.87-3.57-.13-.06-.27-.12-.4-.18-.46-.2-.89-.39-1.32-.57l-.92-.38c-.97-.39-1.95-.78-2.93-1.15-7.53-2.84-15.64-5-24.1-6.42-1.57-.27-3.12-.7-4.62-1.29-.17-.03-.34-.07-.51-.11-6.2-1.42-11.66-5.39-14.98-10.91-3.38-5.62-4.36-12.44-2.67-18.71,1.84-6.85,4.42-13.68,7.65-20.3,11.73-24.02,31.41-42.77,55.45-52.81,1.72-2.99,3.56-5.9,5.47-8.67,4.79-6.96,10.23-13.46,16.2-19.34-.74-.82-1.5-1.63-2.27-2.42-.33-.34-.67-.68-1.02-1.02-1.63,5.73-5.8,10.42-11.35,12.7-8.86,3.64-18.18,6.2-27.72,7.64-.84,2.79-2.29,5.36-4.27,7.53-6.15,6.74-13.32,12.38-21.32,16.77-4.08,2.24-8.29,3.38-12.52,3.38-6.49,0-12.58-2.79-16.71-7.66-3.44-4.03-5.18-9.18-4.95-14.6-.94-1.96-1.59-4.1-1.94-6.35-1.35-8.98,2.77-18.15,10.49-23.38,3.89-2.62,8.46-4.17,13.62-4.61.71-2.14,1.74-4.2,3.1-6.15-.16-1.19-.23-2.39-.2-3.58-12.81-1.27-19.59-9.59-21.7-17.43-.83-3.04-2.05-10.73,3.48-18.7-.54-4.08.09-7.55.78-9.83,2.88-9.59,11.41-16.81,21.72-18.41,1.5-.23,3.03-.35,4.55-.35,4.43,0,8.9.94,13.66,2.88,9.57,3.91,16.81,10.11,22.67,15.91,1.58-.33,3.17-.49,4.76-.49,2.18,0,4.34.3,6.42.89,5.49,1.55,11.12,3.61,16.75,6.13,11.03,4.95,21.15,11.54,30.21,19.68-.76-2.68-1.63-5.35-2.58-8.02-.31-.72-.59-1.46-.83-2.19-1.99-6.16-1.31-13,1.89-18.77,3.22-5.82,8.7-10.07,15.04-11.67,7.89-1.99,15.97-3.16,24.02-3.48,1.47-.06,2.93-.09,4.37-.09,21.51,0,43.07,6.53,60.71,18.4,7.02,4.72,13.5,10.06,19.26,15.85,3.01,3.04,5.83,6.34,8.59,10.09,8.98,3.28,17.71,7.25,25.97,11.83,10.2,5.65,18.19,10.71,25.15,15.91,1.07.8,2.13,1.62,3.17,2.45,6.56-9.68,13.67-19.2,21.16-28.33,4.4-5.36,10.96-8.44,18.02-8.44,6.1,0,12.15,2.35,16.61,6.44,1.65,1.51,3.05,3.23,4.2,5.13,3.95.97,7.59,2.92,10.64,5.72,2.41,2.21,4.34,4.94,5.65,7.98,4.33,1.94,8.06,5.12,10.62,9.07,6.97,10.8,3.78,25.56-7.1,32.9-3.93,2.64-7.79,5.36-11.48,8.08-1.74,1.28-3.56,2.65-5.41,4.07-.54.41-1.2.92-2.09,1.62-.89.7-1.78,1.4-2.66,2.11-3.6,2.89-7.18,5.88-10.64,8.9-2.54,2.22-5.12,4.55-7.7,6.95,2.34,9.54,3.6,19.55,3.75,29.79.1,6.12-.31,12.27-1.21,18.3,3.37,3.24,7.25,7,10.94,10.99,12.49,13.5,22.53,29.81,29.02,47.15,7.34,19.61,9.87,40.94,7.31,61.71-.46,3.69-1.63,7.11-3.5,10.16-.1,1.57-.27,3.21-.5,4.88-1.94,13.77-8.77,25.37-14.5,33.94-4.28,6.4-8.78,12.59-13.13,18.57l-.17.23c-1.64,2.25-3.27,4.5-4.89,6.76l-37.02,51.56-5.97,8.33c-4.1,5.72-8.2,11.45-12.33,17.15-5.63,7.79-12.32,16.76-20.54,24.62-13.55,12.97-31.36,22.9-52.92,29.52-13.72,4.21-28.29,7.04-45.79,8.88-10.54,7.51-21.24,14.32-31.81,20.27-7.33,4.12-14.68,7.87-21.85,11.14-3.5,1.6-6.33,2.75-9.17,3.74-11.62,4.05-24.6,6.95-38.56,8.64-2.62.32-5.08.47-7.52.47ZM254.72,391.19c.45.33.89.65,1.33.96.53.37,1.07.73,1.61,1.09.65-.23,1.29-.45,1.93-.68,1.33-.48,2.67-.99,3.97-1.51.37-.15,1.44-.59,1.44-.59l.08-.04c.53-.23,1.01-.44,1.49-.65,2.59-1.17,4.87-2.34,6.97-3.57,1.05-.62,2-1.22,2.9-1.83.47-.32.93-.65,1.37-.98l.44-.35c1.25-1.03,2.43-2.18,3.47-3.41l.13-.19c.16-.23.32-.47.46-.71.16-.26.3-.52.43-.77.06-.12.11-.23.16-.33l.08-.17c.22-.49.46-.97.71-1.43.18-.35.37-.7.57-1.04-3.87,3.15-7.68,6.4-11.53,9.85-4.5,4.02-10.25,6.23-16.2,6.23-.7,0-1.4-.03-2.09-.09l.28.21Z"/><path class="cls-6" d="M202.19,86.1c3.97,0,8.01.86,12.34,2.62,9.58,3.92,16.89,10.43,22.91,16.55,1.86-.55,3.82-.87,5.84-.87,1.86,0,3.7.25,5.47.75,5.32,1.5,10.8,3.51,16.27,5.96,14.26,6.39,27.13,15.81,37.81,27.54-.14-.76-.28-1.52-.43-2.29-1.19-5.98-2.9-12.06-5.06-18.08-.29-.65-.54-1.31-.75-1.97-1.7-5.24-1.11-11.08,1.62-16,2.75-4.98,7.43-8.61,12.84-9.97,7.66-1.93,15.5-3.06,23.31-3.38,1.4-.06,2.82-.08,4.23-.08,20.82,0,41.69,6.32,58.75,17.8,6.83,4.59,13.13,9.78,18.73,15.42,3.1,3.12,6.03,6.6,8.88,10.55,9.17,3.28,18.05,7.3,26.47,11.96,10.06,5.58,17.92,10.55,24.76,15.65,2.08,1.55,4.09,3.15,6.03,4.79,7.1-10.71,14.83-21.17,23.11-31.27,3.73-4.55,9.31-7.16,15.32-7.16,5.23,0,10.42,2.01,14.24,5.52,1.8,1.65,3.23,3.57,4.28,5.66,3.9.66,7.57,2.45,10.56,5.2,2.41,2.21,4.22,5,5.31,8.07,4.2,1.56,7.9,4.45,10.38,8.3,5.94,9.22,3.2,21.82-6.12,28.1-3.98,2.68-7.88,5.42-11.6,8.16-1.8,1.33-3.64,2.71-5.47,4.11-.55.42-1.22.94-2.12,1.65-.9.71-1.8,1.42-2.69,2.14-3.63,2.91-7.24,5.93-10.75,8.99-3.09,2.7-6.2,5.52-9.3,8.45,2.6,9.89,4,20.27,4.16,30.98.11,6.56-.38,13.09-1.45,19.5.29.28,1.12,1.07,1.12,1.07,3.38,3.24,7.29,7.04,11,11.04,12.19,13.17,21.98,29.08,28.31,46,7.14,19.08,9.6,39.84,7.12,60.05-.44,3.54-1.65,6.76-3.47,9.48-.08,1.76-.25,3.59-.52,5.5-1.84,13.06-8.42,24.22-13.94,32.48-4.25,6.36-8.74,12.53-13.08,18.49-1.69,2.32-3.38,4.65-5.05,6.98l-37.02,51.56-5.97,8.33c-4.1,5.72-8.2,11.44-12.32,17.14-5.54,7.66-12.12,16.48-20.12,24.15-13.15,12.59-30.49,22.25-51.53,28.71-13.67,4.19-28.4,7.03-46.04,8.84-10.68,7.65-21.52,14.58-32.25,20.61-7.23,4.07-14.5,7.77-21.59,11.01-3.4,1.55-6.13,2.66-8.87,3.62-11.39,3.96-24.12,6.82-37.83,8.48-2.48.3-4.8.45-7.1.45-3.05,0-6.05-.27-8.91-.81-6.45-1.21-12.45-4.06-17.85-8.48-10.43-8.55-15.84-21.86-14.11-34.73.7-5.21,2.54-10.17,5.26-14.56-9.72-6.19-18.31-13.46-25.69-21.75-.11-.13-.22-.25-.34-.38-10.21-.39-20.18-2.52-29.05-6.22-11.7-4.88-21.2-11.98-28.24-21.08-7.71-9.98-12.04-22.04-12.17-33.95-.01-1.04,0-2.09.06-3.12-8.72-2.69-17.05-7.2-23.45-15.27-6.21-7.83-9.23-16.96-8.51-25.7.85-10.28,6.31-19.43,15.38-25.75,6.61-4.61,13.92-6.86,20.21-8.45,3.07-.78,6.26-1.44,9.52-1.99-4.99-2.7-10.38-5.08-16.03-7.57-3.02-1.33-6.14-2.71-9.25-4.16-11.44-5.34-23.33-11.74-32.7-22.28-6.73-7.58-10.65-15.2-11.95-23.32-1.65-10.23.43-20.4,5.85-28.65,5.31-8.08,13.1-13.93,23.81-17.89,7.03-2.6,14.79-3.91,23.06-3.91,1.15,0,2.33.03,3.49.08,18.06.81,34.8,7.23,47.37,12.74,17.01,7.45,30.13,14.83,41.31,23.21,6.48,4.86,12.5,10.25,17.9,16.02,3.27,3.49,6.3,7.05,9.22,10.5,1.93,2.27,3.76,4.42,5.62,6.52,4.31,4.85,7.79,8.26,11.26,11.04.22.17.44.34.67.5.47.35.93.68,1.4,1.01.86.6,1.74,1.19,2.63,1.75.17.11.34.22.52.32,1.22-.41,2.4-.82,3.58-1.25,1.38-.5,2.75-1.02,4.08-1.55.38-.15,1.37-.56,1.37-.56l.15-.06c.59-.26,1.12-.48,1.64-.72,2.7-1.22,5.09-2.45,7.3-3.74,1.12-.66,2.14-1.3,3.1-1.96.51-.35,1-.7,1.48-1.05l.12-.09.42-.33c1.49-1.22,2.85-2.56,4.06-4,.08-.11.16-.22.24-.34.21-.3.4-.6.59-.91.2-.33.38-.66.55-.98.08-.16.15-.3.21-.44l.09-.2c.19-.42.39-.82.6-1.2,1.33-2.55,3.07-4.73,5.13-6.49-1.58-.98-3.12-2.01-4.63-3.09-5.71,4.46-11.29,9.13-16.87,14.11-3.86,3.45-8.78,5.34-13.86,5.34s-10.12-1.95-13.98-5.49c-3.67-3.37-5.94-8.05-6.4-13.08-2.3-1.56-4.31-3.58-5.85-5.96-2.49-3.86-3.46-8.31-3.06-12.64-1.45-1.27-2.73-2.75-3.81-4.42-3.14-4.86-3.99-10.95-2.34-16.7,1.62-5.62,5.49-10.22,10.62-12.62,4.71-2.21,9.57-4.35,14.82-6.56-.02,0-.04-.02-.06-.03-.45-.23-.9-.47-1.35-.69-2-1.01-4.02-1.96-6.03-2.84-.46-.21-.91-.4-1.36-.59l-.96-.39c-1.01-.41-2.02-.8-3.03-1.19-7.74-2.92-16.07-5.13-24.75-6.59-1.44-.24-2.85-.65-4.19-1.21-.25-.05-.5-.1-.74-.15-5.27-1.2-9.92-4.59-12.75-9.3-2.9-4.81-3.73-10.64-2.29-15.99,1.79-6.64,4.28-13.26,7.41-19.68,11.38-23.31,30.49-41.48,53.81-51.18.31-.13.61-.25.92-.36,1.85-3.29,3.83-6.46,5.92-9.5,5.34-7.76,11.44-14.83,18.12-21.09-.27-.33-.54-.67-.82-1-1.19-1.4-2.46-2.78-3.76-4.1-2.01-2.04-4.16-3.99-6.39-5.81.21,1.73.14,3.51-.24,5.27-1.11,5.16-4.69,9.44-9.57,11.44-9.4,3.86-19.22,6.44-29.26,7.74-.48,3.06-1.84,5.95-3.98,8.3-5.89,6.45-12.76,11.86-20.42,16.06-3.55,1.95-7.2,2.95-10.84,2.95h0c-5.46,0-10.58-2.34-14.05-6.42-3.12-3.65-4.49-8.23-4.06-13.06-1.12-2.07-1.73-4.19-2.03-6.15-1.15-7.65,2.38-15.48,8.99-19.96,3.62-2.45,7.97-3.82,12.93-4.09.49-.03.97-.03,1.46-.04.52-2.66,1.7-5.64,4.07-8.65-.62-3.02-.44-5.71-.03-7.82-.15,0-.28.01-.43.01h0c-13.07,0-19.8-7.75-21.75-15-.81-2.98-1.74-9.86,3.8-16.91-.82-4.02-.24-7.45.43-9.71,2.5-8.31,9.91-14.56,18.9-15.95,1.32-.2,2.67-.3,4.01-.3M202.19,79.1c-1.7,0-3.41.13-5.08.39-11.64,1.8-21.27,9.99-24.54,20.86-.71,2.38-1.38,5.85-1.04,9.96-5.52,8.77-4.16,17.12-3.24,20.51,2.13,7.92,8.95,16.99,21.48,19.49-.7,1.14-1.3,2.31-1.82,3.51-4.87.71-9.25,2.37-13.06,4.94-8.84,5.99-13.55,16.51-12,26.8.35,2.31.98,4.5,1.88,6.55-.06,5.99,1.97,11.66,5.82,16.16,4.79,5.64,11.85,8.88,19.37,8.88,4.83,0,9.61-1.28,14.21-3.81,8.33-4.57,15.8-10.45,22.21-17.48,1.82-2,3.27-4.28,4.28-6.76,7.95-1.33,15.74-3.43,23.24-6.26-.87,1.18-1.73,2.38-2.56,3.59-1.74,2.53-3.43,5.17-5.02,7.89-24.32,10.47-44.23,29.62-56.15,54.04-3.33,6.82-5.98,13.86-7.88,20.93-1.93,7.18-.82,14.99,3.05,21.42,3.81,6.33,10.07,10.89,17.19,12.51.1.02.19.04.29.06,1.63.63,3.32,1.09,5.04,1.38,7.45,1.25,14.6,3.08,21.3,5.46-.13.06-.27.12-.4.19-6.96,3.26-12.2,9.46-14.38,17.03-1.88,6.52-1.33,13.4,1.47,19.34-1.21-.97-2.44-1.92-3.69-2.86-11.62-8.71-25.19-16.35-42.7-24.02-13.13-5.75-30.66-12.47-49.87-13.32-1.27-.06-2.55-.09-3.8-.09-9.11,0-17.68,1.46-25.49,4.35-12.17,4.5-21.08,11.24-27.24,20.61-6.38,9.71-8.84,21.65-6.91,33.61,1.53,9.47,5.99,18.25,13.63,26.85,10.21,11.49,22.84,18.31,34.97,23.97,2.56,1.19,5.1,2.33,7.58,3.42-4.32,1.57-8.79,3.67-13.08,6.66-10.8,7.54-17.32,18.52-18.35,30.91-.87,10.52,2.68,21.4,10,30.63,5.6,7.07,12.81,12.3,21.93,15.88.54,12.84,5.33,25.7,13.59,36.4,7.79,10.08,18.25,17.91,31.09,23.26,8.71,3.64,18.5,5.9,28.49,6.59,6.01,6.48,12.78,12.39,20.21,17.64-1.55,3.63-2.61,7.45-3.12,11.29-2.05,15.26,4.32,31,16.61,41.07,6.32,5.17,13.38,8.52,21,9.95,3.28.62,6.72.93,10.2.93,2.58,0,5.18-.16,7.94-.5,14.21-1.72,27.42-4.69,39.28-8.81,2.95-1.03,5.87-2.21,9.47-3.86,7.27-3.32,14.71-7.11,22.11-11.27,10.43-5.87,20.98-12.57,31.38-19.94,17.32-1.87,31.84-4.71,45.53-8.92,22.09-6.78,40.37-16.99,54.32-30.34,8.43-8.07,15.24-17.19,20.96-25.1,4-5.54,7.96-11.05,12.34-17.17l5.97-8.33,37.02-51.56c1.61-2.25,3.24-4.49,4.87-6.73l.16-.21c4.4-6.05,8.91-12.26,13.23-18.72,5.94-8.88,13.02-20.93,15.06-35.4.21-1.46.36-2.91.47-4.31,1.85-3.27,3.07-6.97,3.54-10.8,2.62-21.32.03-43.23-7.51-63.36-6.65-17.76-16.93-34.46-29.73-48.29-3.29-3.56-6.71-6.92-9.8-9.9.75-5.64,1.08-11.37.99-17.07-.15-9.78-1.28-19.36-3.38-28.55,2.05-1.89,4.1-3.73,6.13-5.5,3.42-2.99,6.96-5.95,10.52-8.8.88-.71,1.76-1.4,2.64-2.09.88-.69,1.53-1.19,2.06-1.6,1.82-1.4,3.62-2.75,5.35-4.02,3.66-2.69,7.48-5.38,11.36-7.99,12.45-8.39,16.08-25.3,8.09-37.7-2.68-4.15-6.48-7.55-10.91-9.79-1.47-3-3.49-5.7-5.93-7.94-3.12-2.87-6.8-4.96-10.79-6.16-1.16-1.71-2.51-3.28-4.05-4.69-5.09-4.68-12.01-7.36-18.98-7.36-8.11,0-15.66,3.54-20.73,9.72-6.77,8.25-13.22,16.81-19.25,25.52-.09-.07-.19-.14-.28-.21-7.09-5.3-15.21-10.44-25.55-16.17-8.12-4.5-16.68-8.43-25.48-11.69-2.66-3.54-5.39-6.7-8.3-9.63-5.92-5.96-12.58-11.44-19.79-16.29-18.21-12.25-40.46-18.99-62.66-18.99-1.48,0-2.99.03-4.5.09-8.3.33-16.62,1.54-24.74,3.58-7.28,1.83-13.57,6.71-17.25,13.37-3.47,6.27-4.36,13.65-2.49,20.43-6.78-4.96-14.03-9.18-21.71-12.63-5.79-2.59-11.59-4.72-17.24-6.31-2.39-.67-4.87-1.02-7.37-1.02-1.19,0-2.39.08-3.58.24-5.68-5.48-13.09-11.56-22.51-15.41-5.19-2.12-10.09-3.14-14.99-3.14h0Z"/><path class="cls-7" d="M288.16,430.47c-25-6.3-44.18-13.54-60.1-31.46-6.84-7.35-12.66-15.18-20.03-22.52-8.75-8.89-19.31-16.1-30.88-22.31-10.49-5.67-22-11.08-33.31-14.98-16.73-5.65-35.38-8.58-50.85.52-10.44,6.46-12.7,18.59-6.94,28.14,12.22,19.78,41.4,25.71,61.51,38.05,14.96,8.78,25.87,20.38,37.56,33.05"/><path class="cls-6" d="M289.35,426.13c-6.16-1.56-12.3-3.24-18.33-5.26-2.82-.95-5.61-1.97-8.37-3.09-.34-.14-.67-.28-1.01-.42,1.02.43-.1-.05-.26-.12-.55-.24-1.1-.48-1.65-.73-1.41-.64-2.82-1.31-4.2-2.01-2.53-1.29-5.01-2.69-7.41-4.2-1.1-.7-2.19-1.42-3.25-2.17-.58-.41-1.16-.83-1.74-1.25-.29-.21-.57-.43-.86-.64-.96-.73.72.58-.23-.18-4.87-3.89-9.16-8.31-13.29-12.96-4.91-5.52-9.51-11.32-14.57-16.71-4.86-5.19-10.14-9.88-15.83-14.15-11.64-8.73-24.84-15.53-38.13-21.36-13.2-5.78-27.13-10.76-41.66-11.41-6.82-.3-13.87.48-20.3,2.86-6.4,2.36-12.18,5.87-15.99,11.67-3.36,5.12-4.39,11.33-3.42,17.32.94,5.83,4.26,10.89,8.12,15.23,7.4,8.32,17.55,13.76,27.51,18.41,10.12,4.72,20.65,8.73,30.24,14.5,2.91,1.75,5.78,3.56,8.55,5.54.69.5,1.37,1,2.05,1.51.05.03,1.15.88.43.32.33.26.67.52,1,.78,1.32,1.04,2.61,2.12,3.89,3.21,5.11,4.4,9.88,9.17,14.52,14.06,2.28,2.4,4.53,4.84,6.78,7.27,1.6,1.73,4.77,1.74,6.36,0,1.7-1.86,1.71-4.51,0-6.36-9.18-9.95-18.51-19.77-29.46-27.81-9.36-6.88-19.73-11.82-30.3-16.5-10.01-4.44-20.12-8.86-28.95-15.44-.56-.42.84.68-.01-.01-.26-.21-.52-.42-.78-.63-.51-.42-1.02-.85-1.51-1.29-.98-.87-1.93-1.78-2.84-2.73-.83-.86-1.62-1.76-2.37-2.69-.14-.17-.8-1.06-.1-.12-.19-.26-.39-.52-.58-.79-.38-.53-.75-1.07-1.1-1.62s-.71-1.15-1.02-1.75c-.16-.31-.82-1.8-.4-.76-.53-1.32-.95-2.69-1.22-4.09-.03-.14-.14-.53-.11-.64l.07.56c-.03-.21-.05-.43-.07-.64-.06-.64-.09-1.28-.08-1.92,0-.53.03-1.06.07-1.59l.03-.32c.06-.51.04-.42-.04.25-.08-.32.16-.94.23-1.25.13-.57.28-1.14.46-1.7.08-.26.17-.51.26-.76.1-.27.28-1.23.03-.12.27-1.17,1.25-2.45,1.94-3.43.12-.18.84-1.02.11-.16.22-.26.44-.52.66-.78.39-.43.79-.85,1.21-1.25.26-.24.52-.48.79-.71.13-.11,1.07-.85.21-.2.71-.54,1.45-1.03,2.22-1.48,1.34-.78,2.74-1.48,4.17-2.08-.88.37.4-.14.47-.17.26-.1.52-.19.78-.29.91-.33,1.83-.62,2.76-.88,1.45-.41,2.93-.74,4.41-1,.41-.07.81-.13,1.22-.2-1.03.16.32-.04.44-.05.82-.09,1.64-.16,2.46-.22,3.33-.21,6.67-.11,9.99.23.7.07,1.4.15,2.09.24-1.01-.13.38.06.48.08.42.06.84.13,1.26.2,1.68.28,3.35.62,5.01,1,6.8,1.55,13.41,3.82,19.87,6.43,6.03,2.43,12.96,5.69,19.29,8.97s12.36,6.66,18.19,10.58c5.63,3.79,10.05,7.26,15.13,12.23,5.07,4.97,9.64,10.38,14.24,15.78,4.24,4.98,8.52,9.99,13.36,14.4,4.35,3.96,9.11,7.51,14.16,10.53,10.07,6.03,21.25,10.03,32.5,13.22,3.01.85,6.03,1.65,9.06,2.41,2.28.58,4.99-.74,5.54-3.14s-.7-4.92-3.14-5.54h0Z"/><path class="cls-7" d="M491.41,286.27c2.17-9.28,2.46-11.83,3.47-16.86.54-2.7.88-5.4,1.2-8.13.02-.18.04-.34.06-.47,0-.05,0-.1,0-.16,0-.63.02-1.27.02-1.9-.05-.14-.11-.27-.15-.41-.15-.48-.28-.97-.42-1.45-4.26,19.77-15.71,38.55-32.63,52.55-22.96,19-55.54,28.84-86.62,26.16,2.56-9.82,5.13-20,2.85-29.77-2.29-9.77-10.84-19.05-22.32-19.79-15.43-1-19.96,11.75-26.56,20.72-8.71,11.83-13.08,24.91-15.8,38.56-2.15,10.77-3.56,21.64-6.49,32.3-2.26,8.23-5.37,20.12-12.7,26.31-.31.26-.58.48-.91.7-14.7,9.64-38.27,13.24-57.56,17.6-12.77,2.88-22.91,6.35-29.6,8.63-7.33,2.5-21.86,7.57-37.73,9.85-.46.07-.86.11-1.24.16-18.29,2.11-21.06-1.87-35.96,1.59-7.87,1.83-24.79,5.69-27.25,15.52-2.25,8.97,5.38,17.81,14.9,21.48,9.52,3.67,20.45,3.41,30.96,3.09-8.47,9.08-10.35,22.37-4.61,32.66,6.79,12.18,18.84,18.42,27.63,22.12,19.09,8.04,45.42,21.19,78.87,44.09-.22,1.08-.71,2.72-1.94,4.21-3.16,3.82-7.83,2.61-12.31,4.55-6.44,2.78-11.55,11.63-9.9,18.78,1.76,7.65,10.37,11.02,13.2,12.13,6.8,2.66,13.18,2.25,26.52-.6,23.91-5.1,35.87-7.65,48.87-15.85,7.75-4.89,8.79-7.14,20.68-14.53,8.75-5.43,16.33-9.27,21.5-11.71,14.36-.64,33.47-3.53,53.76-12.81,8.94-4.09,21.49-10.06,33.88-22.04,13.9-13.44,15.03-22.66,28.48-44.1,13.52-21.55,18.81-22.48,33.27-42.21,24.76-33.78,39.34-53.67,37.23-76.06-3.72-39.35-58.32-79.05-54.62-94.92Z"/><path class="cls-7" d="M268.81,297.3c-19.95-6.52-39.9-13.04-59.85-19.57,2.11-7.81,6.89-21.45,18.19-34.88,13.32-15.83,28.71-23.08,36.48-26.12,6.57-12.59,14.11-21.08,19.6-26.35,9.8-9.41,19.93-15.15,29.89-20.84,5.73-3.27,10.71-5.75,14.39-7.48-1.34-8.78-2.87-17.8-4.6-27.05-1.63-8.7-3.37-17.14-5.18-25.32,8.45-2,22.06-3.95,37.98-.58,33.18,7.04,51.29,31.9,55.82,38.56,42.27,7.56,76.03,38.4,85.68,78.26,10.86,44.84-11.31,86.56-36.35,104.93-26.16,19.2-59.81,24.15-91.98,28.38-38.44,5.06-51.26.5-56.86-2.13-27.15-12.72-37.33-41.79-40.34-51.75-.96-2.69-1.92-5.37-2.88-8.06Z"/><path class="cls-10" d="M271.11,300.75c18.05-8.2,56.17-28.74,81.15-71.94,8.95-15.48,14.17-30.35,17.31-42.79,30.26,19.11,67.78,26.84,103.32,21.29,5.55-.87,11.68-1.94,16.44,1,5.24,3.23,6.66,9.97,7.62,15.96,4.38,27.59,5.69,41.51,1.41,57.49-10.63,39.69-43.1,60.13-51.13,65.03-23.36,14.22-44.39,15.64-77.12,17.84-31.02,2.09-45.48-2.75-52.49-5.59-14.32-5.8-24.42-14.19-30.62-20.28"/><path class="cls-2" d="M330.04,182.37c-7.59-2.33-15.22-4.55-22.78-7-2.99-.97-6.68,1.13-7.38,4.19-.75,3.29.99,6.35,4.19,7.38,7.56,2.45,15.18,4.67,22.78,7,3,.92,6.68-1.09,7.38-4.19.74-3.25-.98-6.39-4.19-7.38h0Z"/><path class="cls-2" d="M350.11,172c-5.25-3.21-10.49-6.42-15.74-9.64-2.68-1.64-6.72-.67-8.21,2.15-1.55,2.92-.71,6.46,2.15,8.21,5.25,3.21,10.49,6.42,15.74,9.64,2.68,1.64,6.72.67,8.21-2.15,1.55-2.93.71-6.46-2.15-8.21h0Z"/><path class="cls-2" d="M369.68,162.42c-2.08-2.49-4.15-4.98-6.23-7.48-.54-.59-1.19-1-1.93-1.24-.72-.38-1.49-.55-2.31-.52-.83-.03-1.6.14-2.31.52-.74.24-1.39.66-1.93,1.24-1.05,1.14-1.83,2.64-1.76,4.24.07.53.14,1.06.21,1.6.29,1.02.8,1.9,1.54,2.65,2.08,2.49,4.15,4.98,6.23,7.48.54.59,1.19,1,1.93,1.24.72.38,1.49.55,2.31.52.83.03,1.6-.14,2.31-.52.74-.24,1.39-.66,1.93-1.24,1.05-1.14,1.83-2.64,1.76-4.24l-.21-1.6c-.29-1.02-.8-1.9-1.54-2.65h0Z"/><path class="cls-6" d="M281.5,589.91c16.94,1.42,34.09.07,50.63-3.87,2.29-.55,3.87-3.28,3.14-5.54-.77-2.39-3.08-3.73-5.54-3.14-8.26,1.97-15.47,3.09-23.61,3.69-8.2.6-16.44.54-24.63-.15-2.35-.2-4.6,2.21-4.5,4.5.12,2.61,1.98,4.29,4.5,4.5h0Z"/><path class="cls-1" d="M267.95,222.08c2.45-5.49,5.31-10.78,8.6-15.81,1.55-2.37,3.18-4.68,4.91-6.92-.62.81.16-.2.24-.3.24-.3.48-.6.72-.9.4-.49.8-.99,1.21-1.47.98-1.17,1.98-2.31,3-3.44,3.79-4.16,7.91-8.02,12.32-11.51.12-.09,1.1-.85.26-.21.29-.23.59-.45.88-.67.49-.37.99-.73,1.49-1.1,1.19-.86,2.4-1.7,3.63-2.5,2.34-1.53,4.74-2.97,7.21-4.29,1.28-.68,2.57-1.34,3.87-1.96.76-.36,1.52-.71,2.29-1.05.27-.12.55-.24.82-.36.3-.13.22-.1-.25.1.22-.09.44-.18.66-.27,2.87-1.17,5.8-2.19,8.78-3.05,2.26-.65,3.9-3.2,3.14-5.54-.74-2.3-3.11-3.84-5.54-3.14-22.97,6.64-42.47,22.25-55.93,41.79-3.92,5.69-7.29,11.75-10.11,18.06-.96,2.14-.69,4.94,1.61,6.16,1.96,1.04,5.13.68,6.16-1.61h0Z"/><path class="cls-1" d="M211.67,281.99c9.46,1.59,18.76,4.02,27.74,7.4,1.14.43,2.28.87,3.41,1.33.28.12.57.23.85.35.5.21.57.24.2.08.57.24,1.13.49,1.7.74,2.29,1.01,4.54,2.07,6.77,3.2,2.42,1.22,4.76,2.59,7.37,3.38,2.09.63,4.27.88,6.42,1.26,2.31.41,4.96-.62,5.54-3.14.5-2.19-.66-5.09-3.14-5.54-2.15-.38-4.32-.63-6.42-1.26-.15-.04-1.67-.6-.99-.31-.58-.24-1.13-.56-1.69-.85-1.12-.59-2.25-1.17-3.38-1.73-4.63-2.3-9.4-4.36-14.24-6.18-8.98-3.38-18.28-5.81-27.74-7.4-2.31-.39-4.96.61-5.54,3.14-.5,2.18.66,5.12,3.14,5.54h0Z"/><path class="cls-1" d="M213.17,277.66c.64-2.36,1.36-4.7,2.19-7.01.4-1.12.83-2.23,1.28-3.33.08-.21.43-1.02.08-.2.1-.24.21-.48.31-.73.26-.6.53-1.2.81-1.8,2.04-4.4,4.45-8.64,7.18-12.65.62-.92,1.27-1.82,1.93-2.72.35-.47.7-.94,1.06-1.41-.51.66-.09.11.02-.02.24-.3.49-.61.73-.92,1.51-1.87,3.1-3.67,4.76-5.41,1.65-1.73,3.38-3.39,5.17-4.98.87-.77,1.75-1.52,2.65-2.25.4-.33.8-.64,1.21-.96.97-.77-.45.33.16-.12.26-.19.51-.39.77-.58,2.43-1.8,4.95-3.46,7.56-4.97,1.29-.75,2.61-1.46,3.95-2.13.67-.33,1.34-.66,2.02-.97.34-.16.68-.31,1.02-.46.15-.06,1.48-.63.78-.34,2.16-.9,3.96-3.02,3.14-5.54-.67-2.08-3.21-4.11-5.54-3.14-19.88,8.27-36.14,24.11-45.57,43.43-2.63,5.39-4.78,11.02-6.34,16.82-.61,2.27.76,4.99,3.14,5.54s4.88-.71,5.54-3.14h0Z"/><path class="cls-1" d="M312.12,112.13c2.51,6.88,4.53,13.93,5.96,21.11.34,1.72.65,3.45.93,5.19.07.47.14.94.21,1.41.05.37.15,1.15.05.32.11.87.22,1.74.32,2.61.35,3.12.63,6.24,1.07,9.35.52,3.76,1.37,7.46,2.42,11.11.65,2.26,3.21,3.9,5.54,3.14,2.3-.75,3.83-3.11,3.14-5.54-.94-3.3-1.74-6.63-2.26-10.02-.05-.33-.19-.76-.16-1.09,0-.01.12.95.06.43-.02-.15-.04-.3-.06-.45-.09-.7-.16-1.4-.24-2.1-.15-1.45-.29-2.89-.45-4.34-.75-6.89-1.97-13.71-3.73-20.42-1.16-4.43-2.54-8.8-4.11-13.1-.8-2.21-3.09-3.93-5.54-3.14-2.17.7-4.01,3.17-3.14,5.54h0Z"/><path class="cls-1" d="M317.34,114.54c2.45-.62,4.92-1.14,7.4-1.56.71-.12,1.42-.23,2.12-.33.18-.03.37-.05.55-.08.65-.09-1.2.15-.21.03.44-.05.87-.11,1.31-.16,1.76-.2,3.53-.34,5.31-.44,4.1-.22,8.22-.16,12.31.2,1.04.09,2.07.2,3.1.32.88.1.16.02-.01,0,.27.04.53.07.8.11.67.1,1.34.21,2.01.32,2.36.4,4.71.91,7.03,1.52,2.46.64,4.89,1.39,7.28,2.26,2.75.99,4.31,1.65,6.83,2.86,4.43,2.13,8.65,4.66,12.66,7.5.83.59,1.66,1.19,2.47,1.81.11.08.74.56.28.21-.54-.41.4.31.4.32.41.33.83.66,1.24.99,1.4,1.13,2.76,2.3,4.1,3.5,1.79,1.61,3.53,3.27,5.18,5.01.27.28.53.56.79.85.64.71,1.25,1.45,1.85,2.18.38.47.76.94,1.13,1.41.56.71.21.28.09.12.25.33.51.67.75,1.01,1.22,1.66,2.39,3.36,3.49,5.1.99,1.56,2.12,2.3,3.85,2.85.88.28,1.75.56,2.62.86,1.82.61,3.64,1.26,5.44,1.94.98.37,1.96.75,2.94,1.15.48.19.95.39,1.43.58.24.1.48.2.73.3.48.2-.57-.25.21.09,4.65,2.03,9.21,4.22,13.66,6.66,7.37,4.04,14.67,8.43,21.51,13.32.79.56,1.57,1.14,2.35,1.72.21.16,1.31,1.01.55.41.49.38.97.76,1.45,1.15,1.66,1.34,3.29,2.74,4.86,4.19,3.32,3.07,6.37,6.38,9.19,9.92.83,1.04-.28-.4.19.25.17.23.34.45.51.67.34.45.67.91,1,1.37.75,1.06,1.48,2.14,2.19,3.23,1.42,2.21,2.74,4.48,3.96,6.81.6,1.16,1.18,2.33,1.74,3.51.26.55.51,1.1.75,1.65.12.27.24.55.36.82l.18.41c-.14-.32-.14-.34-.02-.05.95,2.35,1.83,4.73,2.6,7.15,1.39,4.36,2.46,8.81,3.24,13.31.17.98.33,1.97.47,2.96.03.24.07.49.1.73-.14-.99-.04-.33-.02-.11.07.59.15,1.18.21,1.77.21,1.91.37,3.82.48,5.74.1,1.74.16,3.48.19,5.22.03,2.35,2.04,4.61,4.5,4.5s4.54-1.98,4.5-4.5c-.3-20.3-5.7-40.82-17.53-57.53-5.93-8.38-13.18-15.45-21.38-21.58-7.22-5.4-15.05-10.11-22.94-14.48-9.72-5.39-20.02-9.79-30.63-13.09l2.69,2.07c-3.17-5.07-6.79-9.96-11.01-14.21-4.96-4.99-10.47-9.49-16.3-13.41-15.66-10.53-34.57-15.76-53.41-15-6.75.27-13.5,1.26-20.04,2.9-2.28.57-3.88,3.26-3.14,5.54s3.09,3.76,5.54,3.14h0Z"/><path class="cls-1" d="M337.49,368.35c10.29.09,20.34-1.98,29.79-6.04,2.17-.93,2.82-4.29,1.61-6.16-1.45-2.25-3.83-2.61-6.16-1.61.36-.15.3-.12-.21.09-.29.12-.57.23-.86.34-.58.23-1.15.44-1.74.65-1.02.36-2.04.7-3.08,1.02-2.14.65-4.32,1.19-6.51,1.62-1.14.22-2.28.41-3.42.58.81-.12-.63.07-.64.08-.61.07-1.23.13-1.84.19-2.31.2-4.63.28-6.94.26-2.35-.02-4.61,2.09-4.5,4.5.11,2.46,1.98,4.48,4.5,4.5h0Z"/><path class="cls-1" d="M266.45,300.81c.86,13.24,5.39,26.19,13.05,37.04,8.19,11.6,19.35,20.5,32.59,25.66,8.06,3.14,16.76,4.7,25.4,4.83,2.35.04,4.61-2.1,4.5-4.5s-1.98-4.46-4.5-4.5c-1.77-.03-3.54-.11-5.31-.27-.88-.08-1.76-.17-2.64-.28.95.12-.5-.08-.56-.08-.44-.07-.87-.14-1.31-.21-3.49-.6-6.93-1.47-10.28-2.6-5.82-1.97-11.64-5.09-17.15-9.12-1.02-.75.69.57-.29-.22-.3-.24-.59-.47-.89-.71-.59-.48-1.17-.97-1.74-1.47-1.14-1-2.25-2.04-3.32-3.12-1.07-1.08-2.11-2.19-3.1-3.33-.42-.48-.82-.96-1.23-1.45-.24-.29-.48-.59-.72-.89-.16-.2-.31-.4-.47-.6.32.41.32.41.01,0-1.8-2.46-3.49-4.97-4.99-7.62-.69-1.21-1.33-2.45-1.95-3.7-.33-.68-.66-1.37-.97-2.06-.16-.35-.31-.69-.46-1.04.43.99-.2-.51-.27-.68-1.26-3.17-2.28-6.44-3.05-9.77-.37-1.6-.68-3.22-.93-4.84-.03-.17-.19-1.43-.05-.31-.06-.5-.12-1-.18-1.51-.09-.88-.16-1.77-.22-2.65-.15-2.34-1.96-4.61-4.5-4.5-2.31.1-4.66,1.98-4.5,4.5h0Z"/><path class="cls-1" d="M496.49,250.19c.05,3.05-.04,6.1-.29,9.14-.06.76-.14,1.51-.22,2.27-.04.38-.09.75-.13,1.13-.02.14-.16,1.13-.05.38-.22,1.5-.46,2.99-.75,4.47-.56,2.88-1.28,5.73-2.15,8.54-.44,1.43-.93,2.85-1.45,4.26-.26.7-.53,1.4-.81,2.1-.09.21-.39.94-.15.38-.18.41-.36.82-.54,1.23-.96,2.14-.69,4.94,1.61,6.16,1.96,1.04,5.13.68,6.16-1.61,5.4-12.11,7.99-25.19,7.78-38.44-.04-2.35-2.04-4.61-4.5-4.5s-4.54,1.98-4.5,4.5h0Z"/><path class="cls-1" d="M268.63,270.62c-.44-.74-.85-1.49-1.21-2.27-.09-.19-.18-.39-.26-.59.22.53.27.64.15.33-.12-.36-.27-.7-.39-1.06-.27-.81-.51-1.64-.69-2.48-.07-.31-.13-.63-.19-.95-.04-.21-.07-.42-.11-.64-.07-.5-.06-.43.03.24-.16-.29-.09-.96-.11-1.28s-.03-.64-.04-.97c-.02-.86,0-1.72.08-2.58.03-.3.01-.67.1-.96-.38,1.23.03-.09.09-.39.17-.84.38-1.68.63-2.5.69-2.25-.82-5.01-3.14-5.54-2.44-.56-4.8.73-5.54,3.14-2.35,7.63-1.27,16.19,2.82,23.03,1.21,2.02,4.1,2.94,6.16,1.61,2.03-1.31,2.91-4,1.61-6.16h0Z"/><path class="cls-1" d="M337.84,163.78c.42-.19.85-.37,1.28-.55.19-.08.79-.33-.09.04.22-.09.44-.19.67-.28.92-.38,1.84-.74,2.76-1.1,2.04-.79,4.09-1.52,6.16-2.2,4.57-1.51,9.21-2.76,13.92-3.76,2.53-.53,5.07-.99,7.62-1.37.31-.05.63-.09.94-.14.09-.01.88-.12.21-.03.54-.07,1.08-.14,1.62-.2,1.28-.15,2.57-.28,3.86-.4,4.53-.39,9.07-.55,13.61-.46,4.27.08,8.54.38,12.79.87,2.35.27,4.6-2.27,4.5-4.5-.12-2.67-1.99-4.21-4.5-4.5-18.68-2.18-37.86-.31-55.78,5.42-4.8,1.53-9.5,3.37-14.11,5.39-2.16.95-2.83,4.28-1.61,6.16,1.45,2.24,3.84,2.63,6.16,1.61h0Z"/><path class="cls-1" d="M249.92,355.98c15.57-10.41,31.95-19.6,48.98-27.42,2.22-1.02,4.46-2.02,6.7-2.99.6-.26,1.19-.52,1.79-.77.21-.09,1.62-.69.9-.38,1.17-.49,2.33-.97,3.5-1.45,2.17-.89,3.95-3.03,3.14-5.54-.68-2.09-3.2-4.1-5.54-3.14-17.69,7.23-34.81,15.76-51.13,25.7-4.36,2.65-8.65,5.4-12.89,8.23-1.95,1.31-2.99,4.03-1.61,6.16,1.26,1.95,4.06,3.01,6.16,1.61h0Z"/><path class="cls-1" d="M243.05,338.92c3.94-1.84,7.9-3.61,11.9-5.31.83-.35.36-.15.17-.07.28-.12.56-.23.84-.35.49-.21.98-.41,1.48-.61,1.14-.47,2.28-.93,3.43-1.39,2.2-.88,4.41-1.74,6.63-2.57,9.03-3.4,18.2-6.42,27.47-9.06,4.74-1.35,9.5-2.6,14.29-3.75,2.29-.55,3.87-3.27,3.14-5.54-.77-2.38-3.08-3.73-5.54-3.14-18.34,4.42-36.32,10.28-53.72,17.56-4.92,2.06-9.81,4.21-14.65,6.47-2.14,1-2.85,4.24-1.61,6.16,1.42,2.2,3.87,2.68,6.16,1.61h0Z"/><path class="cls-1" d="M259.74,370.29c14.04-12.55,28.21-23.31,44.16-33.51,4.15-2.65,8.36-5.22,12.61-7.7,2.03-1.19,2.93-4.12,1.61-6.16s-3.98-2.88-6.16-1.61c-16.5,9.62-32.2,20.57-46.97,32.67-3.95,3.23-7.82,6.55-11.62,9.95-1.76,1.57-1.72,4.78,0,6.36,1.88,1.73,4.49,1.68,6.36,0h0Z"/><path class="cls-1" d="M532.51,152.8c-14.04,12.62-27.08,26.36-38.93,41.06-3.33,4.13-6.58,8.34-9.73,12.61-1.41,1.9-.38,5.11,1.61,6.16,2.35,1.24,4.66.41,6.16-1.61,1.26-1.71,2.54-3.4,3.83-5.09.18-.23.35-.46.53-.69-.12.15-.45.58.1-.12.32-.4.63-.81.95-1.21.69-.88,1.38-1.75,2.07-2.62,2.95-3.69,5.97-7.32,9.07-10.88,6.33-7.3,12.96-14.33,19.87-21.08,3.54-3.46,7.15-6.84,10.83-10.15,1.76-1.58,1.73-4.78,0-6.36-1.88-1.72-4.49-1.68-6.36,0h0Z"/><path class="cls-1" d="M517.67,141.94c-12.12,14.78-23.12,30.48-32.75,46.99-2.56,4.39-5.02,8.83-7.39,13.32-1.1,2.08-.6,4.99,1.61,6.16,2.08,1.1,4.98.61,6.16-1.61,8.73-16.55,18.75-32.41,29.99-47.37.72-.96,1.45-1.92,2.18-2.87.18-.24.36-.47.54-.71-.37.48.11-.14.25-.32.36-.46.72-.92,1.08-1.38,1.54-1.96,3.11-3.91,4.69-5.84,1.49-1.82,1.91-4.61,0-6.36-1.65-1.52-4.77-1.94-6.36,0h0Z"/><path class="cls-1" d="M545.78,164.44c-15.85,10.67-30.88,22.59-44.85,35.64-3.71,3.47-7.34,7.01-10.9,10.64-1.65,1.68-1.8,4.71,0,6.36,1.78,1.64,4.6,1.79,6.36,0,6.34-6.45,12.91-12.66,19.72-18.6,3.68-3.22,7.43-6.35,11.25-9.41.94-.75,1.88-1.5,2.83-2.25.97-.76,1.68-1.31,2.27-1.77,1.89-1.45,3.8-2.89,5.72-4.3,3.99-2.93,8.04-5.78,12.14-8.54,1.95-1.31,2.99-4.02,1.61-6.16-1.25-1.94-4.07-3.02-6.16-1.61h0Z"/><path class="cls-4" d="M403.98,250.69c-1.37.75-3.25-.03-3.96-1.42s-.39-3.16.51-4.44c.9-1.28,2.3-2.13,3.76-2.7,1.17-.46,2.45-.77,3.69-.54,1.24.24,2.41,1.12,2.68,2.36.26,1.23-.67,2.67-1.92,2.68.88.95,1.55,2.16,1.53,3.46-.02,1.29-.91,2.61-2.18,2.82-1.27.21-2.65-1.06-2.29-2.3"/><path class="cls-1" d="M402.47,248.1c-.28.14-.17.09.32-.13-.09.03-.18.05-.28.07.56-.06.69-.08.37-.06-.1,0-.19,0-.29,0,.56.09.68.1.37.04-.09-.02-.19-.05-.28-.08-.29-.1-.19-.06.31.14-.09-.04-.17-.09-.26-.14-.08-.05-.17-.1-.25-.16.41.33.5.39.27.19-.51-.57.24.48,0,.04-.36-.66.09.51-.04-.01-.04-.11-.07-.22-.09-.33-.06-.32-.05-.22.03.29.03-.1.03-.59,0-.69-.08.51-.09.6-.04.28.02-.11.05-.23.08-.34.03-.11.06-.22.1-.33.11-.3.08-.22-.1.23.12-.09.26-.47.34-.61.18-.25.13-.2-.15.18.08-.09.15-.18.23-.27.16-.18.33-.34.51-.5.09-.08.18-.16.28-.23-.37.28-.43.33-.17.15.21-.13.4-.26.61-.38s.42-.23.64-.34c.11-.05.22-.1.33-.15-.44.18-.51.21-.22.09.5-.18,1-.36,1.53-.47.13-.03.26-.05.39-.07-.47.06-.54.07-.21.04.07,0,.78.03.79.02-.46-.07-.54-.07-.25-.02.1.02.2.05.3.09.29.11.2.06-.27-.13.1.05.19.09.28.15.09.05.18.11.27.17-.39-.32-.47-.37-.24-.17.53.57-.2-.45.03-.01.37.7-.12-.51.02-.01.07.32.06.2-.03-.36,0,.1,0,.19,0,.29.09-.55.1-.68.04-.37-.09.29-.04.19.16-.3-.04.09-.09.17-.14.26-.17.25-.1.17.21-.26-.06.07-.13.14-.2.2.43-.31.52-.39.26-.23.51-.19.62-.24.33-.15-.31.07-.18.05.38-.05-1.21.06-2.26.71-2.74,1.84s-.2,2.37.62,3.28c.08.09.17.18.24.28-.27-.37-.32-.42-.13-.16.1.16.21.31.3.47.06.1.47.72.17.31-.1-.25-.11-.25-.02-.01.04.12.07.23.1.35.18.57.01-.63-.01-.07-.04.84.19-.48.03,0-.04.14-.12.31-.14.45.21-.47.24-.57.1-.29-.04.07-.08.13-.12.2-.13.19-.05.09.24-.3-.07.08-.14.15-.21.22-.38.42.57-.44.12-.11-.28.14-.18.1.3-.12-.31.08-.19.07.35-.02-.53,0,.73.21.19.05s.61.33.15.06c-.26-.17-.18-.11.23.19-.08-.07-.15-.14-.21-.22.29.4.37.49.26.3-.11-.21-.06-.08.15.38-.08-.31-.07-.19.03.36.01-.32,0-.2-.05.35.35-1.53-.47-3.32-2.1-3.69-1.53-.35-3.31.46-3.69,2.1-.5,2.17.49,4.43,2.48,5.49s4.29.65,5.98-.82c1.29-1.13,2.02-3.06,1.9-4.76-.14-2.02-1.06-3.73-2.4-5.21-.71,1.71-1.41,3.41-2.12,5.12,1.76-.09,3.28-.97,4.2-2.49.76-1.25.99-2.89.53-4.29-.97-2.94-4.05-4.61-7.06-4.29-2.69.28-5.52,1.49-7.42,3.46-1.95,2.03-3.01,5.17-1.93,7.89,1.33,3.37,5.14,5.04,8.45,3.37,1.4-.71,1.92-2.8,1.08-4.1-.92-1.43-2.6-1.83-4.1-1.08h0Z"/><path class="cls-2" d="M399.56,379.44c2.39-15.77,18.14-31.07,34.74-28.41,15.34,2.45,22.75,18.84,23.51,20.6.62-1.33,6.6-13.79,17.03-14.77,11.75-1.11,21.36,13.07,22.68,24.98,1.53,13.82-6.48,27.14-19.4,38.2-9.9,8.47-21.31,15.31-29.89,25.1l-.23,3.89c-.44-.68-.91-1.34-1.37-1.99-.51.63-1.01,1.26-1.49,1.92v-3.9c-8.02-10.2-19.01-17.58-28.41-26.52-12.68-12.07-19.24-25.42-17.17-39.09Z"/><path class="cls-5" d="M386.06,244.91c2.04.63,4.08,1.26,6.11,1.89.6.19,1.2.21,1.79.08.6-.03,1.16-.21,1.67-.53.52-.28.95-.67,1.26-1.16.4-.43.67-.94.81-1.53.26-1.15.21-2.44-.45-3.47s-1.53-1.71-2.69-2.07c-2.04-.63-4.08-1.26-6.11-1.89-.6-.19-1.2-.21-1.79-.08-.6.03-1.16.21-1.67.53-.52.28-.95.67-1.26,1.16-.4.43-.67.94-.81,1.53-.26,1.15-.21,2.44.45,3.47s1.53,1.71,2.69,2.07h0Z"/><path class="cls-5" d="M395.14,240.08c2.04.63,4.08,1.26,6.11,1.89.6.19,1.2.21,1.79.08.6-.03,1.16-.21,1.67-.53.52-.28.95-.67,1.26-1.16.4-.43.67-.94.81-1.53.26-1.15.21-2.44-.45-3.47s-1.53-1.71-2.69-2.07c-2.04-.63-4.08-1.26-6.11-1.89-.6-.19-1.2-.21-1.79-.08-.6.03-1.16.21-1.67.53-.52.28-.95.67-1.26,1.16-.4.43-.67.94-.81,1.53-.26,1.15-.21,2.44.45,3.47s1.53,1.71,2.69,2.07h0Z"/><path class="cls-5" d="M404.11,235.04c2.04.63,4.08,1.26,6.11,1.89.6.19,1.2.21,1.79.08.6-.03,1.16-.21,1.67-.53.52-.28.95-.67,1.26-1.16.4-.43.67-.94.81-1.53.26-1.15.21-2.44-.45-3.47-.65-1-1.53-1.71-2.69-2.07-2.04-.63-4.08-1.26-6.11-1.89-.6-.19-1.2-.21-1.79-.08-.6.03-1.16.21-1.67.53-.52.28-.95.67-1.26,1.16-.4.43-.67.94-.81,1.53-.26,1.15-.21,2.44.45,3.47s1.53,1.71,2.69,2.07h0Z"/><path class="cls-8" d="M503.87,315.07c.09.12-1.26,1.04-2.37,2.98-1.2,2.09-1.56,4.12-1.68,5.36-1.61,3.92-3.47,7.99-5.6,12.16-6.85,13.39-14.75,24.25-22.19,32.82-10.51-2.15-18.96-3.57-24.9-4.49-4.8-.74-8.33-1.27-13.5-2.68-6.48-1.77-11.21-3.99-14.74-5.61-4.72-2.17-8.58-4.31-11.46-6.03,4.46,0,10.83-.28,18.35-1.63,2.05-.37,5.49-1.05,16.76-4.38,11.43-3.37,17.15-5.06,23.85-7.6,9.67-3.66,14.92-5.65,21.63-9.77,8.17-5.01,15.61-11.41,15.85-11.13Z"/><path class="cls-6" d="M499.27,314.27c-6.28,14.21-13.9,27.81-22.79,40.55-1.28,1.83-2.58,3.64-3.91,5.43-.62.84-1.25,1.68-1.88,2.51-.18.23-.36.47-.54.7-.15.2-.39.51-.1.13-.35.46-.71.91-1.07,1.37,1.46-.39,2.92-.77,4.38-1.16-9.73-1.8-19.5-3.41-29.29-4.89-6.16-.93-12.21-2.01-18.15-3.93-1.26-.41-2.52-.85-3.77-1.31-.67-.25-1.34-.51-2-.77-.31-.12-.62-.25-.94-.38-1.25-.51.81.36-.45-.19-3.08-1.34-6.09-2.83-9.04-4.45-2.06-1.14-5-.57-6.16,1.61-1.12,2.11-.59,4.94,1.61,6.16,8.37,4.62,17.38,8.25,26.73,10.28,7.24,1.57,14.66,2.37,21.97,3.57,5.7.93,11.4,1.93,17.08,2.98,1.46.27,3.36.14,4.38-1.16,10.14-12.9,19.05-26.7,26.43-41.36,1.85-3.67,3.6-7.4,5.26-11.16.95-2.15.7-4.93-1.61-6.16-1.95-1.03-5.14-.68-6.16,1.61h0Z"/><path class="cls-8" d="M473.71,319.67c.12.12-1.34,1.17-2.41,3.31-1.16,2.31-1.36,4.52-1.38,5.87-1.45,4.31-3.16,8.79-5.17,13.38-6.48,14.76-14.43,26.81-22.08,36.37-12.28-1.97-22.11-3.21-29.02-4-5.59-.64-9.69-1.08-15.76-2.43-7.9-1.76-14.44-4.35-17.49-5.57-4.49-1.8-10.03-4.3-16.14-7.78,2.81-.22,6.81-.57,11.59-1.11,6.09-.69,16.17-1.83,26.22-4.01,4.19-.91,16.65-3.8,30.8-10.05,22.9-10.11,40.26-24.58,40.84-23.98Z"/><path class="cls-8" d="M469.21,319.04c-1.03,4.33-2.34,8.58-3.92,12.73-.36.95-.74,1.9-1.12,2.85-.04.1-.38.93-.19.47s-.16.37-.2.47c-.23.54-.47,1.07-.71,1.6-.93,2.07-1.91,4.11-2.94,6.13-4.06,7.92-8.85,15.46-14.05,22.68-1.35,1.87-2.76,3.7-4.11,5.57-.22.31-.44.64-.65.95-.03.05-.27.48-.36.53.26-.13.35-.79.13-.2l-.1.1c-.18.17-.13.14.12-.07l.23-.17c-.34.19-.33.19,0,.03.03,0,.82-.24.81-.19-.02.06-.99-.05-1.09-.06-4.96-.34-9.92-.82-14.87-1.33-4.85-.5-9.7-.95-14.54-1.52-.65-.08-1.29-.15-1.94-.23-.32-.04-.64-.08-.97-.12.02,0-.77-.1-.37-.05.46.06-.52-.07-.61-.08-.24-.03-.48-.07-.72-.1-.72-.1-1.45-.21-2.17-.33-2.4-.38-4.79-.81-7.17-1.31-5.19-1.11-10.29-2.59-15.29-4.35-2.5-.87-4.97-1.82-7.43-2.81-.65-.26-1.3-.53-1.94-.8.01,0-.69-.29-.32-.13s-.65-.28-.75-.32c-1.28-.55-2.56-1.12-3.83-1.69-2.14-.97-4.94-.69-6.16,1.61-1.04,1.97-.68,5.12,1.61,6.16,9.22,4.16,18.67,7.87,28.51,10.28,10.21,2.5,20.73,3.46,31.17,4.5,5.11.51,10.21,1.06,15.33,1.45,2.85.22,5.54.51,7.95-1.35,1.73-1.33,2.82-3.38,4.11-5.11,5.64-7.58,10.95-15.39,15.48-23.69,5.1-9.36,9.27-19.32,11.74-29.71.54-2.29-.72-4.98-3.14-5.54-2.31-.53-4.95.69-5.54,3.14h0Z"/><path class="cls-6" d="M300.69,385.66c.3-.73.07-.17-.11.2-.15.31-.3.63-.46.94-.34.67-.71,1.33-1.09,1.97-.36.6-.74,1.18-1.13,1.75-.2.29-.4.57-.61.85-.1.14-.21.28-.31.42.21-.29.37-.47.06-.08-1.94,2.36-4.11,4.51-6.48,6.45-.29.23-.57.46-.86.69-.4.32.13-.11.18-.14-.15.11-.3.22-.45.33-.65.48-1.31.95-1.98,1.41-1.31.89-2.65,1.74-4.02,2.54-2.85,1.68-5.81,3.17-8.82,4.53-.72.32-1.44.64-2.16.95.71-.31-.11.04-.38.16-.42.17-.85.35-1.28.52-1.52.61-3.04,1.18-4.58,1.74-3.32,1.2-6.69,2.29-10.05,3.38-6.8,2.2-13.63,4.33-20.26,6.99-7.77,3.12-15.09,6.87-21.68,12.07-1.86,1.47-1.65,4.85,0,6.36,1.97,1.81,4.38,1.56,6.36,0,.66-.52-.3.21.37-.29.33-.24.65-.48.98-.72.77-.55,1.55-1.09,2.35-1.6,1.43-.93,2.89-1.79,4.38-2.61,1.56-.86,3.16-1.66,4.77-2.42.75-.35,1.51-.7,2.27-1.03.38-.17.76-.33,1.15-.5.48-.21-.04.02-.11.05.32-.13.64-.27.97-.4,6.68-2.72,13.57-4.88,20.44-7.09,13.3-4.29,26.64-9.05,37.77-17.75,5.9-4.61,10.56-10.36,13.46-17.27.91-2.18-.98-5.04-3.14-5.54-2.63-.6-4.56.81-5.54,3.14h0Z"/><path class="cls-6" d="M206.62,449.66c-18.54-11.25-41.15-15.78-62.65-13.79-5.58.52-11.14,1.41-16.57,2.79-5.17,1.31-10.57,2.99-14.98,6.07-4.81,3.35-8.09,8.01-8.59,13.95-.44,5.28,1.89,10.4,5.1,14.44,8.01,10.11,22.46,11.98,34.41,13.25,2.35.25,4.6-2.25,4.5-4.5-.12-2.65-1.98-4.23-4.5-4.5-1.27-.14-2.55-.28-3.82-.44-.28-.04-.57-.07-.85-.11.81.1.07,0-.08-.01-.71-.1-1.41-.21-2.12-.32-2.51-.41-5-.91-7.45-1.59-1.2-.33-2.39-.71-3.56-1.13-.51-.19-1.02-.38-1.53-.59.79.33-.04-.03-.23-.11-.31-.14-.61-.28-.92-.43-1.08-.54-2.14-1.13-3.15-1.79-.42-.27-.83-.56-1.24-.86.75.56.09.06-.09-.1-.23-.2-.46-.4-.69-.61-.8-.74-1.53-1.55-2.22-2.39.64.78-.19-.29-.35-.54-.36-.54-.69-1.1-.99-1.67-.12-.22-.75-1.75-.34-.66-.16-.43-.32-.85-.45-1.29s-.24-.87-.34-1.31c-.01-.06-.24-1.15-.09-.39.14.7-.03-.4-.04-.56-.03-.49-.03-.99,0-1.48,0-.15,0-.55.05-.66-.03.05-.22,1.09-.01.22.12-.49.22-.97.37-1.45.07-.21.15-.42.23-.63.12-.31.08-.21-.12.29.07-.16.15-.31.23-.46.25-.47.54-.91.83-1.36.12-.19.53-.6-.05.05.16-.18.31-.37.47-.55.37-.41.76-.79,1.16-1.16.18-.16.38-.31.56-.48.25-.2.19-.16-.18.13.15-.11.3-.22.45-.33.88-.63,1.81-1.19,2.77-1.69.52-.27,1.05-.53,1.58-.78.11-.05.87-.39.37-.17-.48.21.62-.25.75-.3,2.25-.87,4.58-1.56,6.91-2.17,2.41-.63,4.85-1.16,7.31-1.61,1.16-.21,2.33-.39,3.49-.57,1.32-.2-.56.06.25-.04.28-.03.55-.07.83-.1.69-.08,1.38-.16,2.07-.23,5.04-.51,10.12-.65,15.19-.42,2.49.11,4.97.31,7.45.6.28.03,1.75.22.86.1.55.07,1.09.15,1.64.24,1.36.21,2.72.44,4.07.71,5.35,1.04,10.62,2.5,15.72,4.41.63.24,1.26.48,1.88.73.25.1.5.2.75.3s1.14.48.41.17c1.23.53,2.45,1.08,3.65,1.66,2.51,1.21,4.95,2.54,7.33,3.99,2.01,1.22,5.03.51,6.16-1.61s.54-4.85-1.61-6.16h0Z"/><path class="cls-6" d="M164.17,463.42c-15.85,5.64-28.58,20.5-28.38,37.85.1,8.85,3.46,17.4,8.84,24.36,5.67,7.33,13.24,12.55,21.74,16.1,9.54,3.98,20.17,5.51,30.47,4.95,2.35-.13,4.61-1.98,4.5-4.5-.1-2.33-1.98-4.64-4.5-4.5-4.26.23-8.51.08-12.75-.43.82.1-.45-.07-.69-.11-.49-.08-.97-.16-1.46-.24-1.04-.18-2.07-.39-3.1-.63-2.04-.46-4.05-1.03-6.03-1.69-.91-.31-1.82-.64-2.72-.99-.22-.09-1.38-.56-.64-.25-.57-.24-1.12-.49-1.68-.75-1.77-.83-3.51-1.75-5.18-2.77-.86-.52-1.69-1.07-2.52-1.64-.38-.27-.75-.54-1.13-.81-.12-.09-.67-.51-.05-.03-.21-.17-.42-.33-.63-.5-1.55-1.26-3.02-2.63-4.38-4.1-.63-.68-1.23-1.37-1.82-2.08-.17-.2-.33-.41-.49-.61.11.14.49.67,0-.02-.31-.42-.61-.84-.9-1.27-1.09-1.59-2.06-3.27-2.91-5-.19-.4-.37-.81-.56-1.21-.22-.46.05.14.08.2-.1-.23-.19-.47-.28-.71-.34-.88-.65-1.78-.92-2.68s-.51-1.81-.7-2.74c-.08-.37-.15-.74-.22-1.11-.04-.25-.08-.49-.12-.74-.16-.88.03.46-.02-.1-.16-1.88-.27-3.74-.16-5.62.03-.44.06-.88.11-1.32.02-.18.04-.36.06-.55.06-.65-.14.82-.02.18.16-.84.3-1.69.5-2.52s.44-1.67.72-2.49c.13-.39.26-.77.4-1.15.12-.32.6-1.45.2-.55.71-1.62,1.53-3.19,2.47-4.69.51-.81,1.05-1.59,1.61-2.37.49-.67.05-.08-.05.05.19-.24.38-.47.57-.71.31-.37.62-.74.94-1.1,1.34-1.51,2.8-2.92,4.37-4.2.19-.16.38-.31.58-.47-.49.39-.21.16.13-.09.4-.3.81-.58,1.22-.87.88-.6,1.79-1.17,2.72-1.69s1.79-.97,2.7-1.4c.23-.11.47-.21.7-.32.78-.36-.34.11.16-.07.54-.2,1.08-.42,1.63-.61,2.21-.79,3.93-3.1,3.14-5.54-.71-2.18-3.16-3.99-5.54-3.14h0Z"/><path class="cls-6" d="M178.87,508.81c3.53,16.25,11.65,31.27,22.67,43.65,11.28,12.66,25.64,22.19,41.22,28.72,8.81,3.7,18.03,6.35,27.45,7.96,2.31.39,4.96-.61,5.54-3.14.5-2.18-.66-5.11-3.14-5.54-8.17-1.39-16.21-3.57-23.95-6.55-.91-.35-1.82-.71-2.73-1.09-.19-.08-.39-.16-.58-.24.17.07.73.32-.08-.04-.51-.22-1.02-.44-1.53-.67-1.84-.82-3.65-1.69-5.44-2.61-3.55-1.81-7-3.8-10.34-5.97-1.65-1.07-3.27-2.19-4.86-3.35-.44-.32-.87-.64-1.3-.96-.2-.15-.96-.73-.37-.28-.85-.66-1.69-1.33-2.51-2.02-3.08-2.55-6-5.27-8.76-8.16-1.37-1.44-2.71-2.93-3.99-4.45-.62-.73-1.22-1.47-1.82-2.22-.14-.18-.92-1.19-.43-.54-.33-.43-.66-.87-.98-1.31-2.32-3.15-4.46-6.44-6.37-9.85-1.08-1.92-2.09-3.88-3.03-5.88-.45-.96-.88-1.94-1.31-2.91-.28-.64.25.62,0-.03-.12-.31-.25-.61-.37-.92-.2-.49-.39-.99-.58-1.48-1.55-4.07-2.78-8.25-3.7-12.51-.5-2.3-3.31-3.86-5.54-3.14-2.42.78-3.68,3.07-3.14,5.54h0Z"/><path class="cls-6" d="M272.19,589.91c2.35,0,4.61-2.07,4.5-4.5-.11-2.44-1.98-4.5-4.5-4.5-2.35,0-4.61,2.07-4.5,4.5s1.98,4.5,4.5,4.5h0Z"/><path class="cls-6" d="M539.09,392.95c.07,1.04.1,2.08.07,3.13-.02.55-.05,1.11-.1,1.66-.02.21-.04.41-.06.62-.13,1.35.17-.89-.06.45-.35,2.14-.88,4.25-1.57,6.31-.34,1.02-.72,2.02-1.13,3.01.29-.72-.24.53-.32.72-.27.6-.55,1.19-.84,1.78-1.02,2.07-2.14,4.08-3.33,6.05-5.1,8.45-11.18,16.33-16.94,24.34-12.1,16.85-24.19,33.7-36.29,50.55-6.1,8.49-12.19,16.98-18.29,25.48-2.73,3.8-5.43,7.62-8.23,11.36-.35.47-.7.93-1.05,1.39-.18.23-.35.46-.53.69,0,.01-.44.58-.18.24.3-.38-.26.33-.32.41-.18.23-.36.46-.54.69-.41.52-.82,1.03-1.23,1.54-1.43,1.76-2.89,3.5-4.41,5.18-3.02,3.35-6.25,6.52-9.73,9.39-.39.32-.79.64-1.19.96-.22.17-1.14.87-.45.35-.82.61-1.63,1.22-2.47,1.81-1.67,1.19-3.39,2.31-5.14,3.39-3.43,2.11-7,4-10.64,5.71-.89.42-1.79.82-2.7,1.22-.24.11-.48.21-.73.32-.12.05-.88.37-.38.16.47-.2-.14.06-.2.08-.37.15-.74.3-1.11.45-1.92.77-3.86,1.5-5.81,2.18-8.05,2.83-16.33,4.94-24.7,6.58-4.22.82-8.46,1.52-12.71,2.12-.2.03-1.81.25-.87.12-.55.07-1.1.14-1.65.21-1.1.14-2.2.27-3.3.4-2.13.25-4.26.47-6.39.67-2.12.2-4.24.38-6.36.54-2.34.18-4.61,1.94-4.5,4.5.1,2.28,1.99,4.69,4.5,4.5,17.74-1.37,35.56-3.85,52.61-9.08,16.57-5.09,32.54-12.89,45.16-24.97,6.89-6.59,12.65-14.25,18.22-21.96,6.11-8.46,12.18-16.96,18.27-25.43,12.34-17.19,24.68-34.37,37.02-51.56,5.97-8.31,12.14-16.52,17.83-25.03,5.21-7.79,10.07-16.4,11.4-25.81.35-2.47.52-4.93.35-7.42-.16-2.34-1.96-4.61-4.5-4.5-2.3.1-4.67,1.98-4.5,4.5h0Z"/><path class="cls-6" d="M253.66,576.96c-2.9,1.53-5.51,3.46-8.03,5.54-.62.51.74-.48.05-.05-.25.16-.49.33-.74.48-.23.14-1.19.61-.45.3-.38.15-.77.27-1.17.37-1.4.35-2.81.51-4.16,1.03-7.03,2.69-12.29,9.45-13.29,16.91-1.02,7.58,2.52,15.41,8.39,20.22,3.1,2.54,6.7,4.39,10.66,5.13,3.71.69,7.4.66,11.13.2,11.67-1.41,23.38-3.83,34.49-7.7,2.56-.89,5.01-1.94,7.48-3.06,6.94-3.17,13.74-6.65,20.39-10.39,11.02-6.2,21.65-13.08,31.9-20.48.99-.71,1.97-1.43,2.95-2.15,1.89-1.39,3.03-3.97,1.61-6.16-1.21-1.87-4.13-3.11-6.16-1.61-9.21,6.78-18.73,13.15-28.56,18.99-6.06,3.6-12.23,6.99-18.53,10.14-3.32,1.66-6.68,3.25-10.07,4.76-2.11.94.68-.25,0,.01-.29.11-.58.23-.87.34-8.24,3.17-16.94,5.26-25.6,6.86-1.62.3-3.24.58-4.87.84-.93.15-1.87.29-2.8.42-.1.01-1.68.23-.56.08-.47.06-.95.12-1.42.17-1.57.18-3.16.3-4.74.29-.84,0-1.67-.07-2.5-.12-1.34-.08.85.2-.47-.06-.42-.08-.84-.15-1.25-.25-.85-.19-1.67-.46-2.5-.74-1.28-.44.64.39-.58-.25-.41-.22-.83-.42-1.23-.65-.61-.35-1.18-.74-1.75-1.15.88.64-.09-.09-.22-.21-.28-.24-.55-.49-.82-.75-2.02-1.95-3.43-4.14-4.16-6.52-.12-.38-.22-.76-.31-1.15-.04-.16-.27-1.71-.19-.86-.11-1.04-.13-2.12,0-3.16-.1.81.1-.37.11-.44.08-.36.17-.72.28-1.07s.24-.71.36-1.06c.19-.48.18-.47-.03.03.1-.23.21-.46.32-.68.4-.8.89-1.53,1.36-2.29.65-1.04-.58.62.22-.3.29-.34.58-.67.88-.99.22-.23.44-.45.67-.66.15-.14,1.38-1.11.53-.49.7-.51,1.44-.92,2.19-1.34,1-.56-.84.21.26-.11.47-.14.93-.3,1.42-.41.64-.15,1.29-.24,1.93-.38,1.86-.4,3.66-1.22,5.2-2.33.68-.49,1.33-1.02,1.98-1.55.24-.2.48-.39.72-.59.37-.29.36-.29-.04.02.23-.18.47-.35.71-.52,1.4-1,2.86-1.9,4.38-2.7,2.09-1.1,2.89-4.18,1.61-6.16-1.37-2.12-3.93-2.79-6.16-1.61h0Z"/><path class="cls-3" d="M412.53,215.9c-2.15-1.98-9.56-9.21-11.39-20.3-2.07-12.54,3.73-25.52,14.88-29.91,12.61-4.96,25.19,3.77,28.23,5.89,3.07,2.13,11.64,8.1,14.23,18.41,1.42,5.64.41,10.02-.43,13.67-.8,3.46-3.81,17.81-16.78,22.43-7.13,2.54-14.13,1.48-17.69.69-1.64-1.28-3.39-2.78-5.21-4.52-2.3-2.2-4.23-4.37-5.85-6.35Z"/><path class="cls-1" d="M410.31,212.32c-4.22-5.04-6.97-11.59-7.43-17.99-.24-3.33,0-6.36.85-9.52.21-.77.45-1.53.73-2.28.12-.33.25-.66.38-.99s-.01.03-.03.08c.09-.21.18-.42.28-.62.5-1.08,1.07-2.12,1.71-3.13.27-.43.56-.85.86-1.26.1-.14.2-.27.3-.4-.02.03-.3.38-.09.12.18-.22.36-.45.55-.67.71-.83,1.48-1.6,2.29-2.32.21-.18.42-.36.63-.54.19-.16.56-.43.14-.12.44-.33.89-.65,1.35-.95.88-.57,1.8-1.09,2.74-1.54.24-.12.49-.23.74-.34-.48.22-.11.04.14-.05.51-.2,1.02-.38,1.53-.55,1-.32,2.02-.58,3.05-.79.5-.1,1-.18,1.51-.25-.54.08-.15.02.14,0,.31-.03.63-.06.94-.08,1.07-.08,2.14-.1,3.21-.06.52.02,1.04.05,1.56.09.24.02.48.04.72.07.25.03,1.07.14.4.04,1.09.17,2.17.37,3.23.63,1.08.27,2.14.58,3.19.95.51.18,1.01.37,1.51.57.12.05.23.09.35.14-.03-.01-.46-.2-.14-.06s.61.27.91.41c2.02.95,3.95,2.1,5.75,3.42.14.1.27.2.41.3-.03-.03-.37-.29-.1-.08.2.16.4.32.6.48.46.38.92.77,1.36,1.18.86.79,1.68,1.62,2.46,2.49.38.42.74.86,1.1,1.3.42.51-.04-.07.26.33.18.25.37.5.54.75.69.98,1.33,2.01,1.91,3.06.28.52.55,1.04.81,1.57.14.29.27.58.41.87.06.13.11.25.17.38.19.44-.16-.4.02.05.46,1.18.88,2.38,1.22,3.6,1.42,5.12,1.48,9.9-.07,15-.19.63-.4,1.25-.64,1.87-.06.15-.29.75-.24.63.01-.03-.31.68-.41.89-.59,1.25-1.27,2.45-2.02,3.61-.82,1.26-1.22,1.79-2.15,2.86s-1.93,2.07-3,3.01c-1.94,1.71-4.36,3.25-6.99,4.49-2.37,1.11-5.62,2.05-8.54,2.5-1.22.19-3.09.3-4.57.33-3.86.05-3.87,6.05,0,6,13.52-.19,26.66-7.39,32.51-19.89,2.73-5.84,3.74-12.19,2.8-18.58-.81-5.48-2.91-10.85-6.12-15.37-6.15-8.66-15.7-14.33-26.22-15.65-9.58-1.21-19.83,1.96-26.06,9.59-9.2,11.28-8.8,27.63-1.34,39.72,1.08,1.74,2.31,3.39,3.62,4.96,1.04,1.24,3.17,1.07,4.24,0,1.23-1.23,1.04-3,0-4.24h0Z"/><path class="cls-1" d="M442.12,180.47c11.78,10.24,14.5,27.67,6.07,38.93-8.42,11.26-24.8,12.1-36.58,1.86-11.78-10.24-14.5-27.67-6.07-38.93,8.42-11.26,24.8-12.1,36.58-1.86Z"/><path class="cls-3" d="M416.51,214.37c11.08-5.55,15.01-5.12,28.1,2.39-8.41-13.12-9.14-17.21-5.13-29.49-11.09,5.57-15.02,5.1-28.1-2.39,8.41,13.11,9.15,17.22,5.13,29.49Z"/><ellipse class="cls-2" cx="427.8" cy="182.3" rx="5.1" ry="5.83" transform="translate(-29.52 266.58) rotate(-33.52)"/><ellipse class="cls-2" cx="429.94" cy="217.63" rx="2.71" ry="3.09" transform="translate(-48.67 273.64) rotate(-33.52)"/><path class="cls-3" d="M369.17,233.86c-1.81-2.79-8.55-12.44-21.14-15.65-14.23-3.63-30.85,2.26-38.64,15.41-8.81,14.88-1.53,30.94.24,34.82,1.78,3.92,6.76,14.86,18.25,18.93,6.28,2.23,11.67,1.39,16.15.69,4.25-.66,21.81-3.04,30.31-18.38,4.67-8.44,5.08-17.04,4.99-21.43-1.12-2.1-2.47-4.37-4.08-6.73-2.05-2.99-4.13-5.53-6.07-7.67Z"/><path class="cls-1" d="M370.6,226.34c-11.85-13.46-31.9-16.91-47.69-8.56-11.11,5.88-18.26,17.21-19.93,29.53-1.62,11.98,1.72,24.59,10,33.56,9.26,10.04,23.7,13.84,36.79,10.22,15.38-4.26,27.38-16.91,32.41-31.84.66-1.97,1.19-3.98,1.62-6.02.33-1.58-.46-3.24-2.1-3.69-1.49-.41-3.36.5-3.69,2.1-.79,3.79-1.98,7.55-3.58,10.86-.84,1.75-1.79,3.45-2.84,5.09-.97,1.51-1.87,2.76-2.87,3.98-4.43,5.37-9.83,9.54-15.99,12.17-2.6,1.11-6.04,2.08-9.12,2.53-.49.07.43-.05-.06,0-.19.02-.38.04-.57.06-.38.04-.76.07-1.14.1-.8.06-1.61.08-2.42.08-.75,0-1.51-.03-2.26-.09-.37-.03-.75-.06-1.12-.1-.19-.02-.37-.04-.56-.07.44.06.05,0-.17-.03-1.53-.26-3.04-.62-4.52-1.08-.7-.22-1.4-.46-2.09-.72-.34-.13-.68-.26-1.01-.4.5.21.07.03-.03-.01-.24-.11-.49-.22-.73-.33-1.26-.59-2.49-1.26-3.67-2.01-.58-.36-1.14-.75-1.7-1.14-.13-.09-.9-.68-.41-.29-.33-.26-.66-.52-.98-.79-1.01-.86-1.97-1.77-2.88-2.74-.45-.48-.88-.98-1.3-1.48-.11-.13-.69-.86-.29-.35-.25-.32-.49-.65-.73-.98-.78-1.09-1.49-2.23-2.14-3.41-.29-.53-.57-1.08-.84-1.62-.14-.29-.28-.59-.41-.88-.07-.15-.13-.3-.2-.45-.34-.74.22.58-.08-.18-.98-2.51-1.75-5.07-2.23-7.73-.06-.32-.11-.64-.16-.97-.03-.16-.05-.32-.07-.48.02.1.07.64.01.07-.08-.69-.15-1.38-.2-2.07-.1-1.35-.13-2.7-.09-4.05s.15-2.7.31-4.04c.06-.45-.08.52,0,.07.03-.16.05-.32.07-.49.05-.32.11-.65.17-.97.13-.68.27-1.37.43-2.04.31-1.31.69-2.61,1.14-3.89.22-.62.46-1.23.7-1.84.17-.42-.2.45-.02.04.07-.15.13-.3.2-.45.15-.34.31-.67.47-1,.61-1.26,1.29-2.48,2.04-3.66.33-.52.68-1.03,1.04-1.54.19-.27.39-.53.59-.8.27-.36-.29.37-.01.02.13-.16.26-.32.39-.48.9-1.1,1.87-2.14,2.9-3.12.49-.47,1-.92,1.51-1.35.26-.22.53-.43.79-.65.09-.07.45-.34,0,0,.17-.13.34-.26.52-.38,1.17-.85,2.39-1.62,3.66-2.32.63-.35,1.27-.67,1.92-.98.33-.16.66-.3,1-.45.09-.04.53-.22.05-.02.21-.09.43-.17.65-.26,3.58-1.39,7.24-2.2,10.98-2.33,7.77-.28,15.64,2.14,21.77,7.05,1.64,1.31,3.14,2.78,4.52,4.35,1.07,1.22,3.15,1.09,4.24,0,1.21-1.21,1.07-3.02,0-4.24h0Z"/><circle class="cls-1" cx="347.06" cy="250.56" r="30.47"/><path class="cls-3" d="M366.43,238.57c-9.14,12.97-9.57,17.79-3.84,34.35-13.42-11.39-18.05-12.64-33.42-8.86,9.17-12.98,9.54-17.79,3.84-34.36,13.4,11.39,18.06,12.65,33.42,8.86Z"/><ellipse class="cls-2" cx="326.72" cy="249.16" rx="5.92" ry="5.95" transform="translate(-79.5 310.95) rotate(-45.98)"/><ellipse class="cls-2" cx="365.25" cy="254.54" rx="3.47" ry="3.49" transform="translate(-71.61 340.3) rotate(-45.98)"/><path class="cls-1" d="M388.64,270.49c-1.62,3.06-2.49,7.65,1.12,9.73,4,2.31,9.13,0,12.7-2.06s6.37-4.72,8.39-8.14,3-7.3,3.41-11.25l-3.8,2.89c6.44,1.27,13.93.99,19.04-3.63,1.91-1.73,3.62-4.07,3.86-6.7.29-3.25-2.1-5.4-4.98-6.29-3.7-1.15-5.28,4.64-1.6,5.79.41.13.16.02.35.1.2.09.42.21.6.35-.24-.18-.3-.07-.07.01l-.21-.26c.13.24.14.25.03.02-.18-.39-.06.52-.08-.36,0,.04-.02.42-.01.42-.1-.03.19-.69-.05-.04-.02.07-.2.54-.06.2.17-.39-.14.24-.18.31-.11.19-.23.37-.34.55-.03.05-.34.49-.16.24.21-.29-.24.28-.28.33-.27.31-.56.61-.86.89-.16.15-.34.3-.5.45-.4.38.15-.09-.11.1-3.55,2.6-8.65,2.54-12.79,1.72-2.06-.41-3.58.87-3.8,2.89-.53,5.06-2.73,9.97-6.94,13-2.13,1.53-5.21,3.47-7.9,3.38-.38-.01-.26-.12-.59-.08l.18.1c-.3-.18-.31-.17,0,.05.25.54.01-.15.13.22.09.22.09.2,0-.07.04.38.05.45.04.22,0-.12,0-.24,0-.36-.06.34-.07.4-.03.17.05-.26.11-.51.19-.77.03-.09.3-.83.17-.52s.26-.5.3-.59c.76-1.43.36-3.26-1.08-4.1-1.36-.79-3.34-.36-4.1,1.08h0Z"/><path class="cls-7" d="M503.99,360.28c-1.42-2.59-1.19-3.12-2.37-5.53-3.14-6.45-7.59-8.32-11.98-11.2-7.26-4.77-3.73-5.89-17.22-17.69-3.73-3.26-7.64-6.37-10.09-11.19-2.45-4.82-3.32-11.65-.84-19.79,2.48-8.13,8.88-17.53,15.55-21.34,6-3.43,10.74-1.87,14.72.15,26.39,13.35,40.16,43.77,40.16,43.77,14.21,29.2,14.82,57.52,13.69,74.22-6.49-.95-11.51-2.86-14.84-4.41-10.67-4.97-15.51-11.62-16.01-12.38-.7-1.06-.94-1.57-2.06-3.19-4.03-5.85-6.22-6.87-8.72-11.42Z"/><path class="cls-6" d="M498.92,350.32c-7.32-13.7-16.69-26.5-28.73-36.43-1.12-.93-2.25-1.85-3.3-2.86-.51-.49-1-.99-1.46-1.52-.12-.14-.24-.29-.36-.43-.44-.51.24.17.18.24,0-.01-.67-.99-.72-1.07-.18-.29-.35-.59-.5-.89-.09-.18-.17-.36-.26-.53-.39-.78.1.24.1.24-.39-.12-.61-2.25-.71-2.6-.13-.52.09.35.05.36,0,0-.05-.61-.06-.7-.03-.49-.04-.98-.02-1.47.02-.53.06-1.05.11-1.58-.08.81.06-.28.11-.54.34-1.76.87-3.48,1.51-5.16.1-.27.62-1.5.23-.6.2-.45.4-.9.61-1.35.43-.91.89-1.81,1.37-2.69.99-1.8,2.09-3.53,3.3-5.19.15-.21.3-.41.46-.62-.1.14-.53.67,0,0,.32-.39.64-.79.96-1.17.64-.75,1.31-1.48,2.01-2.18.63-.63,1.29-1.25,1.97-1.83.18-.15.36-.29.54-.45.49-.42-.62.44-.1.07.41-.29.81-.59,1.24-.86.49-.32.99-.62,1.51-.9.2-.11.4-.21.6-.31.1-.05.93-.41.44-.21s.31-.1.42-.14c.25-.08.49-.16.75-.23.54-.15,1.08-.26,1.63-.36-.9.17-.04.02.37,0,.45-.02.9-.02,1.35,0,.35.02.8,0,1.15.1-.98-.29-.51-.07-.23-.01.32.07.64.12.95.19.89.2,1.77.44,2.63.73.45.15.9.31,1.33.5-.76-.31-.11-.04.03.03.3.15.6.29.9.44.95.49,1.86,1.03,2.75,1.62.39.26.77.52,1.15.79.22.16.43.32.64.47-.68-.5.06.05.19.16,1.67,1.35,3.25,2.8,4.81,4.28,3.38,3.21,6.75,6.43,10.01,9.76,3.29,3.35,6.46,6.83,9.34,10.54-.39-.5.07.1.13.17.18.24.37.48.55.73.36.49.72.98,1.07,1.48.5.7.98,1.41,1.46,2.12.64.95,1.29,1.91,1.92,2.87,3.82,5.82,7.16,11.92,9.94,18.31.06.14.33.79.02.05.08.19.16.38.24.57.21.51.42,1.03.62,1.54.45,1.13.87,2.27,1.28,3.42.79,2.21,1.5,4.45,2.15,6.71,1.36,4.78,2.33,9.64,3.08,14.55.11.74-.08-.65.01.09.03.28.07.57.11.85.06.49.12.98.17,1.47.12,1.16.23,2.32.31,3.48.15,2.06.25,4.13.28,6.19.06,3.54-.06,7.09-.34,10.63-.12,1.5-.28,3-.46,4.5-.29,2.35,2.28,4.6,4.5,4.5,2.68-.12,4.19-1.99,4.5-4.5,2.17-17.63,0-35.86-6.22-52.49-5.6-14.97-14.21-29.01-25.07-40.74-3.31-3.58-6.81-6.98-10.33-10.35s-6.91-6.69-10.87-9.44c-3.76-2.62-8.1-4.44-12.65-5.05-4.97-.67-9.77.53-13.94,3.33-7.42,4.98-12.72,12.87-16.06,21.05-1.57,3.84-2.72,8.15-2.42,12.32.32,4.42,2.02,8.25,4.91,11.58,1.96,2.26,4.39,4.02,6.64,5.96,2.4,2.07,4.69,4.27,6.88,6.57,1.3,1.37,2.55,2.77,3.77,4.21.61.72,1.22,1.45,1.81,2.19.31.38.61.77.91,1.15.11.14.52.67-.02-.02.19.25.38.5.58.76,2.76,3.66,5.31,7.47,7.67,11.4,1.34,2.22,2.61,4.49,3.83,6.77,1.11,2.08,4.17,2.9,6.16,1.61,2.11-1.36,2.8-3.93,1.61-6.16h0Z"/><path class="cls-6" d="M468.15,325.34c-.26.54-.52,1.09-.79,1.63,2.74,1.16,5.48,2.31,8.22,3.47.33-1,.69-1.98,1.1-2.95l-.45,1.07c1.26-2.96,2.88-5.75,4.84-8.31l-.7.91c.21-.28.43-.55.65-.82.78-.96,1.32-1.9,1.32-3.18,0-1.1-.49-2.42-1.32-3.18s-1.98-1.37-3.18-1.32c-1.12.05-2.44.41-3.18,1.32-3.43,4.23-6.04,8.88-7.74,14.06-.34,1.03-.13,2.56.45,3.47.54.84,1.23,1.45,2.15,1.84,1.92.81,4.64.18,5.62-1.84l.79-1.63c.53-1.1.79-2.25.45-3.47-.29-1.04-1.09-2.18-2.07-2.69-1.04-.55-2.31-.83-3.47-.45-1.06.34-2.18,1.02-2.69,2.07h0Z"/><path class="cls-9" d="M208.49,103.54c8.53,3.49,15.13,10.36,21.47,17.05-10.22,4.19-21.13,6.69-32.16,7.36-2.87.18-6.55-.33-7.3-3.12-.56-2.07,2.49-4.49,3.06-4.94,3.34-2.65,7.4-2.55,9.18-2.38-.13-.09-.26-.18-.38-.27-2.61-1.84-8.98-6.2-7.75-10.3.77-2.58,3.36-4.32,6.02-4.73,2.67-.41,5.38.31,7.87,1.32Z"/><path class="cls-9" d="M226.9,143.25c8.53,3.49,15.13,10.36,21.47,17.05-10.22,4.19-21.13,6.69-32.16,7.36-2.87.18-6.55-.33-7.3-3.12-.56-2.07,2.49-4.49,3.06-4.94,3.34-2.65,7.4-2.55,9.18-2.38-.13-.09-.26-.18-.38-.27-2.61-1.84-8.98-6.2-7.75-10.3.77-2.58,3.36-4.32,6.02-4.73,2.67-.41,5.38.31,7.87,1.32Z"/><path class="cls-9" d="M192.61,176.44c5.78-.31,11.38,1.82,16.78,3.92-4.68,5.13-10.21,9.48-16.3,12.82-1.58.87-3.81,1.57-4.99.19-.88-1.03.21-3.22.41-3.63,1.19-2.4,3.52-3.44,4.58-3.82-.1-.02-.19-.03-.29-.05-1.98-.34-6.77-1.11-7.17-3.77-.25-1.67.75-3.36,2.15-4.31,1.4-.95,3.14-1.27,4.83-1.36Z"/><path class="cls-9" d="M242,129.24c1.97.55,3.91,1.17,5.84,1.85.93.33,1.86.67,2.78,1.03.43.17.86.34,1.29.51.24.1.49.2.73.3.68.28-.96-.42.2.09,3.68,1.62,7.27,3.43,10.73,5.48,1.76,1.04,3.48,2.14,5.17,3.29.82.56,1.62,1.13,2.42,1.71.37.27.74.55,1.11.82.21.16.42.32.63.48-.51-.39-.09-.07.18.14,3.16,2.49,6.16,5.17,8.97,8.04,1.57,1.6,3.08,3.25,4.54,4.95.77.9,1.51,1.82,2.25,2.75.1.12.52.67.02.03.16.21.32.42.48.63.4.53.79,1.06,1.17,1.59,1.38,1.9,3.98,3.02,6.16,1.61,1.89-1.22,3.09-4.12,1.61-6.16-10.19-14.09-23.93-25.55-39.82-32.67-4.57-2.05-9.25-3.8-14.07-5.16-2.26-.64-5,.78-5.54,3.14s.72,4.85,3.14,5.54h0Z"/><path class="cls-7" d="M360.64,357.59c12.59-6.82,22.03-17.1,30.74-27.61,8.7-10.51,16.95-21.48,27.81-30.2,10.87-8.73,24.84-15.16,40.5-14.89,11.45.19,24.84,5.3,29.48,15.18,4.53,9.63-.92,19.28-6.31,27.3-9.06,13.49-18.27,26.88-27.65,40.17-13.82,19.59-28.88,39.67-52.53,49.7-7.64,3.24-16.35,5.35-25.34,4.02-9-1.32-18.26-6.67-21.91-14.37-3.05-6.43-1.88-13.26-.64-19.64,1.97-10.18,3.94-20.35,5.92-30.53"/><path class="cls-6" d="M371.51,356.91c9-5.13,16.02-12.75,22.49-20.71,6.47-7.96,12.84-15.85,20.58-22.64.95-.83,1.92-1.65,2.89-2.46.49-.4.98-.8,1.48-1.2.28-.22.55-.44.83-.66.74-.58-.39.29.43-.33,2.1-1.58,4.23-3.12,6.42-4.58,4.47-2.98,9.13-5.71,13.95-8.09,1.14-.57,2.29-1.11,3.46-1.63-.07.03,1.21-.53.64-.28s.73-.3.65-.27c.67-.27,1.34-.53,2.01-.78,2.58-.95,5.22-1.75,7.91-2.32.64-.14,1.29-.26,1.93-.37.36-.06.72-.12,1.08-.17-.19.03-.8.09.11-.01,1.47-.17,2.94-.27,4.42-.29,1.35-.02,2.71.03,4.05.15.27.02,1.8.22,1.08.11.71.11,1.42.23,2.12.39,1.12.25,2.22.56,3.31.92.55.18,1.09.39,1.63.6.8.31.15.06,0,0,.35.16.71.31,1.06.48,1.11.53,2.18,1.11,3.23,1.75.49.3.98.61,1.45.94.21.14.42.29.63.44.26.18.92.7.3.21.88.7,1.72,1.43,2.52,2.22.43.43.85.87,1.25,1.33.16.18.32.36.47.55.11.14.77,1.09.18.21.59.86,1.18,1.71,1.67,2.63.11.2.21.4.31.6.02.05.48,1.05.19.38s.12.34.14.39c.11.31.21.62.3.94.12.42.22.84.31,1.26.02.1.12,1.12.07.36s0,.29.01.37c.03.5.03,1.01,0,1.51-.01.22-.12,1.15,0,.29-.06.42-.15.83-.25,1.24-.13.54-.29,1.08-.47,1.61.02-.06-.47,1.22-.23.64s-.32.67-.29.61c-.59,1.21-1.27,2.38-1.99,3.51-3.23,5.09-6.81,9.98-10.23,14.94-6.37,9.26-12.69,18.57-19.17,27.76-2.79,3.95-5.62,7.88-8.53,11.74-.7.93-1.41,1.85-2.11,2.78-.76.99.34-.44-.13.16-.2.25-.4.51-.6.76-.4.51-.8,1.02-1.2,1.52-1.52,1.92-3.07,3.83-4.65,5.71-6.22,7.41-12.91,14.46-20.26,20.77-.88.76-1.78,1.51-2.68,2.24-.5.41-1.01.82-1.51,1.22-.2.16-.41.32-.61.48-1.01.8.71-.54-.32.25-1.97,1.5-3.97,2.95-6.02,4.34-4.11,2.78-8.38,5.3-12.81,7.53-2.23,1.13-4.51,2.18-6.81,3.16-2.17.93-2.82,4.29-1.61,6.16,1.46,2.26,3.83,2.6,6.16,1.61,19.05-8.1,35.27-21.45,48.92-36.84s25.96-33.9,38.04-51.46c3.68-5.35,7.36-10.7,11.04-16.05,3.44-5,6.77-10.03,7.29-16.25.87-10.53-8.07-19.55-16.77-23.93-21.73-10.93-46.36,1.59-64.09,14.67-8.87,6.54-16.73,14.08-23.72,22.6-6.51,7.94-12.65,16.29-20.74,22.73-.68.54-.18.13-.03.03-.27.2-.53.4-.8.6-.49.35-.98.7-1.48,1.04-1.12.76-2.28,1.47-3.46,2.14-2.05,1.17-2.92,4.13-1.61,6.16s3.97,2.86,6.16,1.61h0Z"/></svg>