<?xml version="1.0" encoding="UTF-8"?><svg id="_图层_16" xmlns="http://www.w3.org/2000/svg" xmlns:xlink="http://www.w3.org/1999/xlink" viewBox="0 0 631.03 676.47"><defs><style>.cls-1{fill:#fffdf0;}.cls-2{fill:#95d9f6;}.cls-3{fill:#fff;}.cls-4{fill:#93ad40;}.cls-5{fill:url(#New_Gradient_Swatch-3);}.cls-5,.cls-6,.cls-7{stroke:#b9e2f9;stroke-miterlimit:10;stroke-width:8px;}.cls-8{fill:url(#New_Gradient_Swatch-2);}.cls-9{fill:#c49a6c;}.cls-10{fill:#a57c51;}.cls-6{fill:url(#New_Gradient_Swatch-4);}.cls-11{fill:#f6cf91;}.cls-12{fill:url(#New_Gradient_Swatch);}.cls-13{fill:#379ed9;}.cls-14{fill:#fffef9;}.cls-15{fill:#b9e2f9;}.cls-16{opacity:.58;}.cls-17{fill:url(#linear-gradient);}.cls-7{fill:none;}</style><linearGradient id="New_Gradient_Swatch" x1="233.21" y1="545.56" x2="393.12" y2="545.56" gradientUnits="userSpaceOnUse"><stop offset="0" stop-color="#fff"/><stop offset=".97" stop-color="#edf8fd"/></linearGradient><linearGradient id="New_Gradient_Swatch-2" x1="234.05" y1="508.87" x2="392.23" y2="508.87" xlink:href="#New_Gradient_Swatch"/><linearGradient id="New_Gradient_Swatch-3" x1="162.76" y1="342.74" x2="455.01" y2="342.74" xlink:href="#New_Gradient_Swatch"/><linearGradient id="New_Gradient_Swatch-4" x1="162.16" y1="413.56" x2="455.61" y2="413.56" xlink:href="#New_Gradient_Swatch"/><linearGradient id="linear-gradient" x1="203.09" y1="350.11" x2="369.32" y2="183.88" gradientUnits="userSpaceOnUse"><stop offset="0" stop-color="#d8db86"/><stop offset=".58" stop-color="#f0eeaf"/><stop offset="1" stop-color="#fffac9"/></linearGradient></defs><path class="cls-3" d="M315.7,583.14c-8.89,0-18.2-.37-27.69-1.1-12.56-.96-25.94-2.56-40.9-4.88-7.17-1.11-19.17-2.97-27.97-13.11-7.61-8.77-10.57-20.37-7.98-31.13-.35-5.45.86-10.95,3.51-15.92,5.36-10.07,14.7-14.86,20.87-18.03l.47-.24c3.9-2.01,7.74-3.72,11.44-5.38,2.35-1.05,4.63-2.07,6.81-3.11-26.71-8.36-50.55-22.6-69.34-41.48-26.61-26.74-41.26-61.12-41.26-96.81,0-5.09,1.95-9.9,5.48-13.56,2.37-2.82,5.58-5.2,9.57-7.1-1.35-7.77.44-16.01,5.08-23.03.99-1.5,2.1-2.92,3.3-4.23-2.7-6.09-5.47-12.39-7.52-19.51-2.67-9.3-3.52-18.71-2.53-27.96.88-8.18,3.08-16.49,6.56-24.69,4.08-9.64,9.58-18.22,14.41-25.34,6.73-9.92,14.61-18.42,23.42-25.26,12.1-9.4,27.07-16.39,45.75-21.37,7.23-1.93,15.01-3.58,24.49-5.2,9.86-1.69,17.52-2.8,24.82-3.62,6.64-.74,12.79-1.1,18.8-1.1,12.56,0,23.91,1.58,34.68,4.83,14.87,4.48,28.95,11.9,41.85,22.06l33.78-24.19c5.77-4.13,12.59-6.31,19.73-6.31,10.29,0,19.86,4.52,26.25,12.41l8.48,10.47c5.71,7.05,8.19,15.87,6.98,24.83-1.22,9.02-6,16.92-13.46,22.27l-35.36,25.32c1.35,3.34,2.63,6.77,3.82,10.23.11.16.21.32.32.48,5.82,8.85,8.91,18.9,8.93,29.06.01,4.89-.7,9.85-2.12,14.78,6.07,9.81,8.35,21.61,6.39,32.93.75.24,1.46.48,2.13.73,5.38,1.98,9.63,4.75,12.64,8.25,3.7,3.68,5.73,8.58,5.73,13.8,0,.49,0,.99,0,1.48.46,1.68.69,3.42.69,5.17,0,2.69-.5,5.31-1.49,7.79-3.17,28.55-15.7,55.47-36.27,77.89-18.93,20.63-43.5,36.19-71.42,45.3,3.08,1.8,6.37,3.51,9.84,5.31,1.1.57,2.19,1.14,3.27,1.7l16.35,8.58c.33.17.65.34.97.5,2.77,1.42,6.94,3.55,10.77,7.35,4.62,4.59,7.54,10.61,8.23,16.98,4.17,16.19-4.28,33.17-20.18,40.47-4.76,2.19-9.27,3.38-13.25,4.43l-.1.03c-3.84,1.01-7.75,1.93-11.65,2.74-17.45,3.63-36.34,5.47-56.16,5.47Z"/><path class="cls-13" d="M445.36,149.88c9.23,0,17.81,4.05,23.53,11.11l8.48,10.47c5.1,6.3,7.32,14.17,6.24,22.16-1.08,8.05-5.36,15.11-12.03,19.89l-37.61,26.94c1.77,4.23,3.43,8.58,4.96,13.04.19.27.37.55.55.82,5.45,8.29,8.34,17.68,8.36,27.15.01,5.07-.82,10.24-2.44,15.31,6.6,9.86,9.02,22.2,6.31,34.02-.06.27-.13.54-.2.81,1.86.51,3.52,1.03,5.02,1.58,5.4,1.98,8.95,4.6,11.28,7.35,2.96,2.9,4.79,6.95,4.79,11.42,0,.65,0,1.3-.01,1.95.45,1.48.7,3.06.7,4.69,0,2.41-.49,4.75-1.42,6.91-6.12,57.21-50.89,105.56-112.32,122.85.07.06.52.43.52.43.14.11.42.33.42.33l.31.23c.18.13.39.28.6.43.37.26.71.49,1.06.72.82.54,1.68,1.08,2.62,1.64,3.38,2.02,6.98,3.88,10.78,5.86,1.08.56,2.17,1.13,3.25,1.69l16.35,8.58c.33.18.67.35,1.01.52,2.72,1.39,6.45,3.3,9.89,6.72,4.14,4.12,6.69,9.53,7.24,15.12,3.9,14.63-3.75,30.03-18.18,36.66-4.49,2.06-8.84,3.21-12.69,4.22l-.11.03c-3.76.99-7.61,1.9-11.46,2.7-17.21,3.58-35.87,5.4-55.45,5.4-8.8,0-18.03-.37-27.43-1.08-12.46-.96-25.76-2.54-40.63-4.85-6.69-1.04-17.9-2.77-25.86-11.94-7.06-8.13-9.59-18.93-7.09-28.54-.42-4.96.61-9.97,3.07-14.58,4.85-9.1,13.59-13.59,19.38-16.56l.48-.25c3.81-1.96,7.6-3.66,11.27-5.29,5.28-2.36,10.3-4.6,14.59-7.31-29.25-7.66-55.73-22.52-76.07-42.95-25.95-26.08-40.25-59.58-40.25-94.34,0-4.37,1.75-8.32,4.58-11.21,2.29-2.76,5.79-5.35,11.03-7.38-2.13-7.43-.81-15.98,3.94-23.17,1.32-2,2.85-3.81,4.55-5.4-.01-.03-.75-1.69-.75-1.69-2.72-6.13-5.54-12.46-7.57-19.54-2.55-8.87-3.36-17.82-2.41-26.62.84-7.84,2.96-15.81,6.3-23.7,3.96-9.36,9.34-17.76,14.08-24.74,6.53-9.62,14.15-17.85,22.67-24.46,11.72-9.1,26.28-15.89,44.51-20.75,7.12-1.9,14.81-3.53,24.18-5.14,9.79-1.67,17.38-2.78,24.62-3.59,6.51-.73,12.54-1.08,18.42-1.08,12.21,0,23.23,1.53,33.67,4.68,14.57,4.39,28.37,11.7,41.02,21.72.57.45,1.15.92,1.72,1.39l35.94-25.74c5.17-3.7,11.29-5.66,17.7-5.66M445.36,142.88c-7.88,0-15.41,2.41-21.77,6.97l-31.66,22.67c-12.67-9.6-26.43-16.68-40.92-21.05-11.11-3.35-22.79-4.98-35.7-4.98-6.14,0-12.42.37-19.19,1.12-7.38.82-15.1,1.94-25.03,3.64-9.59,1.64-17.47,3.32-24.8,5.27-19.15,5.1-34.52,12.3-47,21.99-9.09,7.06-17.22,15.83-24.17,26.06-4.93,7.26-10.54,16.03-14.74,25.94-3.61,8.52-5.91,17.17-6.82,25.69-1.04,9.7-.15,19.55,2.64,29.29,1.88,6.56,4.33,12.37,6.79,17.94-.75.93-1.46,1.9-2.13,2.9-4.63,7.01-6.69,15.12-5.96,22.98-3.37,1.88-6.17,4.13-8.38,6.73-4.12,4.3-6.38,9.94-6.38,15.9,0,36.62,15.02,71.88,42.28,99.28,17.19,17.27,38.5,30.73,62.34,39.49-3.36,1.51-6.82,3.08-10.37,4.9l-.48.24c-6.16,3.16-16.48,8.46-22.36,19.5-2.87,5.39-4.23,11.34-3.94,17.26-2.65,11.72.62,24.24,8.86,33.73,9.64,11.11,22.93,13.17,30.07,14.27,15.06,2.33,28.53,3.94,41.17,4.91,9.58.73,18.98,1.11,27.96,1.11,20.06,0,39.2-1.86,56.88-5.54,3.96-.82,7.93-1.76,11.82-2.78l.13-.04c3.9-1.03,8.77-2.31,13.8-4.63,17.36-7.97,26.61-26.53,22.17-44.28-.83-7.07-4.09-13.74-9.21-18.83-4.22-4.19-8.68-6.47-11.63-7.98-.32-.16-.63-.32-.94-.48l-16.36-8.59c-1.09-.57-2.18-1.14-3.27-1.71-.98-.51-1.94-1.01-2.89-1.51,25.4-9.53,47.8-24.43,65.42-43.64,20.96-22.85,33.78-50.28,37.11-79.41,1.04-2.76,1.56-5.66,1.56-8.63,0-1.9-.23-3.78-.69-5.6,0-.35,0-.7,0-1.05,0-6.12-2.36-11.85-6.66-16.19-3.29-3.79-7.82-6.8-13.47-8.96,1.21-10.74-1.06-21.69-6.49-31.09,1.24-4.76,1.86-9.54,1.85-14.27-.02-10.84-3.31-21.55-9.51-30.98-.03-.04-.05-.08-.08-.12-.87-2.49-1.78-4.97-2.72-7.41l33.14-23.73c8.26-5.91,13.55-14.66,14.89-24.65,1.34-9.92-1.41-19.69-7.73-27.5l-8.48-10.47c-7.06-8.71-17.62-13.7-28.97-13.7h0Z"/><path class="cls-9" d="M321.78,293.06c-3.78,0-7.25-1.62-9.54-4.44l-8.48-10.47c-1.95-2.4-2.79-5.39-2.39-8.42.42-3.08,2.08-5.81,4.67-7.67l131.1-93.89c2.09-1.5,4.59-2.29,7.22-2.29,3.78,0,7.25,1.62,9.54,4.44l8.48,10.47c1.95,2.4,2.79,5.39,2.39,8.42-.42,3.08-2.08,5.81-4.67,7.67l-131.1,93.89c-2.09,1.5-4.59,2.29-7.21,2.29h0Z"/><path class="cls-10" d="M444.36,167.88c3.03,0,6.02,1.28,7.99,3.7l8.48,10.47c3.34,4.12,2.48,10.06-1.9,13.2l-131.1,93.89c-1.8,1.29-3.93,1.92-6.05,1.92-3.03,0-6.02-1.28-7.99-3.7l-8.48-10.47c-3.34-4.12-2.48-10.06,1.9-13.2l131.1-93.89c1.8-1.29,3.93-1.92,6.05-1.92M444.36,163.88c-3.05,0-5.95.92-8.38,2.66l-131.1,93.89c-3.05,2.18-5,5.39-5.49,9.03-.48,3.58.52,7.11,2.81,9.94l8.48,10.47c2.67,3.29,6.71,5.18,11.1,5.18,3.05,0,5.95-.92,8.38-2.66l131.1-93.89c3.05-2.18,5-5.39,5.49-9.03.48-3.58-.52-7.11-2.81-9.94l-8.48-10.47c-2.67-3.29-6.71-5.18-11.1-5.18h0Z"/><path class="cls-12" d="M234.38,534.35c-2.44,3.83-.76,9.65,2.47,12.58s7.5,3.7,11.56,4.34c43.89,6.93,89.05,9.66,132.06-2.67,3.23-.93,6.54-1.99,9.13-4.42,2.59-2.42,4.27-6.57,3.2-10.22"/><path class="cls-2" d="M230.49,532.08c-3.31,5.48-1.65,12.57,2.37,17.2,4.06,4.67,10.46,5.73,16.23,6.62,13.07,2.03,26.21,3.69,39.4,4.7,26.16,2,52.65,1.33,78.4-4.02,3.57-.74,7.11-1.58,10.63-2.5s6.94-1.82,10.2-3.32c6.75-3.1,11.41-10.5,9.4-17.99-.61-2.27-3.23-3.89-5.54-3.14-2.33.76-3.79,3.1-3.14,5.54,0,.01.29,1.22.15.51s.01.48.01.53c0,.25-.02.5-.02.75-.02,1.13.19-.52-.02.11-.18.53-.31,1.1-.48,1.64.25-.79.11-.23,0-.03-.21.38-.41.77-.65,1.14-.13.21-.65.86-.05.14-.15.19-.31.37-.48.55s-.33.34-.5.51c.05-.05-1,.83-.51.46s-.61.4-.56.37c-.23.15-.47.29-.7.42-.3.17-.6.33-.9.48-.18.09-.37.18-.55.26.39-.16.43-.18.14-.06-5.45,2.06-11.28,3.34-16.97,4.58-2.93.64-5.87,1.21-8.83,1.73-1.4.24-2.8.47-4.2.69-.78.12-1.56.24-2.34.35-.31.04-.62.09-.94.13-.08.01-1.43.19-.67.09-6,.79-12.04,1.35-18.09,1.7-12.05.7-24.13.57-36.18-.14-6.08-.36-12.16-.87-18.22-1.5-2.99-.31-5.99-.65-8.97-1.02-1.49-.18-2.99-.38-4.48-.57-.09-.01-.88-.12-.22-.03-.31-.04-.63-.08-.94-.13-.94-.13-1.88-.26-2.82-.39-3.29-.47-6.58-.96-9.86-1.48-1.41-.22-2.82-.46-4.21-.79-.63-.15-1.26-.32-1.88-.52-.31-.1-.61-.23-.92-.32-.3-.12-.24-.09.17.09-.18-.08-.35-.16-.53-.25-.65-.32-1.26-.68-1.86-1.09-.71-.48-.18-.15-.04-.03-.27-.24-.53-.47-.78-.73-.15-.16-.81-1.03-.17-.12-.2-.28-.4-.57-.58-.86-.12-.2-.24-.4-.34-.61s-.46-1.2-.13-.21c-.2-.62-.42-1.22-.55-1.87-.09-.44-.42-.77-.03-.02-.13-.24-.05-.79-.05-1.04,0-.08.03-.69.03-.69-.09.57-.11.69-.05.35.03-.17.06-.33.1-.5.07-.27.17-.54.25-.81.12-.31.08-.21-.12.3.1-.2.21-.4.34-.59,1.22-2.02.51-5.03-1.61-6.16-2.18-1.15-4.86-.54-6.16,1.61h0Z"/><path class="cls-8" d="M290.39,476.62c1.01,7.7-2.72,15.45-8.34,21.13-5.61,5.69-12.94,9.59-20.35,13.01-7.41,3.42-15.06,6.47-21.89,10.82-3,1.91-6.13,4.69-5.73,8.08.26,2.2,2.03,4.04,4.11,5.08s4.45,1.4,6.78,1.73c46.8,6.69,94.77,6.14,141.38-1.62,2.44-.41,5.38-1.28,5.82-3.57.46-2.36-2.11-4.17-4.34-5.34-8.4-4.41-16.79-8.81-25.19-13.22-7.46-3.91-15.07-7.94-20.75-13.93-5.68-5.99-9.19-14.43-6.9-22.17"/><path class="cls-15" d="M285.89,476.62c.14,1.19.2,2.38.14,3.58-.01.26-.04.53-.06.79-.06,1.25.13-.57,0,.18s-.26,1.43-.44,2.15c-.13.52-.28,1.03-.45,1.54-.08.25-.17.51-.26.76.01-.04-.46,1.19-.22.59s-.28.61-.26.58c-.12.25-.24.49-.36.73-.31.61-.64,1.21-.99,1.79-.32.53-.65,1.05-1,1.56-.19.28-.4.56-.59.84-.08.11-.52.67-.05.08-.81,1.03-1.69,2.01-2.62,2.94s-1.83,1.74-2.79,2.55c-.22.18-.43.36-.65.53-.15.12-.88.67-.25.2-.56.42-1.13.84-1.71,1.24-9.06,6.3-19.63,9.8-29.38,14.82-4.68,2.41-10.47,5.25-13.05,10.1-1.6,3-1.72,6.38-.18,9.43,1.35,2.66,3.88,4.49,6.56,5.62,2.7,1.14,5.57,1.47,8.45,1.87,3.21.44,6.41.86,9.63,1.25,5.87.7,11.76,1.29,17.65,1.77,23.91,1.93,47.98,2.01,71.9.23,12.11-.9,24.19-2.29,36.2-4.11,5.02-.76,11.95-.92,14.75-5.97,1.76-3.17.71-6.95-1.76-9.39-1.99-1.97-4.62-3.14-7.06-4.42-5.45-2.86-10.9-5.72-16.35-8.58-4.95-2.6-9.97-5.11-14.78-7.97-1.1-.66-2.19-1.33-3.26-2.04-.47-.31-.94-.63-1.4-.96-.29-.2-.58-.41-.86-.62-.12-.09-1.05-.78-.73-.54.49.37-.6-.48-.54-.43-.22-.18-.43-.36-.65-.54-.43-.36-.85-.73-1.27-1.11-1.02-.93-2-1.9-2.91-2.94-.35-.4-.7-.81-1.03-1.23.52.66-.02-.04-.14-.21-.2-.27-.39-.55-.57-.82-.67-.99-1.27-2.03-1.81-3.1-.15-.29-.27-.6-.43-.89-.35-.67.35.97-.09-.19-.18-.49-.37-.98-.53-1.47-.2-.62-.37-1.24-.52-1.87-.06-.25-.11-.5-.16-.76-.05-.24-.19-1.38-.07-.32-.13-1.14-.17-2.29-.09-3.43.02-.25.04-.51.07-.76-.01.17-.17.91,0,.06.12-.64.27-1.26.44-1.88.64-2.26-.79-5-3.14-5.54-2.39-.55-4.85.72-5.54,3.14-2.97,10.46,2.23,21.24,9.84,28.31,7.94,7.37,18.11,11.94,27.6,16.93,5.23,2.74,10.46,5.49,15.69,8.23,1.14.6,2.27,1.2,3.37,1.87.18.11.63.52,0-.04.18.16.36.33.54.49.57.47.11.08-.02-.12.33.51.3.75.11.09-.11-.39-.06-.73.04-1.1-.26.96.39-.67.08-.13-.29.51.58-.66.16-.24s.95-.47.07-.06c-.12.05-.46.32-.56.3.02,0,1.05-.36.16-.08-.54.17-1.07.33-1.63.45-2.69.59-5.45.92-8.17,1.32-1.36.2-2.72.4-4.09.59-.72.1-1.44.2-2.17.3-.08.01-.88.12-.25.03-.48.06-.96.13-1.45.19-5.78.75-11.58,1.39-17.39,1.92-23.08,2.11-46.33,2.48-69.47,1.12-5.82-.34-11.64-.79-17.45-1.36-2.82-.27-5.64-.57-8.46-.9-1.37-.16-2.73-.32-4.1-.49-.72-.09-1.45-.18-2.17-.28-.32-.04-.64-.08-.96-.13-.24-.03-.48-.06-.72-.1.31.04.31.04,0,0-2.69-.37-5.49-.61-8.09-1.44-.1-.03-.95-.33-.48-.15.53.2-.59-.3-.58-.29-.22-.12-.42-.25-.63-.38s-.55-.52.03.04c-.22-.21-1.09-1.18-.52-.4-.17-.24-.3-.51-.46-.75-.31-.44.3.74,0-.05-.34-.91-.1.51,0-.03.04-.19.21-.83,0-.28-.26.68.16-.36.18-.41-.07.21-.43.75,0,.11.13-.19.27-.42.39-.62-.38.68-.19.22-.01.03.44-.47.9-.92,1.38-1.35.62-.56.16-.15,0-.04.26-.2.53-.39.8-.57.52-.36,1.05-.69,1.58-1.02,1.17-.72,2.36-1.41,3.57-2.07,9.45-5.15,19.78-8.54,28.93-14.26,8.79-5.49,16.97-13.58,19.1-24.11.53-2.61.74-5.28.42-7.93-.28-2.33-1.87-4.62-4.5-4.5-2.2.1-4.8,2-4.5,4.5h0Z"/><path class="cls-5" d="M162.76,349.95c0-7.96,65.42-14.42,146.13-14.42s146.13,6.46,146.13,14.42"/><path class="cls-6" d="M455.61,349.95c0,70.26-65.69,127.21-146.72,127.21s-146.72-56.95-146.72-127.21"/><g class="cls-16"><path class="cls-14" d="M432.72,385.4c-2.88,10.92-7.64,19.26-10.61,24.38-4.35,7.52-10.56,18.01-22.39,27.7-12.64,10.36-25.24,14.5-35.36,17.73-15.12,4.82-26.93,5.69-40.07,6.65-19.12,1.4-34.03,2.49-53.04-2.22-17.83-4.41-30.65-11.8-38.89-16.62-7.13-4.17-13.26-7.82-20.04-14.41-9.42-9.17-14.33-18.44-17.8-25.12-5.14-9.89-7.47-17.94-8.12-20.31-2.55-9.18-3.35-17.23-3.54-23.27,1.86-3.71,4.58-9.02,7.99-15.34,13.25-24.54,19.42-37.36,28.59-43.77,15.68-10.94,31.22-12.88,39.81-13.85,8.53-.96,20.68-1.21,50.81,6.41,33.82,8.56,34.96,16.09,58.37,19.03,21.81,2.74,29.01-2.53,38.27-1.26,0,0,3.58.65,7.13,2.19,15.25,6.62,27.14,40.81,18.88,72.05Z"/><path class="cls-11" d="M429.83,384.6c-2.55,9.55-7.02,18.19-12.05,26.65-5.51,9.27-12.15,17.61-20.56,24.42-8.75,7.08-18.93,11.79-29.54,15.32-5.53,1.84-11.11,3.49-16.82,4.69s-10.95,1.87-16.48,2.38c-11.93,1.11-24.01,2.14-35.99,1.99-12.4-.15-24.59-2.25-36.34-6.23-9.16-3.11-17.8-7.38-26.16-12.22-4.4-2.55-8.82-5.1-12.98-8.04-5.04-3.57-9.58-7.85-13.58-12.55-6.72-7.9-11.92-17.41-15.93-26.94-3.65-8.67-6.11-17.86-7.06-27.22-.23-2.3-.38-4.61-.46-6.93-.14.5-.27,1.01-.41,1.51,6.48-12.91,13.31-25.72,20.44-38.28,2.53-4.46,5.15-8.89,8.26-12.97.21-.27-.08.1-.1.13.1-.13.2-.25.3-.38.15-.18.29-.37.44-.55.34-.41.69-.82,1.04-1.23.65-.74,1.32-1.46,2.03-2.14s1.37-1.27,2.09-1.87c.27-.22.42-.32.03-.03.16-.12.32-.24.48-.36.69-.51,1.41-.99,2.12-1.46,6.34-4.18,13.26-7.31,20.57-9.35,2.97-.83,5.98-1.49,9.02-2.01.64-.11,1.29-.21,1.94-.31.29-.04.57-.09.86-.13.21-.03,1.17-.16.58-.08,1.08-.14,2.17-.27,3.25-.39,6.99-.79,13.95-.57,20.93.29.28.03.56.07.84.11.14.02.28.04.42.06-.13-.02-.54-.08.07,0,.65.09,1.29.18,1.94.28,1.44.22,2.89.46,4.33.71,3.34.59,6.67,1.25,9.98,1.98,7.84,1.71,15.66,3.63,23.32,6.02,2.99.93,5.96,1.94,8.89,3.04,1.27.48,2.54.97,3.8,1.48.56.23,1.13.46,1.69.69.53.22-.24-.1.28.12.32.14.65.28.97.42,4.01,1.73,7.96,3.6,12.01,5.22,10.25,4.12,21.54,5.82,32.55,5.78,5.29-.02,10.51-.69,15.72-1.52.98-.16,1.96-.31,2.94-.45.19-.03-.58.07.04,0,.24-.03.48-.06.72-.08.47-.05.95-.1,1.42-.13.87-.06,1.74-.09,2.61-.07.44.01.87.03,1.31.07.24.02.47.05.71.07.64.05-.62-.14-.27-.03,2.57.8,5.21,1.2,7.61,2.51.44.24.87.5,1.29.78.2.13.4.26.59.4.14.1.87.67.36.26.86.7,1.68,1.44,2.46,2.23,1.94,1.99,2.91,3.34,4.4,5.72,1.46,2.34,2.83,5.04,3.84,7.44,5.28,12.55,6.86,27.04,5.28,40.67-.41,3.55-1.12,7.07-2.02,10.52-.98,3.74,4.81,5.33,5.79,1.6,3.47-13.3,3.67-27.39.87-40.83-2.18-10.47-6.31-21.55-13.9-29.36-6.03-6.2-14.68-8.81-23.16-7.75-2.04.26-4.07.59-6.1.91-.4.06-.81.12-1.21.19-.25.04-.5.07-.75.11-.1.01-.96.13-.23.03-1.2.16-2.41.3-3.61.41-6.19.56-12.42.32-18.59-.43-.62-.07-1.04-.13-1.32-.17-.62-.09-1.25-.18-1.87-.28-1.25-.2-2.49-.43-3.73-.68-2.01-.42-4.01-.92-5.98-1.51-1.8-.54-3.57-1.16-5.33-1.85-.8-.31-1.59-.63-2.38-.96.75.31-.52-.23-.72-.31-.48-.21-.97-.42-1.45-.64-9.21-4.07-18.4-7.86-28.09-10.64-12.39-3.56-25.11-6.45-37.91-8.07-6.51-.82-13.08-1.16-19.63-.52-10.66,1.05-21.07,3.24-30.86,7.7-5.4,2.46-10.86,5.49-15.27,9.51-2.91,2.66-5.35,5.84-7.56,9.09-6.63,9.71-11.83,20.43-17.4,30.77-3.11,5.78-6.37,11.55-9.15,17.5-.68,1.45-.35,3.25-.25,4.81.09,1.47.22,2.93.38,4.39.4,3.64.96,7.25,1.74,10.83,2.37,10.98,6.82,21.35,12.23,31.16,6.66,12.08,15.68,22.56,27.16,30.29,4.67,3.15,9.59,5.96,14.5,8.71,4.82,2.7,9.75,5.17,14.83,7.33,13.6,5.77,28.02,9.29,42.8,9.99,6.95.33,13.91.06,20.86-.37,7.02-.44,14.05-.91,21.05-1.6,6.9-.68,13.78-1.68,20.53-3.3,6.16-1.48,12.24-3.42,18.19-5.61,13.55-4.99,25.94-12.53,35.8-23.17,7.46-8.05,13.36-17.59,18.36-27.33,3-5.84,5.47-11.97,7.17-18.32,1-3.73-4.79-5.33-5.79-1.6Z"/></g><path class="cls-7" d="M456.29,356.6c0,7.96-65.42,14.42-146.13,14.42s-146.13-6.46-146.13-14.42"/><path class="cls-14" d="M185.57,333.01c3.02,11.25,15.43,19.11,18.22,20.87,10.86,6.88,21.82,7.79,30.51,8.35,32.83,2.11,60.35.85,66.8.53,37.76-1.84,57.9-3.03,79.59-8.08,10.84-2.52,16.7-5.08,28.41-10.2,14.83-6.48,18.45-10.01,20.69-13.87,5.08-8.74,2.33-17.9,2.01-18.91-2.44-7.69-8.12-11.92-10.05-13.23,2.72-4.18,6.62-11.65,6.03-20.8-1.35-20.79-24.8-32.9-32.6-36.93-16.62-8.58-32.24-9.12-40.88-9.33-8.56-.21-20.65.49-49.85,9.61-26.32,8.22-39.81,12.43-56.15,21.47-5.04,2.79-70.94,39.95-62.73,70.49Z"/><path class="cls-11" d="M182.68,333.8c2.58,9.29,10.15,16.39,17.93,21.59,4.57,3.05,9.55,5.43,14.82,6.99,5.58,1.64,11.38,2.33,17.17,2.74,21.69,1.52,43.53,1.72,65.25.79,20.55-.87,41.25-1.67,61.65-4.39,9.36-1.24,18.74-2.87,27.84-5.44,5.31-1.5,10.44-3.5,15.51-5.64,5.86-2.48,11.77-4.94,17.38-7.96,3.27-1.76,6.59-3.76,9.19-6.44,2.87-2.95,4.78-6.84,5.69-10.82,2.2-9.6-.82-19.52-8.01-26.26-1.2-1.12-2.5-2.14-3.85-3.07.36,1.37.72,2.74,1.08,4.1,3.94-6.09,6.52-13.19,6.5-20.5-.01-6.55-2.15-12.94-5.73-18.39-6.03-9.16-15.25-15.82-24.76-21-5.85-3.19-11.92-5.93-18.32-7.82-6.93-2.05-14.13-3.15-21.33-3.59-8.08-.5-16-.2-24,1.1-14.6,2.39-28.74,6.99-42.81,11.43-13,4.1-26.02,8.3-38.33,14.19-5.86,2.8-11.5,5.99-17.03,9.39-7.82,4.81-15.41,10.01-22.68,15.63-8.29,6.41-16.31,13.42-22.88,21.63-5.78,7.23-11.06,15.9-11.09,25.45,0,2.12.27,4.26.81,6.31.98,3.73,6.77,2.15,5.79-1.6-.12-.47-.23-.94-.33-1.42-.04-.2-.07-.41-.11-.61-.14-.83,0,.24-.03-.22-.07-.96-.15-1.91-.13-2.88.01-.48.04-.97.08-1.45.02-.24.05-.48.07-.73.08-.71-.08.38.02-.14.19-1.02.38-2.02.65-3.02s.59-1.96.96-2.92c.08-.21.16-.42.25-.63.28-.71-.13.27.09-.22.24-.52.47-1.05.72-1.57.98-2.02,2.12-3.95,3.36-5.82.65-.98,1.33-1.94,2.03-2.88.18-.24.36-.48.54-.72-.34.44.13-.17.24-.31.38-.48.76-.95,1.15-1.42,1.62-1.96,3.33-3.85,5.1-5.68,3.59-3.71,7.42-7.18,11.39-10.48.99-.82,1.99-1.63,2.99-2.44.5-.4,1-.79,1.5-1.19.21-.17.43-.33.64-.5.08-.06.45-.35.04-.03.14-.11.29-.22.43-.33,1.96-1.5,3.94-2.96,5.94-4.39,3.61-2.58,7.29-5.07,11.03-7.47,4.26-2.73,8.58-5.39,13.02-7.83,2.64-1.46,5.32-2.84,8.04-4.16,1.32-.64,2.65-1.25,3.99-1.85.67-.3,1.34-.59,2.01-.88.81-.35,1-.43,1.6-.68,5.9-2.45,11.93-4.58,17.99-6.59,14.84-4.93,29.82-9.87,45.08-13.33,2.67-.61,5.36-1.16,8.06-1.63,1.15-.2,2.3-.39,3.46-.56.23-.03.46-.07.7-.1.56-.08-.51.06.22-.03.54-.07,1.08-.14,1.62-.2,3.27-.37,6.55-.55,9.84-.52,12.66.1,25.03,1.74,36.77,6.95,4.23,1.88,8.36,4.1,12.31,6.51,4.65,2.84,8.23,5.42,12.05,9.11,1.01.98,1.99,1.99,2.92,3.05,1.06,1.2,1.55,1.81,2.37,2.97.83,1.17,1.59,2.38,2.28,3.63.35.63.67,1.27.98,1.92.38.8.37.79.71,1.71,1.11,3,1.64,5.65,1.71,8.57.09,3.73-.62,7.36-1.91,10.85-.89,2.42-2.26,4.97-3.77,7.29-.93,1.43-.21,3.22,1.08,4.1.22.15.43.3.65.45.12.09.23.17.35.26.54.39-.53-.45.02.01.68.58,1.37,1.15,2.01,1.78,1.76,1.71,2.89,3.16,4.08,5.32.82,1.48,1.46,3.04,1.86,4.68.19.77.34,1.56.45,2.35-.1-.65.07.72.09.91.05.65.08,1.3.09,1.95.03,4.41-1.28,8.44-3.79,12.09.57-.84.07-.1-.1.1-.19.22-.39.44-.59.65-.47.5-.97.96-1.49,1.41-.25.22-.51.43-.77.63.66-.53-.27.2-.44.32-.78.56-1.59,1.09-2.42,1.59-4.84,2.96-10.09,5.22-15.29,7.48-4.94,2.15-9.9,4.28-15.02,5.97-8.74,2.88-17.88,4.64-26.97,6.01-4.13.62-8.1,1.11-12.66,1.57-4.84.49-9.69.89-14.54,1.23-11.72.83-23.46,1.4-35.2,1.96-18.81.9-37.69.86-56.5-.02-11.76-.55-23.84-.73-34.58-6.12-1.92-.96-3.76-2.06-5.55-3.25-.55-.36-1.09-.73-1.63-1.11-.32-.22-.63-.45-.94-.68-.2-.15-.4-.3-.6-.44-.14-.1-.27-.21-.41-.31.22.17.25.19.08.06-3.52-2.78-6.87-6.01-9.17-9.59-1.33-2.08-2.17-3.82-2.81-6.12-1.03-3.72-6.82-2.14-5.79,1.6Z"/><path class="cls-17" d="M190.18,312.79c6.67-5.67-7.88-23.25-11.26-41.92-4.01-22.12,8.48-41.16,14.52-50.37,3.65-5.57,14.48-23.29,37.72-33.63,16.2-7.21,34.1-10.63,51.9-13.39,14.37-2.23,29.02-4.07,43.49-2.42,24.07,2.76,45.96,15.26,61.78,31.87,15.82,16.6,26,37.07,32.76,58.1-3.2-2.72-8.88-1.31-11.46,1.9-2.58,3.21-2.8,7.48-2.49,11.43.32,3.96,1.06,7.98.07,11.85-1.82,7.08-10.07,12.31-18.07,11.43-8-.87-14.63-7.73-14.52-15,.07-4.34,2.11-9.11-.52-12.74-2.71-3.74-9.1-3.78-13.3-1.42-4.2,2.36-6.83,6.37-9.65,10.04-2.82,3.67-6.33,7.35-11.15,8.37-5.29,1.12-11.35-1.16-16.03,1.33-7.26,3.85-5.2,15.85-12.98,18.75-9.33,3.47-18.67-11.1-27.72-7.08-5.68,2.52-5.16,9.77-5.04,15.49.11,5.09-.89,10.38-4.14,14.53-3.25,4.15-9.13,6.89-14.61,5.72-7.24-1.54-11.06-8.85-11.98-15.51-.92-6.67-.03-13.63-2.56-19.95-2.52-6.32-10.44-11.73-17.2-8.91-4.57,1.91-6.68,6.76-7.2,11.28s.1,9.15-.99,13.58c-1.1,4.43-4.64,8.89-9.65,9.28-5.01.39-9.63-5.65-6.17-8.95-1.79,4.72-3.94,9.66-8.36,12.65-4.03,2.72-11.87,2.35-14.6-1.39-2.15-2.95-.58-7.32,1.35-9.82,2.67-3.49,5.95-3.3,8.06-5.09Z"/><path class="cls-4" d="M192.31,314.91c3.32-2.93,2.86-7.71,1.75-11.55-1.55-5.36-4.16-10.41-6.38-15.51-2.54-5.85-4.85-11.9-5.93-18.21-1.09-6.36-.67-12.95.81-19.19,2.42-10.25,7.48-19.26,13.25-28.06,1.56-2.38,3.11-4.76,4.8-7.06.25-.34.51-.68.76-1.02.12-.16.24-.32.36-.48-.44.57.07-.09.13-.17.7-.89,1.42-1.77,2.15-2.64,1.56-1.83,3.19-3.61,4.9-5.3,8.92-8.87,19.68-15.1,31.57-19.37,14.31-5.13,29.36-7.83,44.35-10.14,15.21-2.34,30.92-4.18,46.22-1.5,12.97,2.28,25.28,7.39,36.29,14.58,22.66,14.8,38.09,37.98,47.54,62.99,1.19,3.15,2.29,6.33,3.33,9.53,1.67-.97,3.34-1.95,5.01-2.92-5.56-4.46-14.06-1.93-17.27,4.19-1.75,3.33-2.08,7.17-1.83,10.86.27,3.86,1.21,7.96.12,11.77-1.4,4.93-7.01,8.62-12.18,8.97-5.7.38-11.15-2.73-13.56-7.9-.11-.24-.42-1.09-.56-1.65-.2-.77-.25-1.15-.28-1.67-.09-1.57.16-3.12.38-4.67.55-3.84.78-7.73-1.75-10.97-4.16-5.33-12.66-4.79-17.86-1.42-6,3.89-8.72,10.78-14.2,15.16-2.53,2.02-5.29,2.7-8.48,2.64-3.63-.06-7.37-.64-10.91.44-5.96,1.83-8.15,7.26-10.07,12.63-.19.53-.38,1.07-.58,1.59-.1.26-.2.52-.31.78-.18.44.18-.39-.02.05-.08.17-.15.33-.23.5-.23.48-.48.96-.76,1.42-.14.22-.28.44-.43.66-.19.28.05-.05.08-.08-.13.17-.28.33-.42.49-.18.19-.36.37-.55.55-.09.09-.19.17-.29.26.04-.03.37-.26.08-.07-.22.15-.45.3-.68.43-.12.07-.24.13-.36.19-.76.39.27-.08-.2.08-.27.09-.53.17-.81.24-.13.03-.84.16-.54.12s-.42.02-.54.02c-.36,0-.72-.02-1.08-.04s.08.02.13.02c-.13-.02-.27-.04-.4-.07-.27-.06-.54-.11-.81-.18-.64-.17-1.26-.38-1.88-.62-.32-.12-.01,0,.05.03-.14-.06-.27-.12-.4-.18-.27-.12-.54-.25-.81-.38-.63-.31-1.26-.65-1.88-.99-2.27-1.26-4.47-2.67-6.81-3.81-5.1-2.47-11.67-3.36-15.81,1.47-4.14,4.84-3.09,11.37-3.25,17.23-.17,6.22-2.76,12.6-8.76,15.02-2.65,1.07-5.77,1.19-8.11.15-2.54-1.12-4.2-2.95-5.54-5.31-1.27-2.24-2.1-4.95-2.43-7.63-.47-3.87-.36-7.79-.76-11.67s-1.14-7.72-3.16-11.03c-1.73-2.84-4.26-5.3-7.17-6.92-3.06-1.69-6.51-2.46-9.98-1.9-3.45.56-6.35,2.63-8.41,5.39-2,2.68-2.94,5.99-3.34,9.27-.48,3.91.05,7.92-.66,11.8-.5,2.72-1.73,5.33-3.79,6.88-1.05.79-2.28,1.3-3.36,1.36-.16,0-.84-.01-.68,0,.12.01-.6-.15-.8-.21-.47-.14.03.06-.41-.17-.31-.17-.62-.35-.91-.56s-.04-.04.01,0c-.11-.1-.23-.2-.33-.3-.09-.1-.69-.78-.4-.39-.17-.23-.3-.48-.45-.72-.28-.44,0,.2-.13-.29-.07-.23-.14-.76-.1-.23,0-.13,0-.26-.01-.38-.05-.45-.06.49-.03.04.01-.12.06-.25.1-.37-.01.04-.21.43-.04.12.06-.12.15-.23.21-.34-.06.12-.34.39.09-.04-1.67-.97-3.34-1.95-5.01-2.92-1.12,2.94-2.36,6.03-4.42,8.46-.98,1.15-2.08,2.18-3.41,2.89-.13.07-.26.13-.39.19.06-.03.36-.14.04-.02s-.67.23-1.01.32c-.3.08-.6.15-.91.21-.15.03-.31.06-.46.08-.56.09.69-.04-.3.03-.64.05-1.28.07-1.92.04-.21,0-.42-.03-.64-.04,0,0-.51-.06-.23-.02s-.22-.04-.22-.04c-.2-.04-.41-.08-.61-.13-.35-.08-.69-.18-1.03-.29-.14-.04-.28-.1-.42-.15.06.02.35.16.04.02s-.6-.3-.88-.47c-.12-.07-.23-.15-.35-.23-.38-.27.3.28-.03-.04-.11-.11-.68-.73-.33-.27-.08-.1-.42-.66-.37-.53-.34-.75-.31-1.15-.23-1.97.11-1.09.73-2.52,1.48-3.63.86-1.28,2.23-2.16,3.42-2.68,1.41-.61,3.24-1.34,4.63-2.47,1.26-1.02,1.06-3.18,0-4.24-1.25-1.25-2.98-1.02-4.24,0,.36-.29-.4.22-.58.31s-1,.45-.62.3c-.92.38-1.85.73-2.75,1.17-2.09,1.03-3.77,2.65-5.05,4.58-2.35,3.55-3.42,8.74-.72,12.4,2.31,3.12,6.29,4.35,10.03,4.44,4.08.1,7.8-1.25,10.81-3.99,3.7-3.36,5.7-8.06,7.43-12.63,1.1-2.89-3.03-4.94-5.01-2.92-5.24,5.35.42,13.17,6.65,13.99,7.26.96,13.1-5.76,14.39-12.32.83-4.22.44-8.5.83-12.75.06-.68.1-.96.27-1.78s.39-1.59.67-2.36c.36-.99,1.15-2.38,1.86-3.17.9-.98,1.9-1.71,3.1-2.09s2.63-.46,3.68-.23c2.78.59,5.09,2.09,7.02,4.29,2.07,2.35,2.98,5.4,3.44,8.72.53,3.8.41,7.67.76,11.49.58,6.37,2.7,13.06,7.89,17.21,5.76,4.6,13.71,4.59,19.8.54,6.45-4.3,9.17-11.75,9.28-19.26.04-2.78-.22-6.01.09-8.51.02-.2.19-1.12.31-1.59.09-.34.19-.68.3-1.01,0,0,.17-.47.06-.2-.1.24.13-.26.15-.31.13-.26.28-.51.43-.76.07-.12.16-.25.24-.36-.28.37.03-.01.08-.07.58-.61.47-.54,1.16-.93.14-.08,1.04-.46.53-.28.26-.09.52-.18.78-.24s.52-.12.79-.16c-.63.09.34.01.52.01.26,0,.53.02.79.04.57.03-.3-.1.26.04.62.16,1.24.29,1.85.5.27.09.53.19.8.3.5.2-.15-.08.35.15.63.3,1.25.6,1.86.93,1.17.63,2.32,1.31,3.47,1.98,4.64,2.7,10.11,5.69,15.61,3.78,5.65-1.96,7.54-7.36,9.4-12.5.21-.58.42-1.15.65-1.73.05-.13.1-.26.16-.39-.02.05-.17.39-.03.07.15-.34.31-.67.48-1,.25-.48.52-.96.82-1.41.08-.13.6-.79.25-.37.2-.24.41-.47.63-.69.19-.19.39-.37.6-.55.26-.22-.02.02-.07.05.15-.11.31-.21.46-.31.57-.35,1.13-.58,1.78-.75,1.53-.41,3.16-.36,4.78-.3,3.73.15,7.55.54,11.13-.8,3.4-1.27,6.26-3.53,8.66-6.23,2.31-2.61,4.18-5.57,6.5-8.17,1.08-1.2,2.24-2.35,3.59-3.23s2.14-1.21,3.71-1.55c.96-.2,2.69-.24,3.51-.06.31.07.62.14.92.24.11.04.79.32.44.15.79.37.92.49,1.36.93.2.19.57.69.77,1.28.25.72.28,1.24.28,2.02,0,1.75-.35,3.48-.57,5.21-.46,3.51-.08,6.77,1.44,9.99,1.43,3.04,3.84,5.57,6.58,7.47,5.87,4.07,13.35,4.31,19.77,1.45,6.58-2.93,10.86-9.1,11.04-16.3.1-3.92-.82-7.78-.65-11.7.06-1.44.3-2.93.89-4.27s1.46-2.3,2.49-2.92c.62-.37.89-.49,1.38-.64.37-.11.74-.21,1.11-.28.49-.09,0-.03.49-.05.68-.02,1.16.02,1.4.09.2.06.4.1.59.17-.06-.02-.32-.16,0,0,.14.07.81.49.56.29,1.06.85,2.4,1.19,3.64.47,1.11-.65,1.78-2.13,1.38-3.39-8.59-26.63-22.68-52.19-44.9-69.79-10.64-8.42-22.69-15.02-35.71-18.94-14.88-4.49-30.36-4.73-45.7-3.02-7.93.88-15.83,2.11-23.69,3.46-7.64,1.31-15.26,2.83-22.76,4.82-13.9,3.71-27.38,9.05-38.82,17.93-7.52,5.84-13.9,12.94-19.24,20.81-4.75,7-9.28,14.19-12.59,22-2.6,6.15-4.41,12.52-5.13,19.17s-.03,13.84,1.88,20.49c1.83,6.38,4.59,12.44,7.27,18.5,1.15,2.6,2.03,4.53,2.97,7.18.37,1.03.7,2.07.97,3.13.12.47.19.95.3,1.43.17.75-.02-.64.01.1.01.28.05.57.05.85s-.16,1.53.03.58c-.07.36-.18.71-.26,1.06-.13.57.37-.53.02-.07-.09.12-.2.31-.27.45-.26.5.49-.39.03-.06-.14.1-.26.26-.39.38-1.22,1.07-1.1,3.15,0,4.24,1.21,1.21,3.02,1.08,4.24,0Z"/><path class="cls-11" d="M380.65,311.45c-2.19,5.26-5.31,10.09-9.34,14.02-3.57,3.48-7.65,6.02-12.42,7.17-3.75.91-2.16,6.7,1.6,5.79,12.51-3.03,21.22-14.01,25.95-25.39.62-1.5-.67-3.3-2.1-3.69-1.73-.47-3.07.59-3.69,2.1h0Z"/><path class="cls-11" d="M363.06,303.91c-8.83,11-21.25,20.09-35.23,21.96-1.61.21-3,1.23-3,3,0,1.45,1.38,3.22,3,3,15.87-2.12,29.58-11.39,39.48-23.72,1.01-1.26,1.23-3.01,0-4.24-1.05-1.05-3.22-1.27-4.24,0h0Z"/><g class="cls-16"><path class="cls-11" d="M281.45,389.82c-2.73,2.98-5.69,5.24-9.38,6.96-1.28.59-3.27,1.25-4.96,1.61-1.62.35-3.17.49-5.15.42-1.62-.05-3,1.42-3,3,0,1.67,1.37,2.95,3,3,9.06.3,17.71-4.18,23.74-10.75,1.1-1.19,1.18-3.06,0-4.24-1.11-1.11-3.14-1.2-4.24,0h0Z"/></g><g class="cls-16"><path class="cls-11" d="M263.56,381.04c-2.73,2.98-5.69,5.24-9.38,6.96-1.28.59-3.27,1.25-4.96,1.61s-3.17.49-5.15.42c-1.62-.05-3,1.42-3,3,0,1.67,1.37,2.95,3,3,9.06.3,17.71-4.18,23.74-10.75,1.1-1.19,1.18-3.06,0-4.24-1.11-1.11-3.14-1.2-4.24,0h0Z"/></g><path class="cls-1" d="M218.56,209.21c-3.91,2.11-8,4.37-10.25,8.05-2.25,3.67-1.78,9.17,2.16,11.23,3.42,1.79,7.77.29,10.93-1.89,3.43-2.36,6.4-5.91,6.26-9.91-.14-4-4.75-7.75-8.63-6.12"/><path class="cls-1" d="M316.03,184.19c-7.2-1.11-14.4-2.22-21.6-3.32-3.69-.57-8.09-.91-10.53,1.75-2.42,2.64-1.4,6.81.72,9.67,3.77,5.1,10.7,7.97,17.25,7.15,6.55-.82,12.43-5.29,14.65-11.14"/><path class="cls-1" d="M359,206.48c-2.6-1.83-6.47-1.86-9.1-.07s-3.81,5.26-2.77,8.15c1.62,4.52,7.26,6.32,12.17,7.51,2.68.65,5.41,1.31,8.17,1.12s5.59-1.38,6.96-3.64c1.75-2.89.59-6.71-1.79-9.18-2.38-2.46-5.71-3.87-8.95-5.22"/><path class="cls-14" d="M228.65,241c-8.05,1.83-15.61,6.46-20.74,12.95-5.68,7.17-8.74,16.2-8.26,25.38.12,2.35,1.98,4.61,4.5,4.5,2.33-.1,4.63-1.98,4.5-4.5-.1-1.97-.05-3.93.19-5.89-.12.97.08-.39.09-.47.1-.55.21-1.1.33-1.65.19-.82.41-1.64.66-2.44.29-.94.62-1.87,1-2.78-.33.81.24-.5.31-.66.21-.44.43-.88.66-1.32.46-.87.96-1.71,1.5-2.54.23-.35.47-.7.71-1.04.16-.23.33-.45.5-.68-.26.34-.3.39-.1.14,1.17-1.34,2.32-2.65,3.65-3.84.29-.26.59-.52.89-.77.2-.17.4-.33.61-.5-.39.3-.39.3.03-.01.7-.49,1.39-.98,2.11-1.43.72-.45,1.46-.87,2.21-1.27.46-.24.93-.47,1.41-.7.19-.09,1.26-.54.37-.17,1.7-.69,3.45-1.23,5.24-1.64,2.3-.52,3.87-3.3,3.14-5.54-.78-2.41-3.07-3.7-5.54-3.14h0Z"/></svg>